<?xml version="1.0" encoding="UTF-8"?>
<svg width="36px" height="34px" viewBox="0 0 36 34" version="1.1" xmlns="http://www.w3.org/2000/svg" xmlns:xlink="http://www.w3.org/1999/xlink">
    <!-- Generator: sketchtool 52.1 (67048) - http://www.bohemiancoding.com/sketch -->
    <title>452401BB-E1B6-4802-AB9D-66ECBAD38927</title>
    <desc>Created with sketchtool.</desc>
    <g id="Desktop-Web" stroke="none" stroke-width="1" fill="none" fill-rule="evenodd">
        <g id="plans-door" transform="translate(-784.000000, -407.000000)">
            <g id="opt-2" transform="translate(769.000000, 327.000000)">
                <g id="Group-5" transform="translate(0.000000, 32.000000)">
                    <g id="delivery-type">
                        <g id="self-copy" transform="translate(1.000000, 34.000000)">
                            <g id="self-pickup-active">
                                <g id="self-icon" transform="translate(14.000000, 14.000000)">
                                    <g id="Duotone" transform="translate(0.000000, 0.321702)">
                                        <polygon id="Shape" fill-rule="nonzero" points="3.67659574 8.08851064 1.4706383 5.14723404 3.67659574 2.9412766 5.14723404 0.735319149 7.35319149 0.735319149 9.55914894 2.9412766 12.5004255 2.9412766 14.706383 5.14723404 12.5004255 8.08851064"></polygon>
                                        <polygon id="Shape" fill-rule="nonzero" points="22.7948936 0.735319149 22.7948936 15.4417021 16.9123404 9.55914894 11.0297872 15.4417021 11.0297872 21.3242553 3.67659574 21.3242553 0.735319149 25.7361702 2.20595745 25.7361702 2.20595745 33.0893617 34.56 33.0893617 34.56 0.735319149"></polygon>
                                        <polygon id="Shape" stroke="#999999" stroke-linecap="round" stroke-linejoin="round" points="3.67659574 21.3242553 0.735319149 25.7361702 11.0297872 25.7361702 11.0297872 21.3242553"></polygon>
                                        <polyline id="Shape" stroke="#999999" stroke-linecap="round" stroke-linejoin="round" points="11.0297872 33.0893617 11.0297872 15.4417021 16.9123404 9.55914894 22.7948936 15.4417021 22.7948936 33.0893617"></polyline>
                                        <polyline id="Shape" stroke="#999999" stroke-linecap="round" stroke-linejoin="round" points="22.7948936 15.4417021 22.7948936 0.735319149 34.56 0.735319149 34.56 33.0893617"></polyline>
                                        <path d="M2.20595745,25.7361702 L2.20595745,33.0893617" id="Shape" stroke="#999999" stroke-linecap="round" stroke-linejoin="round"></path>
                                        <path d="M11.0297872,15.4417021 L22.7948936,15.4417021" id="Shape" stroke="#999999" stroke-linecap="round" stroke-linejoin="round"></path>
                                        <path d="M27.2068085,3.67659574 L27.2068085,6.61787234" id="Shape" stroke="#999999" stroke-linecap="round" stroke-linejoin="round"></path>
                                        <path d="M30.1480851,3.67659574 L30.1480851,6.61787234" id="Shape" stroke="#999999" stroke-linecap="round" stroke-linejoin="round"></path>
                                        <path d="M27.2068085,9.55914894 L27.2068085,12.5004255" id="Shape" stroke="#999999" stroke-linecap="round" stroke-linejoin="round"></path>
                                        <path d="M30.1480851,9.55914894 L30.1480851,12.5004255" id="Shape" stroke="#999999" stroke-linecap="round" stroke-linejoin="round"></path>
                                        <path d="M27.2068085,15.4417021 L27.2068085,18.3829787" id="Shape" stroke="#999999" stroke-linecap="round" stroke-linejoin="round"></path>
                                        <path d="M30.1480851,15.4417021 L30.1480851,18.3829787" id="Shape" stroke="#999999" stroke-linecap="round" stroke-linejoin="round"></path>
                                        <path d="M27.2068085,21.3242553 L27.2068085,24.2655319" id="Shape" stroke="#999999" stroke-linecap="round" stroke-linejoin="round"></path>
                                        <path d="M30.1480851,21.3242553 L30.1480851,24.2655319" id="Shape" stroke="#999999" stroke-linecap="round" stroke-linejoin="round"></path>
                                        <polygon id="Shape" stroke="#999999" stroke-linecap="round" stroke-linejoin="round" points="13.9710638 18.3829787 19.853617 18.3829787 19.853617 22.7948936 13.9710638 22.7948936"></polygon>
                                        <polygon id="Shape" stroke="#999999" stroke-linecap="round" stroke-linejoin="round" points="13.9710638 25.7361702 19.853617 25.7361702 19.853617 30.1480851 13.9710638 30.1480851"></polygon>
                                        <path d="M27.2068085,27.2068085 L27.2068085,30.1480851" id="Shape" stroke="#999999" stroke-linecap="round" stroke-linejoin="round"></path>
                                        <path d="M30.1480851,27.2068085 L30.1480851,30.1480851" id="Shape" stroke="#999999" stroke-linecap="round" stroke-linejoin="round"></path>
                                        <polyline id="Shape" stroke="#999999" stroke-linecap="round" stroke-linejoin="round" points="5.14723404 33.0893617 5.14723404 28.6774468 8.08851064 28.6774468 8.08851064 33.0893617"></polyline>
                                        <path d="M34.56,33.0893617 L2.20595745,33.0893617" id="Shape" stroke="#999999" stroke-linecap="round" stroke-linejoin="round"></path>
                                        <polygon id="Shape" stroke="#999999" stroke-linecap="round" stroke-linejoin="round" points="3.67659574 8.08851064 1.4706383 5.14723404 3.67659574 2.9412766 5.14723404 0.735319149 7.35319149 0.735319149 9.55914894 2.9412766 12.5004255 2.9412766 14.706383 5.14723404 12.5004255 8.08851064"></polygon>
                                    </g>
                                </g>
                            </g>
                        </g>
                    </g>
                </g>
            </g>
        </g>
    </g>
</svg>