<svg xmlns="http://www.w3.org/2000/svg" xmlns:xlink="http://www.w3.org/1999/xlink" viewBox="0 0 553.01 329.45"><defs><style>.cls-1{fill:none;}.cls-2{isolation:isolate;}.cls-3{fill:#e8ffe3;}.cls-4{clip-path:url(#clip-path);}.cls-5{clip-path:url(#clip-path-2);}.cls-6{fill:#6e524a;}.cls-7{clip-path:url(#clip-path-3);}.cls-8{fill:#8a6b60;}.cls-9{clip-path:url(#clip-path-4);}.cls-10{clip-path:url(#clip-path-5);}.cls-11{fill:#3e4360;}.cls-12{opacity:0.5;}.cls-13{clip-path:url(#clip-path-6);}.cls-14,.cls-23{fill:#fff;}.cls-15{fill:#eee;}.cls-16{fill:#a3a3a3;}.cls-17{fill:#e0e0e0;}.cls-18{fill:#8b6c60;}.cls-19{fill:#ff9d1f;}.cls-19,.cls-20,.cls-21,.cls-22,.cls-23{fill-rule:evenodd;}.cls-20{fill:#ff7f19;}.cls-21{fill:#ffae22;}.cls-22{fill:#ffc45e;}.cls-24{fill:#a30000;}.cls-25{fill:#ff9861;}.cls-26{fill:url(#linear-gradient);}.cls-27{fill:url(#linear-gradient-2);}.cls-28{fill:#adb6d8;}.cls-29{fill:#040505;}.cls-30{fill:#394747;}.cls-31{fill:#8da3b2;}.cls-32{fill:#6d7e93;}.cls-33{fill:#aec1bf;}.cls-34{fill:#6a7289;}.cls-35{fill:#7e8aa3;}.cls-36{fill:#bcc8e8;}.cls-37{fill:url(#linear-gradient-3);}.cls-38{fill:#34474c;}.cls-39{fill:#4a596d;}.cls-40{fill:#849da5;}.cls-41{fill:#31359b;}.cls-42{fill:#4f4cd8;}.cls-43{fill:#d4e2f4;}.cls-44{fill:#e19546;}.cls-45{fill:url(#linear-gradient-4);}.cls-46{clip-path:url(#clip-path-7);}.cls-47{fill:#8590a8;}.cls-48{clip-path:url(#clip-path-8);}.cls-49{fill:#9ba7ba;}.cls-50{fill:#48591b;}.cls-51{clip-path:url(#clip-path-9);}.cls-52{fill:#4c9fd8;}.cls-53{clip-path:url(#clip-path-10);}.cls-54{fill:#91b2f9;}.cls-55{fill:#31549b;}.cls-56{fill:#728093;}.cls-57{fill:#aabad6;}.cls-58{fill:url(#linear-gradient-5);}.cls-59{fill:url(#linear-gradient-6);}.cls-60{fill:#5235d4;}.cls-61{clip-path:url(#clip-path-11);}.cls-62{fill:#7d4ade;}.cls-63{clip-path:url(#clip-path-12);}.cls-64{fill:#b198ed;}.cls-65{clip-path:url(#clip-path-13);}.cls-66{clip-path:url(#clip-path-14);}.cls-67{fill:#6f738c;}.cls-68{fill:url(#linear-gradient-7);}.cls-69{fill:url(#linear-gradient-8);}.cls-70{fill:#b5bcbb;}.cls-71{fill:#254b63;}.cls-72{fill:#3c2415;}.cls-73{fill:url(#linear-gradient-9);}.cls-74{fill:url(#linear-gradient-10);}.cls-75{fill:url(#linear-gradient-11);}.cls-76{fill:url(#linear-gradient-12);}.cls-77{fill:url(#linear-gradient-13);}.cls-78{fill:url(#linear-gradient-14);}.cls-79{fill:#6a7d82;}.cls-80{fill:#99a9bf;}.cls-81{fill:#99a7c1;}.cls-82{clip-path:url(#clip-path-15);}.cls-83{clip-path:url(#clip-path-16);}.cls-84{fill:#818ea5;}.cls-85{fill:#536266;}.cls-86{clip-path:url(#clip-path-17);}.cls-87{clip-path:url(#clip-path-18);}.cls-88{fill:url(#linear-gradient-15);}.cls-89{fill:#8a96a8;}.cls-90{fill:url(#linear-gradient-16);}.cls-91{fill:url(#linear-gradient-17);}.cls-92{fill:url(#linear-gradient-18);}.cls-93{fill:url(#linear-gradient-19);}.cls-94{fill:#e54c17;}.cls-95{fill:#ff5708;}.cls-96{fill:#495959;}.cls-97{fill:url(#linear-gradient-20);}.cls-98{fill:url(#linear-gradient-21);}.cls-99{fill:#332924;}.cls-100{fill:#b69177;}.cls-101{fill:url(#linear-gradient-22);}.cls-102{fill:url(#linear-gradient-23);}.cls-103{fill:url(#linear-gradient-24);}.cls-104{fill:url(#linear-gradient-25);}.cls-105{fill:url(#linear-gradient-26);}.cls-106{fill:url(#linear-gradient-27);}.cls-107{fill:url(#linear-gradient-28);}.cls-108{fill:#ff5e08;}.cls-109{opacity:0.44;}.cls-110{fill:#656f7f;}.cls-111{fill:#a7a8a0;}.cls-112{fill:#bfc1b9;}.cls-113{fill:#bbbdbf;}.cls-113,.cls-123{mix-blend-mode:multiply;}.cls-114{fill:#ffed48;}.cls-115{fill:#fceba4;}.cls-116{fill:#e5c025;}.cls-117{fill:#616770;}.cls-118{fill:#6f757f;}.cls-119{fill:#d3e5f0;}.cls-120{fill:#5d626b;}.cls-121{fill:#798089;}.cls-122{fill:#ed4634;}.cls-123{fill:#929497;}</style><clipPath id="clip-path"><path class="cls-1" d="M418.67,183.13c0,20.53,19.13,46.82,9.08,64.61S385.8,267.56,367.84,281s-34.2,30.69-58,38.22-49.57,10.21-77,10.21-52.89-3.78-76.64-11.31-50.38-10.25-68.35-23.71S48.85,265.11,38.8,247.32s1.29-43.66,1.29-64.19,5.2-37.06,15.25-54.86S76.8,94.43,94.77,81,134.28,61.24,158,53.72s47.44-32,74.86-32,55.81,9.67,79.56,17.2S360,58.31,377.93,71.76s29.64,34.67,39.68,52.47S418.67,162.59,418.67,183.13Z"/></clipPath><clipPath id="clip-path-2"><polygon class="cls-1" points="225.06 137.03 460.86 0 553.01 53.21 317.22 190.24 225.06 137.03"/></clipPath><clipPath id="clip-path-3"><polygon class="cls-1" points="206.84 147.77 442.63 10.74 455.8 18.34 220 155.37 206.84 147.77"/></clipPath><clipPath id="clip-path-4"><polygon class="cls-1" points="293.04 189.15 528.84 52.12 542.01 59.73 306.21 196.76 293.04 189.15"/></clipPath><clipPath id="clip-path-5"><polygon class="cls-1" points="0 268.05 264.08 114.58 356.24 167.79 92.16 321.25 0 268.05"/></clipPath><clipPath id="clip-path-6"><polygon class="cls-1" points="41.37 293.95 290.13 149.38 293.41 151.28 44.66 295.84 41.37 293.95"/></clipPath><linearGradient id="linear-gradient" x1="127.48" y1="142.55" x2="146.86" y2="142.55" gradientUnits="userSpaceOnUse"><stop offset="0" stop-color="#b89883"/><stop offset="0.5" stop-color="#b58f73"/><stop offset="1" stop-color="#8f6d56"/></linearGradient><linearGradient id="linear-gradient-2" x1="122.98" y1="136.74" x2="135.14" y2="137.42" gradientUnits="userSpaceOnUse"><stop offset="0" stop-color="#f2a23e"/><stop offset="0.58" stop-color="#ffbd58"/><stop offset="1" stop-color="#ffcd64"/></linearGradient><linearGradient id="linear-gradient-3" x1="149.05" y1="188.97" x2="198.99" y2="188.97" gradientUnits="userSpaceOnUse"><stop offset="0" stop-color="#3929ce"/><stop offset="1" stop-color="#e77df8"/></linearGradient><linearGradient id="linear-gradient-4" x1="163.95" y1="144.62" x2="173.33" y2="137.18" xlink:href="#linear-gradient-3"/><clipPath id="clip-path-7"><path id="_Clipping_Path_" data-name="&lt;Clipping Path&gt;" class="cls-1" d="M158.7,140l-7.49-1.48a.68.68,0,0,0-.64.3l7.49,1.47A.72.72,0,0,1,158.7,140Z"/></clipPath><clipPath id="clip-path-8"><path id="_Clipping_Path_2" data-name="&lt;Clipping Path&gt;" class="cls-1" d="M150.67,141.29l7.49,1.48a.71.71,0,0,1-.48-.51,2.2,2.2,0,0,1,.38-1.93l-7.49-1.47a2.17,2.17,0,0,0-.38,1.92A.69.69,0,0,0,150.67,141.29Z"/></clipPath><clipPath id="clip-path-9"><path id="_Clipping_Path_3" data-name="&lt;Clipping Path&gt;" class="cls-1" d="M160.15,139.61l-2.37-.44a1,1,0,0,0-.92.43l2.37.43A1,1,0,0,1,160.15,139.61Z"/></clipPath><clipPath id="clip-path-10"><path id="_Clipping_Path_4" data-name="&lt;Clipping Path&gt;" class="cls-1" d="M157,143.11l2.38.43a1,1,0,0,1-.7-.72,3.14,3.14,0,0,1,.53-2.79l-2.37-.43a3.14,3.14,0,0,0-.53,2.79A1,1,0,0,0,157,143.11Z"/></clipPath><linearGradient id="linear-gradient-5" x1="186.23" y1="158.92" x2="198.21" y2="152.77" xlink:href="#linear-gradient-3"/><linearGradient id="linear-gradient-6" x1="179.14" y1="159.75" x2="165.23" y2="129.99" xlink:href="#linear-gradient-3"/><clipPath id="clip-path-11"><path id="_Clipping_Path_5" data-name="&lt;Clipping Path&gt;" class="cls-1" d="M192.38,161.87l-1.33-2a1,1,0,0,0-1-.37l1.33,2A1,1,0,0,1,192.38,161.87Z"/></clipPath><clipPath id="clip-path-12"><path id="_Clipping_Path_6" data-name="&lt;Clipping Path&gt;" class="cls-1" d="M187.68,162l1.33,2a1,1,0,0,1,.05-1,3.11,3.11,0,0,1,2.37-1.55l-1.33-2a3.11,3.11,0,0,0-2.37,1.55A1,1,0,0,0,187.68,162Z"/></clipPath><clipPath id="clip-path-13"><path id="_Clipping_Path_7" data-name="&lt;Clipping Path&gt;" class="cls-1" d="M196.16,168.91l-4.16-6.4a.68.68,0,0,0-.66-.26l4.17,6.4A.69.69,0,0,1,196.16,168.91Z"/></clipPath><clipPath id="clip-path-14"><path id="_Clipping_Path_8" data-name="&lt;Clipping Path&gt;" class="cls-1" d="M189.67,164l4.16,6.4a.69.69,0,0,1,0-.69,2.19,2.19,0,0,1,1.65-1.08l-4.17-6.4a2.17,2.17,0,0,0-1.64,1.07A.66.66,0,0,0,189.67,164Z"/></clipPath><linearGradient id="linear-gradient-7" x1="145.18" y1="206.27" x2="169.08" y2="206.27" gradientUnits="userSpaceOnUse"><stop offset="0" stop-color="#594a42"/><stop offset="0.5" stop-color="#8b5e3c"/><stop offset="1" stop-color="#603913"/></linearGradient><linearGradient id="linear-gradient-8" x1="146.65" y1="201.25" x2="160.9" y2="201.25" xlink:href="#linear-gradient-7"/><linearGradient id="linear-gradient-9" x1="124.95" y1="184.83" x2="164.78" y2="184.83" gradientUnits="userSpaceOnUse"><stop offset="0" stop-color="#242438"/><stop offset="1" stop-color="#34344c"/></linearGradient><linearGradient id="linear-gradient-10" x1="187.56" y1="206.13" x2="157.15" y2="217.3" xlink:href="#linear-gradient-7"/><linearGradient id="linear-gradient-11" x1="187.51" y1="205.98" x2="157.1" y2="217.14" xlink:href="#linear-gradient-7"/><linearGradient id="linear-gradient-12" x1="163.7" y1="206.59" x2="177.67" y2="206.59" xlink:href="#linear-gradient-7"/><linearGradient id="linear-gradient-13" x1="163.89" y1="207.38" x2="176.5" y2="207.38" xlink:href="#linear-gradient-7"/><linearGradient id="linear-gradient-14" x1="186.7" y1="202.29" x2="155.66" y2="213.68" xlink:href="#linear-gradient-7"/><clipPath id="clip-path-15"><path id="_Clipping_Path_9" data-name="&lt;Clipping Path&gt;" class="cls-1" d="M109.33,251a6.38,6.38,0,0,0-1.31.79,6,6,0,0,0-1.23,1.34,5.29,5.29,0,0,0-.71,1.55,4.11,4.11,0,0,0-.14,1.63,1.74,1.74,0,0,0,0,.22,1.74,1.74,0,0,1,0-.22c0,.18,0,.22.06.23h0a2.43,2.43,0,0,0,.14.2,3.64,3.64,0,0,0,.67.62,5.34,5.34,0,0,0,1.82.83,5.76,5.76,0,0,0,3.67-.32c.47-.2.68-.95.51-2.09a7.52,7.52,0,0,0-2.48-4.56A1.06,1.06,0,0,0,109.33,251Z"/></clipPath><clipPath id="clip-path-16"><path id="_Clipping_Path_10" data-name="&lt;Clipping Path&gt;" class="cls-1" d="M127.75,242.82l-.31.13c-2,.85-16.15,7.21-18.11,8.05a1.06,1.06,0,0,1,1,.22,7.52,7.52,0,0,1,2.48,4.56c.17,1.14,0,1.89-.51,2.09h0c2.06-.89,16.36-7.29,18.42-8.19.46-.19.68-1,.51-2.09a7.55,7.55,0,0,0-2.48-4.56A1.06,1.06,0,0,0,127.75,242.82Z"/></clipPath><clipPath id="clip-path-17"><path id="_Clipping_Path_11" data-name="&lt;Clipping Path&gt;" class="cls-1" d="M150.21,228,146.15,226c-1.22-.62-2.84-.42-4.58.72l4.06,2.08C147.37,227.62,149,227.42,150.21,228Z"/></clipPath><clipPath id="clip-path-18"><path id="_Clipping_Path_12" data-name="&lt;Clipping Path&gt;" class="cls-1" d="M137.9,242.28l4.07,2.08c-1.2-.61-2-2-2.13-4.05a14.25,14.25,0,0,1,5.79-11.55l-4.06-2.08a14.26,14.26,0,0,0-5.8,11.55C135.9,240.28,136.7,241.67,137.9,242.28Z"/></clipPath><linearGradient id="linear-gradient-15" x1="100.17" y1="224.06" x2="164.55" y2="195.92" xlink:href="#linear-gradient-3"/><linearGradient id="linear-gradient-16" x1="93.99" y1="221.04" x2="85.09" y2="226.54" xlink:href="#linear-gradient-3"/><linearGradient id="linear-gradient-17" x1="84.86" y1="224.53" x2="90.12" y2="224.53" xlink:href="#linear-gradient-2"/><linearGradient id="linear-gradient-18" x1="118.09" y1="231.15" x2="109.64" y2="240.28" xlink:href="#linear-gradient-3"/><linearGradient id="linear-gradient-19" x1="109.57" y1="236.16" x2="114.83" y2="236.16" xlink:href="#linear-gradient-2"/><linearGradient id="linear-gradient-20" x1="144.42" y1="130.14" x2="149.6" y2="123.02" xlink:href="#linear-gradient"/><linearGradient id="linear-gradient-21" x1="162.78" y1="120.85" x2="151.14" y2="110.54" xlink:href="#linear-gradient"/><linearGradient id="linear-gradient-22" x1="156.18" y1="117.11" x2="158.41" y2="117.11" gradientUnits="userSpaceOnUse"><stop offset="0" stop-color="#c49f83"/><stop offset="0.72" stop-color="#b58f73"/><stop offset="1" stop-color="#8f6d56"/></linearGradient><linearGradient id="linear-gradient-23" x1="182.52" y1="164.44" x2="196.44" y2="164.44" xlink:href="#linear-gradient"/><linearGradient id="linear-gradient-24" x1="188.62" y1="161.27" x2="154.81" y2="150.27" xlink:href="#linear-gradient"/><linearGradient id="linear-gradient-25" x1="124.76" y1="182.33" x2="134.73" y2="182.33" xlink:href="#linear-gradient-9"/><linearGradient id="linear-gradient-26" x1="129.76" y1="190.88" x2="178.41" y2="190.88" xlink:href="#linear-gradient-9"/><linearGradient id="linear-gradient-27" x1="122.99" y1="153.93" x2="159.43" y2="153.93" xlink:href="#linear-gradient-2"/><linearGradient id="linear-gradient-28" x1="149.22" y1="147.01" x2="164.07" y2="147.01" xlink:href="#linear-gradient-2"/></defs><title>404</title><g class="cls-2"><g id="Layer_2" data-name="Layer 2"><g id="Layer_1-2" data-name="Layer 1"><path class="cls-3" d="M418.67,183.13c0,20.53,19.13,46.82,9.08,64.61S385.8,267.56,367.84,281s-34.2,30.69-58,38.22-49.57,10.21-77,10.21-52.89-3.78-76.64-11.31-50.38-10.25-68.35-23.71S48.85,265.11,38.8,247.32s1.29-43.66,1.29-64.19,5.2-37.06,15.25-54.86S76.8,94.43,94.77,81,134.28,61.24,158,53.72s47.44-32,74.86-32,55.81,9.67,79.56,17.2S360,58.31,377.93,71.76s29.64,34.67,39.68,52.47S418.67,162.59,418.67,183.13Z"/><g class="cls-4"><g class="cls-2"><g class="cls-5"><polyline class="cls-6" points="553.01 53.21 460.86 0 225.06 137.03 317.22 190.24 553.01 53.21"/></g></g><g class="cls-2"><g class="cls-7"><polyline class="cls-8" points="455.8 18.34 442.63 10.74 206.84 147.77 220 155.37 455.8 18.34"/></g></g><g class="cls-2"><g class="cls-9"><polyline class="cls-8" points="542.01 59.73 528.84 52.12 293.04 189.15 306.21 196.76 542.01 59.73"/></g></g><g class="cls-2"><g class="cls-10"><path class="cls-11" d="M302.86,137c-5.8-3.35-14.46-4.64-24.23-5.28-15.65-1-23.17-3.7-26.71-5.75-2.48-1.43-3-2.54-3-2.54L0,268.05l92.16,53.21L341.07,176.6s1.08-6.55-7.25-11.36a27.5,27.5,0,0,0-4.68-2.11,77.53,77.53,0,0,1-12.41-5.28c-3.66-2.12-6.36-4.63-6.32-7.55A14.07,14.07,0,0,0,302.86,137"/></g></g><g class="cls-12"><g class="cls-2"><g class="cls-13"><polyline class="cls-14" points="293.41 151.28 290.13 149.38 273.77 158.89 277.06 160.78 293.41 151.28"/><path class="cls-14" d="M111.42,257.05l-3.29-1.9-36,20.92,3.29,1.9,36-20.92m50.41-29.3-3.28-1.9-36,20.93,3.28,1.9,36-20.93m50.42-29.3-3.29-1.9-36,20.93,3.29,1.9,36-20.93m50.41-29.3-3.29-1.89-36,20.92,3.29,1.9,36-20.93"/><polyline class="cls-14" points="61.01 286.34 57.72 284.44 41.37 293.95 44.66 295.84 61.01 286.34"/></g></g></g><polygon class="cls-15" points="396.31 109.81 402.45 106.51 411.59 108.46 401.4 110.56 396.31 109.81"/><polygon class="cls-16" points="402.15 116.1 408.6 112.65 411.59 108.46 401.4 110.56 402.15 116.1"/><polygon class="cls-17" points="396.01 114.6 396.31 109.81 401.4 110.56 402.15 116.1 396.01 114.6"/><polygon class="cls-15" points="314.02 121.83 320.09 118.57 329.12 120.5 319.06 122.57 314.02 121.83"/><polygon class="cls-16" points="319.8 128.05 326.16 124.64 329.12 120.5 319.06 122.57 319.8 128.05"/><polygon class="cls-17" points="313.73 126.57 314.02 121.83 319.06 122.57 319.8 128.05 313.73 126.57"/><polygon class="cls-15" points="357.38 89.89 360.18 88.39 364.34 89.28 359.7 90.23 357.38 89.89"/><polygon class="cls-16" points="360.04 92.75 362.97 91.19 364.34 89.28 359.7 90.23 360.04 92.75"/><polygon class="cls-17" points="357.24 92.07 357.38 89.89 359.7 90.23 360.04 92.75 357.24 92.07"/><ellipse class="cls-18" cx="329.1" cy="151.53" rx="3.55" ry="1.38"/><ellipse class="cls-18" cx="345.19" cy="140.51" rx="1.08" ry="0.42"/><ellipse class="cls-18" cx="421.27" cy="102.6" rx="1.08" ry="0.42"/><ellipse class="cls-18" cx="329.41" cy="137.75" rx="1.75" ry="0.68"/><ellipse class="cls-18" cx="312.7" cy="111.4" rx="1.75" ry="0.68"/><ellipse class="cls-18" cx="355.74" cy="123.4" rx="3.55" ry="1.38"/><ellipse class="cls-18" cx="345.18" cy="94.68" rx="2.63" ry="1.02"/><ellipse class="cls-18" cx="359.01" cy="104.04" rx="1.63" ry="0.64"/><ellipse class="cls-18" cx="376.73" cy="103.11" rx="3.55" ry="1.38"/><ellipse class="cls-18" cx="394.2" cy="96.29" rx="1.63" ry="0.64"/><ellipse class="cls-18" cx="389.72" cy="124.45" rx="1.23" ry="0.48"/><ellipse class="cls-18" cx="313.32" cy="138.06" rx="1.23" ry="0.48"/><ellipse class="cls-18" cx="424.79" cy="92.39" rx="3.55" ry="1.38"/><ellipse class="cls-18" cx="299.6" cy="122.43" rx="3.55" ry="1.38"/><ellipse class="cls-18" cx="337.92" cy="113.29" rx="2.29" ry="0.89"/><ellipse class="cls-18" cx="376.42" cy="81.15" rx="2.29" ry="0.89"/><ellipse class="cls-18" cx="371.35" cy="131.26" rx="2.29" ry="0.89"/><polygon class="cls-19" points="249.19 193.57 237.12 200.93 249.19 208.3 261.24 200.93 249.19 193.57"/><polygon class="cls-20" points="243.8 200.85 247.04 188.02 249.36 188.69 249.36 203.16 243.8 200.85"/><polygon class="cls-21" points="254.94 200.85 251.68 188.02 249.36 188.69 249.36 203.16 254.94 200.85"/><polygon class="cls-22" points="247.04 188.02 249.35 187.31 251.7 188.02 249.38 188.69 249.36 188.67 249.36 188.69 247.04 188.02"/><polygon class="cls-23" points="244.38 198.52 249.36 200.2 249.36 198.79 244.72 197.2 244.38 198.52"/><polygon class="cls-23" points="254.34 198.52 249.36 200.2 249.36 198.79 254.01 197.2 254.34 198.52"/><polygon class="cls-23" points="245.32 194.78 249.33 195.92 249.33 194.7 245.61 193.65 245.32 194.78"/><polygon class="cls-23" points="246.25 191.14 249.38 192.04 249.38 190.93 246.51 190.12 246.25 191.14"/><polygon class="cls-23" points="253.43 194.78 249.44 195.92 249.44 194.7 253.15 193.65 253.43 194.78"/><polygon class="cls-23" points="252.51 191.14 249.38 192.04 249.38 190.93 252.26 190.12 252.51 191.14"/><polygon class="cls-19" points="206.52 167.49 194.45 174.85 206.52 182.22 218.57 174.85 206.52 167.49"/><polygon class="cls-20" points="201.13 174.77 204.37 161.94 206.69 162.61 206.69 177.08 201.13 174.77"/><polygon class="cls-21" points="212.28 174.77 209.02 161.94 206.69 162.61 206.69 177.08 212.28 174.77"/><polygon class="cls-22" points="204.37 161.94 206.68 161.22 209.03 161.94 206.71 162.61 206.69 162.59 206.69 162.61 204.37 161.94"/><polygon class="cls-23" points="201.72 172.44 206.69 174.12 206.69 172.71 202.05 171.12 201.72 172.44"/><polygon class="cls-23" points="211.67 172.44 206.69 174.12 206.69 172.71 211.34 171.12 211.67 172.44"/><polygon class="cls-23" points="202.66 168.7 206.66 169.84 206.66 168.62 202.94 167.57 202.66 168.7"/><polygon class="cls-23" points="203.58 165.06 206.71 165.97 206.71 164.85 203.85 164.04 203.58 165.06"/><polygon class="cls-23" points="210.77 168.7 206.78 169.84 206.78 168.62 210.48 167.57 210.77 168.7"/><polygon class="cls-23" points="209.84 165.06 206.71 165.97 206.71 164.85 209.59 164.04 209.84 165.06"/><g id="_Group_" data-name="&lt;Group&gt;"><path id="_Path_" data-name="&lt;Path&gt;" class="cls-24" d="M150.34,111.19s12.82,1.32,13.18.2c.43-1.32,4.56,3.74-1.07,3.25S146.74,111.47,150.34,111.19Z"/><path id="_Path_2" data-name="&lt;Path&gt;" class="cls-25" d="M150.93,111.09s12.33,1.07,12.7,0c.43-1.32,4.55,3.73-1.07,3.24S145.59,111.05,150.93,111.09Z"/><path id="_Path_3" data-name="&lt;Path&gt;" class="cls-26" d="M144.18,135.56l-9.31,12.18s2.49-1,3.34-1.39a78.45,78.45,0,0,1,7.5-2.92s1.87,6,.83,6.11-17.45,11.45-19,4.17c-.54-2.48,5.73-17.77,9-21.83,1.58-2,4.94-3.8,7.06-2.48S146,132.54,144.18,135.56Z"/><path id="_Path_4" data-name="&lt;Path&gt;" class="cls-27" d="M143.19,148.74a21.65,21.65,0,0,1-7.53,0c-5.79-1.3-7.6-4.5-7.6-4.5s4.83-12,7-14.7c3-3.79,6.8-3.67,8.29-2.78s3.39,3,1.93,9.45A94.43,94.43,0,0,0,143.19,148.74Z"/><g id="_Group_2" data-name="&lt;Group&gt;"><path id="_Path_5" data-name="&lt;Path&gt;" class="cls-28" d="M178,143.86s8.57-.54,11.43,5.86,8.18,17.22,5.86,25.33-23.47-21-23.47-21Z"/></g><g id="_Group_3" data-name="&lt;Group&gt;"><g id="_Group_4" data-name="&lt;Group&gt;"><g id="_Group_5" data-name="&lt;Group&gt;"><g id="_Group_6" data-name="&lt;Group&gt;"><path id="_Compound_Path_" data-name="&lt;Compound Path&gt;" class="cls-29" d="M197.32,180.1c7.39-4.26,13.42-.83,13.44,7.66s-6,18.87-13.35,23.13a11,11,0,0,1-7.4,1.71c-3.63-.68-6-4-6-9.37C183.94,194.75,189.94,184.37,197.32,180.1Z"/></g></g></g></g><g id="_Group_7" data-name="&lt;Group&gt;"><g id="_Group_8" data-name="&lt;Group&gt;"><g id="_Group_9" data-name="&lt;Group&gt;"><g id="_Group_10" data-name="&lt;Group&gt;"><g id="_Group_11" data-name="&lt;Group&gt;"><path id="_Path_6" data-name="&lt;Path&gt;" class="cls-29" d="M185.53,208.72s-.49.83,1.43,2.41c3.28,2.69,7.86,6,13.12,4.37,2.74-.81,15.38-31,15.38-31s-1.92-4.81-9.78-5.5-14.46,8.18-14.46,8.18Z"/></g></g></g><g id="_Group_12" data-name="&lt;Group&gt;"><g id="_Group_13" data-name="&lt;Group&gt;"><g id="_Group_14" data-name="&lt;Group&gt;"><g id="_Group_15" data-name="&lt;Group&gt;"><path id="_Compound_Path_2" data-name="&lt;Compound Path&gt;" class="cls-30" d="M203.77,183.23c7.39-4.26,13.42-.83,13.44,7.66s-6,18.87-13.35,23.13a11,11,0,0,1-7.41,1.71c-3.62-.68-6-4-6-9.37C190.39,197.87,196.38,187.5,203.77,183.23Z"/></g></g></g></g><g id="_Group_16" data-name="&lt;Group&gt;"><g id="_Group_17" data-name="&lt;Group&gt;"><g id="_Group_18" data-name="&lt;Group&gt;"><g id="_Group_19" data-name="&lt;Group&gt;"><g id="_Group_20" data-name="&lt;Group&gt;"><g id="_Group_21" data-name="&lt;Group&gt;"><g id="_Group_22" data-name="&lt;Group&gt;"><path id="_Compound_Path_3" data-name="&lt;Compound Path&gt;" class="cls-31" d="M200.73,209.75c-3.27,0-5.4-2.63-5.41-6.69,0-5.54,3.89-12.3,8.7-15.09a8.29,8.29,0,0,1,4.13-1.24c3.28,0,5.4,2.63,5.41,6.69,0,5.53-3.89,12.3-8.71,15.08A8.32,8.32,0,0,1,200.73,209.75Z"/></g></g></g></g></g></g><g id="_Group_23" data-name="&lt;Group&gt;"><g id="_Group_24" data-name="&lt;Group&gt;"><g id="_Group_25" data-name="&lt;Group&gt;"><g id="_Group_26" data-name="&lt;Group&gt;"><path id="_Path_7" data-name="&lt;Path&gt;" class="cls-32" d="M197.91,208.2a4.39,4.39,0,0,0,2.82,1,7.78,7.78,0,0,0,3.83-1.17c4.66-2.69,8.43-9.22,8.41-14.57,0-2.49-.86-4.38-2.3-5.36l-.08,0S211.32,200.86,197.91,208.2Z"/></g></g></g></g><g id="_Group_27" data-name="&lt;Group&gt;"><g id="_Group_28" data-name="&lt;Group&gt;"><g id="_Group_29" data-name="&lt;Group&gt;"><g id="_Group_30" data-name="&lt;Group&gt;"><g id="_Group_31" data-name="&lt;Group&gt;"><path id="_Compound_Path_4" data-name="&lt;Compound Path&gt;" class="cls-33" d="M202.3,205.21c-1.89,0-3.11-1.53-3.12-3.9a11.53,11.53,0,0,1,5.22-9.05,4.89,4.89,0,0,1,2.43-.74c1.89,0,3.11,1.54,3.12,3.91a11.53,11.53,0,0,1-5.22,9A4.89,4.89,0,0,1,202.3,205.21Z"/></g></g></g></g></g></g></g><g id="_Group_32" data-name="&lt;Group&gt;"><g id="_Group_33" data-name="&lt;Group&gt;"><g id="_Group_34" data-name="&lt;Group&gt;"><path id="_Path_8" data-name="&lt;Path&gt;" class="cls-34" d="M191.69,188.83l11.78,9c1.14.86,2.55,2.44,3.44,1.32s-3.19-4.13-4.27-5.06l-9.87-8.57A17.85,17.85,0,0,0,191.69,188.83Z"/></g></g><g id="_Group_35" data-name="&lt;Group&gt;"><g id="_Group_36" data-name="&lt;Group&gt;"><path id="_Path_9" data-name="&lt;Path&gt;" class="cls-35" d="M192.06,188.74l11.77,9c1.15.87,2.56,2.44,3.44,1.32S204.09,195,203,194l-9.87-8.57A17,17,0,0,0,192.06,188.74Z"/></g></g></g></g><g id="_Group_37" data-name="&lt;Group&gt;"><g id="_Group_38" data-name="&lt;Group&gt;"><path id="_Path_10" data-name="&lt;Path&gt;" class="cls-28" d="M193.33,169.86s7.31-4.23,14.16-1.91a8.19,8.19,0,0,1,5.25,5.92s1,1.69-5.1,7.56L197.19,191Z"/></g><g id="_Group_39" data-name="&lt;Group&gt;"><path id="_Path_11" data-name="&lt;Path&gt;" class="cls-36" d="M196.83,175s7.09-4.55,12.55-.86a.82.82,0,0,1-.37,1.45c-2.8.66-8.23,2.44-10.58,6.67S196.83,175,196.83,175Z"/></g></g><g id="_Group_40" data-name="&lt;Group&gt;"><g id="_Group_41" data-name="&lt;Group&gt;"><path id="_Path_12" data-name="&lt;Path&gt;" class="cls-37" d="M164,198.29s9.41-21.85,1.62-41.3c0,0-2.81-6.08.69-7.93,0,0,10.12-2.19,13.05-1s15.75,12.51,19,30.12c0,0,4.55,22.31-10.19,37.6,0,0-4.1,9.73-11.2,12.28,0,0-10,3.75-26.33,1.28a1.87,1.87,0,0,1-1.55-2l2.17-25.12A38.27,38.27,0,0,1,164,198.29Z"/></g><g id="_Group_42" data-name="&lt;Group&gt;"><g id="_Group_43" data-name="&lt;Group&gt;"><path id="_Path_13" data-name="&lt;Path&gt;" class="cls-38" d="M191,207.75a16.46,16.46,0,0,1-9.23-.73s-10.73,2.12-9.65-4.25c0,0-3.75-2.09-.81-5.17,0,0-13.2.23-20.07,4.63l-1.86,25.44a8.58,8.58,0,0,1,4.38-4.45,7.69,7.69,0,0,1,3.37-.54,66.35,66.35,0,0,0,22.33-4.08S189,215.63,191,207.75Z"/></g><g id="_Group_44" data-name="&lt;Group&gt;"><path id="_Path_14" data-name="&lt;Path&gt;" class="cls-39" d="M153.75,223.22a8.58,8.58,0,0,0-4.38,4.45l1.68-23.08c5.91-3.67,19-4.88,19.13-4.7-.07.45-.06,1.34-.14,1.53-1,2.33,1.72,3.82,1.72,3.82-1.08,6.37,9.66,4.25,9.66,4.25a16.13,16.13,0,0,0,8.56.86c-3.13,5.94-10.53,8.25-10.53,8.25a66.35,66.35,0,0,1-22.33,4.08A7.69,7.69,0,0,0,153.75,223.22Z"/></g><g id="_Group_45" data-name="&lt;Group&gt;"><path id="_Path_15" data-name="&lt;Path&gt;" class="cls-40" d="M149.37,227.67a8.58,8.58,0,0,1,4.38-4.45,7.69,7.69,0,0,1,3.37-.54,66.35,66.35,0,0,0,22.33-4.08s9.53-3,11.54-10.85h0a9,9,0,0,1-1.14,4.8A23.61,23.61,0,0,1,178.06,222s-3.61,2.51-28.53,5.9C149.24,227.94,149.37,227.67,149.37,227.67Z"/></g></g><g id="_Group_46" data-name="&lt;Group&gt;"><path id="_Path_16" data-name="&lt;Path&gt;" class="cls-41" d="M172.11,202.77s8.38-31.65-4.9-53.43C167.21,149.34,177.79,163.93,172.11,202.77Z"/></g><g id="_Group_47" data-name="&lt;Group&gt;"><path id="_Path_17" data-name="&lt;Path&gt;" class="cls-42" d="M181.76,207s2.21-27.11,9.46-28.42c0,0,7.57-.23-.23,29.15C191,207.75,186,209,181.76,207Z"/></g><g id="_Group_48" data-name="&lt;Group&gt;"><path id="_Path_18" data-name="&lt;Path&gt;" class="cls-41" d="M184.35,155.59l2-1,.47.12a50.49,50.49,0,0,1,11.5,23.51s4.55,22.31-10.19,37.6C211,181.85,184.35,155.59,184.35,155.59Z"/></g></g><g id="_Group_49" data-name="&lt;Group&gt;"><path id="_Path_19" data-name="&lt;Path&gt;" class="cls-43" d="M187.54,153.67c1.23,2.47,3.59,3.8,5.27,3s2-3.52.81-6-3.59-3.8-5.27-3S186.31,151.19,187.54,153.67Z"/></g><g id="_Group_50" data-name="&lt;Group&gt;"><g id="_Group_51" data-name="&lt;Group&gt;"><g id="_Group_52" data-name="&lt;Group&gt;"><path id="_Path_20" data-name="&lt;Path&gt;" class="cls-44" d="M164.62,143.12c1.2,2.26,5,.86,6.58.14a1.35,1.35,0,0,0,.82-1.14,4.71,4.71,0,0,0-2.44-4.69,1.44,1.44,0,0,0-1.42.09C166.66,138.43,163.38,140.78,164.62,143.12Z"/></g><g id="_Group_53" data-name="&lt;Group&gt;"><path id="_Path_21" data-name="&lt;Path&gt;" class="cls-45" d="M163.31,143.78c1.31,2.47,5.45.94,7.2.15a1.47,1.47,0,0,0,.89-1.24,5.12,5.12,0,0,0-2.67-5.13,1.56,1.56,0,0,0-1.55.09C165.54,138.65,162,141.22,163.31,143.78Z"/></g></g><g id="_Group_54" data-name="&lt;Group&gt;"><path id="_Path_22" data-name="&lt;Path&gt;" class="cls-28" d="M160.21,142.82a2.54,2.54,0,0,1-3,1.18c-1.59-.51-5.91-2-8.12-.64,0,0-.68,1-1.5.62,0,0-1.37-1.24,1.81-1.67a22.17,22.17,0,0,1,5.44,0,2.19,2.19,0,0,0,1.41-.52c.75-.58.53-1,1.23-1.26S160.9,141.75,160.21,142.82Z"/></g><g id="_Group_55" data-name="&lt;Group&gt;"><g id="_Group_56" data-name="&lt;Group&gt;" class="cls-2"><g id="_Clip_Group_" data-name="&lt;Clip Group&gt;" class="cls-2"><g class="cls-46"><g id="_Group_57" data-name="&lt;Group&gt;" class="cls-2"><g id="_Group_58" data-name="&lt;Group&gt;"><path id="_Path_23" data-name="&lt;Path&gt;" class="cls-47" d="M158.7,140l-7.49-1.48a.68.68,0,0,0-.64.3l7.49,1.47a.72.72,0,0,1,.64-.29Z"/></g></g></g></g><g id="_Clip_Group_2" data-name="&lt;Clip Group&gt;" class="cls-2"><g class="cls-48"><g id="_Group_59" data-name="&lt;Group&gt;" class="cls-2"><g id="_Group_60" data-name="&lt;Group&gt;"><path id="_Path_24" data-name="&lt;Path&gt;" class="cls-47" d="M158.06,140.33l-7.49-1.47a1.86,1.86,0,0,0-.29.48l7.5,1.48a1.79,1.79,0,0,1,.28-.49Z"/></g><g id="_Group_61" data-name="&lt;Group&gt;"><path id="_Path_25" data-name="&lt;Path&gt;" class="cls-49" d="M157.78,140.82l-7.5-1.48a2.24,2.24,0,0,0-.16.69l7.49,1.48a2,2,0,0,1,.17-.69Z"/></g><g id="_Group_62" data-name="&lt;Group&gt;"><path id="_Path_26" data-name="&lt;Path&gt;" class="cls-47" d="M157.61,141.51,150.12,140a2,2,0,0,0,.07.75.69.69,0,0,0,.48.51l7.49,1.48a.71.71,0,0,1-.48-.51,2,2,0,0,1-.07-.75Z"/></g></g></g></g><g id="_Group_63" data-name="&lt;Group&gt;"><g id="_Group_64" data-name="&lt;Group&gt;"><path id="_Path_27" data-name="&lt;Path&gt;" class="cls-50" d="M158.06,140.33a2.2,2.2,0,0,0-.38,1.93.6.6,0,0,0,1.12.21,2.11,2.11,0,0,0,.38-1.92C159,140,158.48,139.86,158.06,140.33Z"/></g></g></g></g><g id="_Group_65" data-name="&lt;Group&gt;"><g id="_Group_66" data-name="&lt;Group&gt;" class="cls-2"><g id="_Clip_Group_3" data-name="&lt;Clip Group&gt;" class="cls-2"><g class="cls-51"><g id="_Group_67" data-name="&lt;Group&gt;"><g id="_Group_68" data-name="&lt;Group&gt;"><path id="_Path_28" data-name="&lt;Path&gt;" class="cls-52" d="M160.15,139.61l-2.37-.44a1,1,0,0,0-.92.43l2.37.43a1,1,0,0,1,.92-.42Z"/></g></g></g></g><g id="_Clip_Group_4" data-name="&lt;Clip Group&gt;" class="cls-2"><g class="cls-53"><g id="_Group_69" data-name="&lt;Group&gt;" class="cls-2"><g id="_Group_70" data-name="&lt;Group&gt;"><path id="_Path_29" data-name="&lt;Path&gt;" class="cls-52" d="M159.23,140l-2.37-.43a2.71,2.71,0,0,0-.42.7l2.38.43a2.43,2.43,0,0,1,.41-.7Z"/></g><g id="_Group_71" data-name="&lt;Group&gt;"><path id="_Path_30" data-name="&lt;Path&gt;" class="cls-54" d="M158.82,140.73l-2.38-.43a3.73,3.73,0,0,0-.23,1l2.37.43a3.48,3.48,0,0,1,.24-1Z"/></g><g id="_Group_72" data-name="&lt;Group&gt;"><path id="_Path_31" data-name="&lt;Path&gt;" class="cls-52" d="M158.58,141.73l-2.37-.43a2.78,2.78,0,0,0,.12,1.09,1,1,0,0,0,.69.72l2.38.43a1,1,0,0,1-.7-.72,2.8,2.8,0,0,1-.12-1.09Z"/></g></g></g></g><g id="_Group_73" data-name="&lt;Group&gt;"><g id="_Group_74" data-name="&lt;Group&gt;"><path id="_Path_32" data-name="&lt;Path&gt;" class="cls-55" d="M159.23,140a3.14,3.14,0,0,0-.53,2.79c.3.86,1,1,1.62.3a3.14,3.14,0,0,0,.53-2.79A.87.87,0,0,0,159.23,140Z"/></g></g></g></g><g id="_Group_75" data-name="&lt;Group&gt;"><g id="_Group_76" data-name="&lt;Group&gt;"><path id="_Path_33" data-name="&lt;Path&gt;" class="cls-35" d="M165.83,152.61a5,5,0,0,1-1.81-2.37,9.18,9.18,0,0,1-.37-2.6c-.09-2.08-.17-3.77-3.58-4.79a1.16,1.16,0,0,1-.83-1.33,1,1,0,0,1,1.31-.78c5,1.48,5.16,4.54,5.26,6.81a8.28,8.28,0,0,0,.26,2c.51,1.71,3.87,2.73,5,3.09A1.23,1.23,0,0,1,172,154a1,1,0,0,1-1.19.84A23.17,23.17,0,0,1,165.83,152.61Z"/></g></g><g id="_Group_77" data-name="&lt;Group&gt;"><path id="_Path_34" data-name="&lt;Path&gt;" class="cls-56" d="M159.24,141.52c0-.07,0-.14.07-.2a1.19,1.19,0,0,1,.42,0c5,1.49,5.15,4.54,5.25,6.82a8.72,8.72,0,0,0,.26,2c.51,1.71,3.87,2.74,5,3.1a1.22,1.22,0,0,1,.91,1.31,1,1,0,0,1-.07.26,1,1,0,0,1-.3,0,23.17,23.17,0,0,1-5-2.18,5,5,0,0,1-1.81-2.37,9.18,9.18,0,0,1-.37-2.6c-.09-2.08-.17-3.77-3.58-4.79A1.16,1.16,0,0,1,159.24,141.52Z"/></g><g id="_Group_78" data-name="&lt;Group&gt;"><path id="_Path_35" data-name="&lt;Path&gt;" class="cls-35" d="M157.87,124.51a.31.31,0,0,1,.38.2l5.35,17.61a.52.52,0,0,1-.16.55.21.21,0,0,1-.35-.1l-5.43-17.88A.3.3,0,0,1,157.87,124.51Z"/></g><g id="_Group_79" data-name="&lt;Group&gt;"><g id="_Group_80" data-name="&lt;Group&gt;"><path id="_Path_36" data-name="&lt;Path&gt;" class="cls-57" d="M153.46,126.9c1.23,2.48,3.59,3.81,5.27,3s2-3.51.81-6-3.59-3.81-5.27-3S152.23,124.43,153.46,126.9Z"/></g><g id="_Group_81" data-name="&lt;Group&gt;"><path id="_Path_37" data-name="&lt;Path&gt;" class="cls-41" d="M159,124.26c-1.22-2.43-3.52-3.76-5.2-3a2.26,2.26,0,0,1,.52-.35c1.68-.84,4,.49,5.27,3s.87,5.16-.81,6l-.07,0C159.88,128.82,160,126.46,159,124.26Z"/></g></g></g><g id="_Group_82" data-name="&lt;Group&gt;"><path id="_Path_38" data-name="&lt;Path&gt;" class="cls-36" d="M173.64,139.32a2.43,2.43,0,0,1,1.25-.25c1.44,0,6,.76,6.06,5.35l0,3.39a.53.53,0,0,1-.53.53l-2.43,0a.52.52,0,0,1-.52-.52l0-6.09a.62.62,0,0,0-.18-.44A8.64,8.64,0,0,0,173.64,139.32Z"/></g><g id="_Group_83" data-name="&lt;Group&gt;"><g id="_Group_84" data-name="&lt;Group&gt;"><path id="_Path_39" data-name="&lt;Path&gt;" class="cls-44" d="M187.8,158.28c1.19,2.26,5,.86,6.58.14a1.37,1.37,0,0,0,.82-1.14,4.69,4.69,0,0,0-2.45-4.69,1.43,1.43,0,0,0-1.41.09C189.84,153.59,186.56,155.94,187.8,158.28Z"/></g><g id="_Group_85" data-name="&lt;Group&gt;"><path id="_Path_40" data-name="&lt;Path&gt;" class="cls-58" d="M186.49,158.94c1.3,2.47,5.44.94,7.2.15a1.51,1.51,0,0,0,.89-1.25,5.11,5.11,0,0,0-2.68-5.12,1.57,1.57,0,0,0-1.55.09C188.72,153.81,185.13,156.38,186.49,158.94Z"/></g></g><g id="_Group_86" data-name="&lt;Group&gt;"><g id="_Group_87" data-name="&lt;Group&gt;"><path id="_Path_41" data-name="&lt;Path&gt;" class="cls-59" d="M166.44,147.72a32,32,0,0,1,5.25,8.18,2.94,2.94,0,0,0,2.2,2.11,9,9,0,0,0,5.52-1.45c4.94-2.9-1.47-14.36-1.47-14.36Z"/></g><g id="_Group_88" data-name="&lt;Group&gt;"><path id="_Path_42" data-name="&lt;Path&gt;" class="cls-60" d="M177.76,152.43a.43.43,0,0,1,.7.31l0,1.8a1.36,1.36,0,0,1-.76,1.26l-3.47,1.71a.59.59,0,0,1-.85-.47,1.63,1.63,0,0,1,.55-1.41Z"/></g><g id="_Group_89" data-name="&lt;Group&gt;"><path id="_Path_43" data-name="&lt;Path&gt;" class="cls-41" d="M171.65,140.3a2.64,2.64,0,0,1,3.31-.54L177.1,141a1.76,1.76,0,0,1,.43,2.7l-4.91,5.45a2.69,2.69,0,0,1-3.33.54l-2-1.17a1.77,1.77,0,0,1-.45-2.7Z"/></g><g id="_Group_90" data-name="&lt;Group&gt;"><path id="_Path_44" data-name="&lt;Path&gt;" class="cls-31" d="M172,140.82a2.15,2.15,0,0,1,2.68-.44l1.73,1a1.42,1.42,0,0,1,.34,2.18l-4.44,5a2.19,2.19,0,0,1-2.7.43l-1.63-.94a1.44,1.44,0,0,1-.37-2.19Z"/></g></g><g id="_Group_91" data-name="&lt;Group&gt;"><g id="_Group_92" data-name="&lt;Group&gt;"><g id="_Group_93" data-name="&lt;Group&gt;"><path id="_Path_45" data-name="&lt;Path&gt;" class="cls-35" d="M176.72,159a5,5,0,0,0,2.86.81,9.12,9.12,0,0,0,2.56-.61c2.16-.74,3.86-1.34,6.42,2.44l1.79-1.21c-3.49-5.15-6.63-4.07-8.92-3.27a7.17,7.17,0,0,1-1.94.49c-1.33.06-2.58-1.11-3.35-2.07a8.16,8.16,0,0,0-.94-1,6.68,6.68,0,0,0-.75.61c-.36.3-.75.61-.72.7a7.1,7.1,0,0,0,.5.76A9.47,9.47,0,0,0,176.72,159Z"/></g></g><g id="_Group_94" data-name="&lt;Group&gt;"><path id="_Path_46" data-name="&lt;Path&gt;" class="cls-56" d="M179.23,158.46a7.32,7.32,0,0,0,2-.49c2.22-.77,5.25-1.82,8.63,2.86l-1.25.85c-2.56-3.78-4.26-3.18-6.42-2.44a9.12,9.12,0,0,1-2.56.61,5,5,0,0,1-2.86-.81,9.47,9.47,0,0,1-2.49-2.35l-.32-.46c-.08-.16-.27-.27-.18-.37.31-.28.91-.81.93-.81a9.26,9.26,0,0,1,1.22,1.34C176.65,157.35,177.9,158.52,179.23,158.46Z"/></g><g id="_Group_95" data-name="&lt;Group&gt;"><path id="_Path_47" data-name="&lt;Path&gt;" class="cls-28" d="M188.19,161.14a.59.59,0,0,1,0,.56c-.28.75.72,2.18.72,2.18,2.48,3.5,1.7,4.71,1.7,4.71-.77,1.39-1.61.32-1.61.32a.87.87,0,0,1,.48-1.38c.94-1.15-2.45-4.91-2.45-4.91-1.47-1.9-1.13-3-.82-3.52a.27.27,0,0,1,.44,0Z"/></g><g id="_Group_96" data-name="&lt;Group&gt;"><g id="_Group_97" data-name="&lt;Group&gt;" class="cls-2"><g id="_Clip_Group_5" data-name="&lt;Clip Group&gt;" class="cls-2"><g class="cls-61"><g id="_Group_98" data-name="&lt;Group&gt;"><g id="_Group_99" data-name="&lt;Group&gt;"><path id="_Path_48" data-name="&lt;Path&gt;" class="cls-62" d="M192.38,161.87l-1.33-2a1,1,0,0,0-1-.37l1.33,2a1,1,0,0,1,.95.37Z"/></g></g></g></g><g id="_Clip_Group_6" data-name="&lt;Clip Group&gt;" class="cls-2"><g class="cls-63"><g id="_Group_100" data-name="&lt;Group&gt;" class="cls-2"><g id="_Group_101" data-name="&lt;Group&gt;"><path id="_Path_49" data-name="&lt;Path&gt;" class="cls-62" d="M191.43,161.5l-1.33-2a2.53,2.53,0,0,0-.79.19l1.33,2a2.67,2.67,0,0,1,.79-.19Z"/></g><g id="_Group_102" data-name="&lt;Group&gt;"><path id="_Path_50" data-name="&lt;Path&gt;" class="cls-64" d="M190.64,161.69l-1.33-2a3.14,3.14,0,0,0-.88.52l1.33,2a3.58,3.58,0,0,1,.88-.52Z"/></g><g id="_Group_103" data-name="&lt;Group&gt;"><path id="_Path_51" data-name="&lt;Path&gt;" class="cls-62" d="M189.76,162.21l-1.33-2a2.62,2.62,0,0,0-.7.84,1,1,0,0,0,0,1l1.33,2a1,1,0,0,1,.05-1,2.73,2.73,0,0,1,.7-.84Z"/></g></g></g></g><g id="_Group_104" data-name="&lt;Group&gt;"><g id="_Group_105" data-name="&lt;Group&gt;"><path id="_Path_52" data-name="&lt;Path&gt;" class="cls-55" d="M191.43,161.5a3.11,3.11,0,0,0-2.37,1.55c-.41.81,0,1.42.9,1.37a3.13,3.13,0,0,0,2.38-1.55C192.75,162.07,192.34,161.45,191.43,161.5Z"/></g></g></g></g><g id="_Group_106" data-name="&lt;Group&gt;"><g id="_Group_107" data-name="&lt;Group&gt;" class="cls-2"><g id="_Clip_Group_7" data-name="&lt;Clip Group&gt;" class="cls-2"><g class="cls-65"><g id="_Group_108" data-name="&lt;Group&gt;"><g id="_Group_109" data-name="&lt;Group&gt;"><path id="_Path_53" data-name="&lt;Path&gt;" class="cls-47" d="M196.16,168.91l-4.16-6.4a.68.68,0,0,0-.66-.26l4.17,6.4a.69.69,0,0,1,.65.26Z"/></g></g></g></g><g id="_Clip_Group_8" data-name="&lt;Clip Group&gt;" class="cls-2"><g class="cls-66"><g id="_Group_110" data-name="&lt;Group&gt;" class="cls-2"><g id="_Group_111" data-name="&lt;Group&gt;"><path id="_Path_54" data-name="&lt;Path&gt;" class="cls-47" d="M195.51,168.65l-4.17-6.4a1.85,1.85,0,0,0-.54.13l4.16,6.4a1.83,1.83,0,0,1,.55-.13Z"/></g><g id="_Group_112" data-name="&lt;Group&gt;"><path id="_Path_55" data-name="&lt;Path&gt;" class="cls-49" d="M195,168.78l-4.16-6.4a2.57,2.57,0,0,0-.62.36l4.17,6.4a2.65,2.65,0,0,1,.61-.36Z"/></g><g id="_Group_113" data-name="&lt;Group&gt;"><path id="_Path_56" data-name="&lt;Path&gt;" class="cls-47" d="M194.35,169.14l-4.17-6.4a1.86,1.86,0,0,0-.48.58.66.66,0,0,0,0,.7l4.16,6.4a.69.69,0,0,1,0-.69,1.93,1.93,0,0,1,.49-.59Z"/></g></g></g></g><g id="_Group_114" data-name="&lt;Group&gt;"><g id="_Group_115" data-name="&lt;Group&gt;"><path id="_Path_57" data-name="&lt;Path&gt;" class="cls-67" d="M195.51,168.65a2.19,2.19,0,0,0-1.65,1.08c-.28.56,0,1,.63,1a2.16,2.16,0,0,0,1.64-1.08C196.41,169.05,196.13,168.62,195.51,168.65Z"/></g></g></g></g><g id="_Group_116" data-name="&lt;Group&gt;"><g id="_Group_117" data-name="&lt;Group&gt;"><g id="_Group_118" data-name="&lt;Group&gt;"><path id="_Path_58" data-name="&lt;Path&gt;" class="cls-35" d="M183.09,156.9a.29.29,0,0,0,.31.29.33.33,0,0,0,.31-.32,2.28,2.28,0,0,1,1.42-2l3.25-1.33a.3.3,0,0,0,.16-.4.3.3,0,0,0-.4-.17l-3.24,1.32A2.93,2.93,0,0,0,183.09,156.9Z"/></g></g><g id="_Group_119" data-name="&lt;Group&gt;"><g id="_Group_120" data-name="&lt;Group&gt;"><path id="_Path_59" data-name="&lt;Path&gt;" class="cls-43" d="M187.54,153.67c1.23,2.47,3.59,3.8,5.27,3s2-3.52.81-6-3.59-3.8-5.27-3S186.31,151.19,187.54,153.67Z"/></g><g id="_Group_121" data-name="&lt;Group&gt;"><path id="_Path_60" data-name="&lt;Path&gt;" class="cls-41" d="M193,151c-1.21-2.44-3.52-3.76-5.2-3a2.68,2.68,0,0,1,.52-.36c1.68-.83,4,.5,5.27,3s.87,5.16-.81,6l-.07,0C194,155.58,194.12,153.22,193,151Z"/></g></g></g></g><g id="_Group_122" data-name="&lt;Group&gt;"><path id="_Path_61" data-name="&lt;Path&gt;" class="cls-68" d="M147,202.53c-.18.43-.52,2-.68,2.54-.47,1.56-1,4.47-1,4.47a3.28,3.28,0,0,0,.57,2.7,4.09,4.09,0,0,0,1.41.94,6.42,6.42,0,0,0,5.58.11c3.43-1.34,10.88-5.64,13.63-7.35,2.13-1.33,2.46-2.19,2.46-2.19s.72-2.65-.83-3.89c-2.71-2.15-8.25-1-9.08.28-1.29,1.94-5,4.48-5.84,4.41-1.46-.12.07-.76-1-1.66S147.62,200.91,147,202.53Z"/><path id="_Path_62" data-name="&lt;Path&gt;" class="cls-69" d="M154.56,197.16c1-.25,5.57-.51,6-.14,1,.9-.2,2.33-.76,3.47s-5,4.67-5,4.67a27.37,27.37,0,0,1-4.35.5c-6.81-.71-2.24-4-2.24-4S149.38,198.52,154.56,197.16Z"/><path id="_Path_63" data-name="&lt;Path&gt;" class="cls-70" d="M153.49,197.12c1-.25,5.75-.68,6.06-.24.83,1.16-.62,3-1.17,4.16s-4.6,5-4.6,5-.21-2-1.24-2.12c-6.81-.71-5.62-1.42-5.62-1.42A9.41,9.41,0,0,1,153.49,197.12Z"/><path id="_Path_64" data-name="&lt;Path&gt;" class="cls-71" d="M154.13,211.55l-2.58-3.63c-.69-1-3.38-2.47-4.49-2.4a1.75,1.75,0,0,0-1,.38c-.4,1.58-.81,3.64-.81,3.64a3.28,3.28,0,0,0,.57,2.7,1.55,1.55,0,0,0,.26.25,10.73,10.73,0,0,0,3.54.66C153.58,213.29,154.13,211.55,154.13,211.55Z"/><path id="_Path_65" data-name="&lt;Path&gt;" class="cls-72" d="M168.91,202.22s-.33.87-2.46,2.19c-2.75,1.72-10.2,6-13.63,7.35a6.35,6.35,0,0,1-5.58-.11,4.07,4.07,0,0,1-1.41-.93,2.84,2.84,0,0,1-.57-1.19h0a3.28,3.28,0,0,0,.57,2.7,4.09,4.09,0,0,0,1.41.94,6.42,6.42,0,0,0,5.58.11c3.43-1.34,10.88-5.64,13.63-7.35,2.13-1.33,2.46-2.19,2.46-2.19a5.83,5.83,0,0,0,.11-2.13A5.59,5.59,0,0,1,168.91,202.22Z"/></g><path id="_Path_66" data-name="&lt;Path&gt;" class="cls-73" d="M127.79,173.06l27.51-8.45s11.15-3.22,9.27,8.45c-1.21,7.54-5.21,27.51-5.83,28.76,0,0-3.45,4.73-7.4,3.4-4.15-1.41-4.78-2.91-4.78-2.91s3.32-13.94,3.53-17.69c0-.56-12.2,2.3-12.2,2.3s-7.1,2.47-11.15-3.23C122.16,177.22,127.79,173.06,127.79,173.06Z"/><g id="_Group_123" data-name="&lt;Group&gt;"><path id="_Path_67" data-name="&lt;Path&gt;" class="cls-74" d="M164,208.52c-.17.43-.52,2-.67,2.55-.47,1.56-1,4.47-1,4.47a3.28,3.28,0,0,0,.57,2.7,4.09,4.09,0,0,0,1.41.94,6.37,6.37,0,0,0,5.57.1c3.44-1.33,10.89-5.63,13.63-7.34,2.13-1.33,2.47-2.2,2.47-2.2s.72-2.65-.83-3.88c-2.71-2.15-8.25-1-9.08.28-1.3,1.94-5,4.48-5.84,4.41-1.47-.12.07-.76-1-1.66S164.67,206.92,164,208.52Z"/><path id="_Path_68" data-name="&lt;Path&gt;" class="cls-75" d="M185.13,205.86a7.67,7.67,0,0,0-5.54-1.1,5.36,5.36,0,0,1,3,3.46,5.52,5.52,0,0,1,.07,3.6,9.67,9.67,0,0,0,2.11-.81l.31-.28h0a4.73,4.73,0,0,0,.45-.45h0a2.91,2.91,0,0,0,.24-.32h0a1,1,0,0,0,.09-.16h0v0S186.68,207.09,185.13,205.86Z"/><path id="_Path_69" data-name="&lt;Path&gt;" class="cls-76" d="M173.06,201.62c1-.25,4.13-.19,4.51,1.4a5,5,0,0,1-.76,3.47,33,33,0,0,1-2.82,3.86s-5.52,1.42-6.55,1.31c-6.81-.71-2.24-4-2.24-4A14.15,14.15,0,0,1,173.06,201.62Z"/><path id="_Path_70" data-name="&lt;Path&gt;" class="cls-77" d="M170.54,203.13c1-.26,4.44-.93,5.59.12s-.4,3.94-1,5.08-4.34,3.74-4.34,3.74-.21-2-1.25-2.11c-6.8-.71-5.61-1.42-5.61-1.42A9.39,9.39,0,0,1,170.54,203.13Z"/><path id="_Path_71" data-name="&lt;Path&gt;" class="cls-78" d="M163.1,211.92s.83-4,1.07-3.87c.78.3,2.56.15,3.8.46s1.79-5.47,3.13-5.88c1.1-.34,4.41,4.47,4.29,6.13,0,.7-3.24,4.29-5.9,5.23C164.45,215.76,163.1,211.92,163.1,211.92Z"/><path id="_Path_72" data-name="&lt;Path&gt;" class="cls-72" d="M186,208.22s-.34.87-2.47,2.19c-2.74,1.71-10.19,6-13.63,7.35a6.58,6.58,0,0,1-5.64,0,4,4,0,0,1-1.39-1,3,3,0,0,1-.52-1.26h0a3.45,3.45,0,0,0,.52,2.83,4.75,4.75,0,0,0,1.53.89,6.26,6.26,0,0,0,5.5,0c3.44-1.33,10.89-5.63,13.63-7.34,2.13-1.33,2.47-2.2,2.47-2.2a5.76,5.76,0,0,0,.11-2.12C186.09,208.09,186,208.22,186,208.22Z"/></g><g id="_Group_124" data-name="&lt;Group&gt;"><g id="_Group_125" data-name="&lt;Group&gt;"><g id="_Group_126" data-name="&lt;Group&gt;"><g id="_Group_127" data-name="&lt;Group&gt;"><g id="_Group_128" data-name="&lt;Group&gt;"><path id="_Compound_Path_5" data-name="&lt;Compound Path&gt;" class="cls-29" d="M111.36,227.56c7.39-4.26,13.42-.83,13.44,7.66s-6,18.87-13.35,23.13a11,11,0,0,1-7.41,1.71c-3.62-.67-6-4-6-9.37C98,242.21,104,231.83,111.36,227.56Z"/></g></g></g></g><g id="_Group_129" data-name="&lt;Group&gt;"><g id="_Group_130" data-name="&lt;Group&gt;"><g id="_Group_131" data-name="&lt;Group&gt;"><path id="_Path_73" data-name="&lt;Path&gt;" class="cls-29" d="M99.57,256.18s-.49.84,1.42,2.41c3.28,2.69,7.87,6,13.12,4.38,2.74-.83,15.38-31,15.38-31s-1.91-4.81-9.77-5.51-14.46,8.18-14.46,8.18Z"/></g></g></g><g id="_Group_132" data-name="&lt;Group&gt;"><g id="_Group_133" data-name="&lt;Group&gt;"><g id="_Group_134" data-name="&lt;Group&gt;"><g id="_Group_135" data-name="&lt;Group&gt;"><path id="_Compound_Path_6" data-name="&lt;Compound Path&gt;" class="cls-30" d="M117.81,230.69c7.38-4.26,13.42-.83,13.44,7.66s-6,18.87-13.36,23.13a10.94,10.94,0,0,1-7.4,1.7c-3.62-.67-6-4-6-9.36C104.43,245.33,110.42,235,117.81,230.69Z"/></g></g></g></g><g id="_Group_136" data-name="&lt;Group&gt;"><g id="_Group_137" data-name="&lt;Group&gt;"><g id="_Group_138" data-name="&lt;Group&gt;"><g id="_Group_139" data-name="&lt;Group&gt;"><g id="_Group_140" data-name="&lt;Group&gt;"><g id="_Group_141" data-name="&lt;Group&gt;"><g id="_Group_142" data-name="&lt;Group&gt;"><path id="_Compound_Path_7" data-name="&lt;Compound Path&gt;" class="cls-31" d="M114.77,257.2c-3.28,0-5.4-2.62-5.42-6.69,0-5.53,3.9-12.29,8.71-15.07a8.28,8.28,0,0,1,4.13-1.25c3.27,0,5.4,2.62,5.41,6.69,0,5.53-3.89,12.3-8.71,15.08A8.26,8.26,0,0,1,114.77,257.2Z"/></g></g></g></g></g></g><g id="_Group_143" data-name="&lt;Group&gt;"><g id="_Group_144" data-name="&lt;Group&gt;"><g id="_Group_145" data-name="&lt;Group&gt;"><g id="_Group_146" data-name="&lt;Group&gt;"><path id="_Path_74" data-name="&lt;Path&gt;" class="cls-32" d="M112,255.66a4.37,4.37,0,0,0,2.82,1,7.78,7.78,0,0,0,3.83-1.17c4.65-2.69,8.42-9.22,8.41-14.57,0-2.49-.87-4.38-2.31-5.36l-.07,0S125.36,248.32,112,255.66Z"/></g></g></g></g><g id="_Group_147" data-name="&lt;Group&gt;"><g id="_Group_148" data-name="&lt;Group&gt;"><g id="_Group_149" data-name="&lt;Group&gt;"><g id="_Group_150" data-name="&lt;Group&gt;"><g id="_Group_151" data-name="&lt;Group&gt;"><path id="_Compound_Path_8" data-name="&lt;Compound Path&gt;" class="cls-33" d="M116.34,252.67c-1.89,0-3.12-1.54-3.13-3.9a11.54,11.54,0,0,1,5.23-9.05,4.86,4.86,0,0,1,2.42-.74c1.89,0,3.12,1.54,3.13,3.91a11.57,11.57,0,0,1-5.23,9A4.86,4.86,0,0,1,116.34,252.67Z"/></g></g></g></g></g></g></g><g id="_Group_152" data-name="&lt;Group&gt;"><g id="_Group_153" data-name="&lt;Group&gt;"><path id="_Path_75" data-name="&lt;Path&gt;" class="cls-79" d="M92.13,235.38s-3.55,9.26-2.32,11.14,6.26,5.38,10.56,4.33,10-11.4,10.55-13.1-4.25-3.14-4.25-3.14Z"/></g><g id="_Group_154" data-name="&lt;Group&gt;"><path id="_Path_76" data-name="&lt;Path&gt;" class="cls-80" d="M99.44,250.41c-2.38.67,7.29-13.56,7.29-13.56l4,.33S104.67,248.94,99.44,250.41Z"/></g><g id="_Group_155" data-name="&lt;Group&gt;"><path id="_Path_77" data-name="&lt;Path&gt;" class="cls-80" d="M92.13,235.38h.11l1.41,1a49.83,49.83,0,0,0-3.56,9.05C88.5,244.61,92.13,235.38,92.13,235.38Z"/></g></g><g id="_Group_156" data-name="&lt;Group&gt;"><path id="_Path_78" data-name="&lt;Path&gt;" class="cls-81" d="M135.6,212s2.32-20.77-12.58-18.38c0,0-22.36,3.26-33,32.53a.6.6,0,0,0,.58.8l9.76-.26a3.37,3.37,0,0,0,1.61-.49c3.14-2,15.69-9.28,27.14-8.88Z"/></g><g id="_Group_157" data-name="&lt;Group&gt;"><g id="_Group_158" data-name="&lt;Group&gt;"><path id="_Path_79" data-name="&lt;Path&gt;" class="cls-79" d="M127.11,243.18c.23-.1.49-.32.71-.39a5.47,5.47,0,0,1,4.56.57,2.37,2.37,0,0,1,.3.19h0a2.13,2.13,0,0,1,.87,1.74.59.59,0,0,1,0,.13v.06a5.66,5.66,0,0,1-.37,1.35,5.75,5.75,0,0,1-3.06,3.14,1,1,0,0,1-1-.22,7.65,7.65,0,0,1-2.48-4.62C126.46,244,126.65,243.38,127.11,243.18Z"/></g><g id="_Group_159" data-name="&lt;Group&gt;"><g id="_Clip_Group_9" data-name="&lt;Clip Group&gt;" class="cls-2"><g class="cls-82"><g id="_Group_160" data-name="&lt;Group&gt;"><path id="_Path_80" data-name="&lt;Path&gt;" class="cls-79" d="M106.11,256.42a2.12,2.12,0,0,1-.11-1.35,5.61,5.61,0,0,1,3.33-4.07,1.06,1.06,0,0,1,1,.22,7.52,7.52,0,0,1,2.48,4.56c.17,1.14,0,1.89-.51,2.09a4.66,4.66,0,0,1-.71.26l-.09,0-.14,0a6.5,6.5,0,0,1-.88.14,5.73,5.73,0,0,1-1.85-.14,5.18,5.18,0,0,1-1.68-.73A2.07,2.07,0,0,1,106.11,256.42Z"/></g></g></g><g id="_Clip_Group_10" data-name="&lt;Clip Group&gt;" class="cls-2"><g class="cls-83"><g id="_Group_161" data-name="&lt;Group&gt;"><g id="_Group_162" data-name="&lt;Group&gt;"><path id="_Path_81" data-name="&lt;Path&gt;" class="cls-84" d="M127.75,242.82,109.33,251a1.06,1.06,0,0,1,1,.22,7.52,7.52,0,0,1,2.48,4.56c.17,1.14,0,1.89-.51,2.09l18.42-8.19c.46-.19.68-1,.51-2.09a7.55,7.55,0,0,0-2.48-4.56,1.06,1.06,0,0,0-1-.21Z"/></g></g></g></g><g id="_Group_163" data-name="&lt;Group&gt;"><g id="_Group_164" data-name="&lt;Group&gt;"><path id="_Path_82" data-name="&lt;Path&gt;" class="cls-85" d="M107.12,255a2.13,2.13,0,0,1,.87,1.74c0,.62-.49.84-1,.5a2.15,2.15,0,0,1-.87-1.74C106.15,254.9,106.6,254.67,107.12,255Z"/></g></g></g></g><g id="_Group_165" data-name="&lt;Group&gt;" class="cls-2"><g id="_Clip_Group_11" data-name="&lt;Clip Group&gt;" class="cls-2"><g class="cls-86"><g id="_Group_166" data-name="&lt;Group&gt;"><g id="_Group_167" data-name="&lt;Group&gt;"><path id="_Path_83" data-name="&lt;Path&gt;" class="cls-41" d="M150.21,228,146.15,226c-1.22-.62-2.84-.42-4.58.72l4.06,2.08c1.74-1.14,3.37-1.34,4.58-.72Z"/></g></g></g></g><g id="_Clip_Group_12" data-name="&lt;Clip Group&gt;" class="cls-2"><g class="cls-87"><g id="_Group_168" data-name="&lt;Group&gt;" class="cls-2"><g id="_Group_169" data-name="&lt;Group&gt;"><path id="_Path_84" data-name="&lt;Path&gt;" class="cls-41" d="M145.63,228.76l-4.06-2.08a11.53,11.53,0,0,0-2.69,2.55l4.07,2.08a11.48,11.48,0,0,1,2.68-2.55Z"/></g><g id="_Group_170" data-name="&lt;Group&gt;"><path id="_Path_85" data-name="&lt;Path&gt;" class="cls-41" d="M143,231.31l-4.07-2.08a15.8,15.8,0,0,0-2.27,4.08l4.07,2.08a15.23,15.23,0,0,1,2.27-4.08Z"/></g><g id="_Group_171" data-name="&lt;Group&gt;"><path id="_Path_86" data-name="&lt;Path&gt;" class="cls-41" d="M140.68,235.39l-4.07-2.08a12.27,12.27,0,0,0-.84,4.92c.13,2.05.93,3.44,2.13,4.05l4.07,2.08c-1.2-.61-2-2-2.13-4.05a12.1,12.1,0,0,1,.84-4.92Z"/></g></g></g></g><g id="_Group_172" data-name="&lt;Group&gt;"><g id="_Group_173" data-name="&lt;Group&gt;"><path id="_Path_87" data-name="&lt;Path&gt;" class="cls-42" d="M145.63,228.76a14.25,14.25,0,0,0-5.79,11.55c.25,4.12,3.26,5.59,6.71,3.32a14.2,14.2,0,0,0,5.79-11.55C152.09,228,149.09,226.49,145.63,228.76Z"/></g></g><g id="_Group_174" data-name="&lt;Group&gt;"><g id="_Group_175" data-name="&lt;Group&gt;"><path id="_Path_88" data-name="&lt;Path&gt;" class="cls-28" d="M145.88,230.5a11.13,11.13,0,0,0-4.53,9c.2,3.22,2.55,4.37,5.25,2.6a11.13,11.13,0,0,0,4.53-9C150.93,229.88,148.58,228.72,145.88,230.5Z"/></g></g></g><g id="_Group_176" data-name="&lt;Group&gt;"><path id="_Path_89" data-name="&lt;Path&gt;" class="cls-88" d="M157.5,192.71s-2.06,8.44-2.41,10.6c-.67,4.12.67,11,1.08,12.67.08.35,3.08,3.39,2.31,6.48l-6.56,1.7L115,233.27l-21.72-8.88s5.94-17.22,17.37-23.71c0,0,2.62-1.61,2.93-5.86S157.5,192.71,157.5,192.71Z"/></g><g id="_Group_177" data-name="&lt;Group&gt;"><g id="_Group_178" data-name="&lt;Group&gt;"><path id="_Path_90" data-name="&lt;Path&gt;" class="cls-89" d="M112,237.52l-1.58,4.8a1.23,1.23,0,0,0,.43,1.35l5.38,3.91a1.61,1.61,0,0,0,1.51.21c3.11-1.24,14.61-6,20.51-10.89,0,0,3.56-2.7.54-5.48,0,0-2.77-1.78-9.65-2.32S112,237.52,112,237.52Z"/></g><g id="_Group_179" data-name="&lt;Group&gt;"><path id="_Path_91" data-name="&lt;Path&gt;" class="cls-80" d="M117,247.71c1.13-4.21,5.92-17.61,21.78-16.27,3,2.77-.57,5.46-.57,5.46-6.65,5.53-20.28,10.69-21.13,11C117.1,247.93,117,247.72,117,247.71Z"/></g></g><g id="_Group_180" data-name="&lt;Group&gt;"><g id="_Group_181" data-name="&lt;Group&gt;"><path id="_Path_92" data-name="&lt;Path&gt;" class="cls-90" d="M87,221.42c2.29-1.38,4-1.28,5.09-.88a2.39,2.39,0,0,1,1.52,2.65c-.2,1.21-1,2.85-3.5,4.21Z"/></g><g id="_Group_182" data-name="&lt;Group&gt;"><path id="_Path_93" data-name="&lt;Path&gt;" class="cls-91" d="M89.85,227.62a.22.22,0,0,0,.18-.19c.14-.84.55-4.72-3.08-6.07a.38.38,0,0,0-.34.06A4.29,4.29,0,0,0,85,225.9S85.62,228.19,89.85,227.62Z"/></g></g><g id="_Group_183" data-name="&lt;Group&gt;"><g id="_Group_184" data-name="&lt;Group&gt;"><path id="_Path_94" data-name="&lt;Path&gt;" class="cls-35" d="M99.65,216.8s2.95-3.61,6.43-2.11c3.89,1.67,3.53,6.5,3.13,9a3.18,3.18,0,0,0,.52,2.38l3,4.18-2.88,6.85a19.49,19.49,0,0,0-5.1-.15c-1.69.36-2.94,3.08-6.74,1.64a30.87,30.87,0,0,1-8.34-5.15c-1.09-1.18-.85-3.23.46-3.7a7.35,7.35,0,0,0,4.12-2.93C95.12,225.7,99.65,216.8,99.65,216.8Z"/></g><g id="_Group_185" data-name="&lt;Group&gt;"><path id="_Path_95" data-name="&lt;Path&gt;" class="cls-80" d="M90,231a.14.14,0,0,1,.2-.12c1.31.67,8.94,4.55,9.69,5.15s.06,2.14.06,2.22a2.37,2.37,0,0,0-.39-1.7c-1-1.09-8.06-4.58-9.36-5.22A.34.34,0,0,1,90,231Z"/></g><g id="_Group_186" data-name="&lt;Group&gt;"><path id="_Path_96" data-name="&lt;Path&gt;" class="cls-80" d="M100.26,235.86s5.57-4.94,7.07-6.23c.45-.4.94.24-.12,1.21l-6.61,5.88S100.73,236,100.26,235.86Z"/></g></g><g id="_Group_187" data-name="&lt;Group&gt;"><g id="_Group_188" data-name="&lt;Group&gt;"><path id="_Path_97" data-name="&lt;Path&gt;" class="cls-80" d="M155.47,222.69s2.32-20.77-12.58-18.37c0,0-22.36,3.25-33,32.52a.6.6,0,0,0,.57.81l9.76-.26a3.28,3.28,0,0,0,1.61-.5c3.13-1.95,15.69-9.27,27.14-8.87Z"/></g><g id="_Group_189" data-name="&lt;Group&gt;"><path id="_Path_98" data-name="&lt;Path&gt;" class="cls-36" d="M145.87,208.64c3.68-.59,6.31.23,8.18,1.8,2.19,5.39,1.42,12.25,1.42,12.25L149,228c-11.45-.4-24,6.92-27.14,8.87a3.28,3.28,0,0,1-1.61.5l-5.92.16C125.39,211.63,145.87,208.64,145.87,208.64Z"/></g></g><g id="_Group_190" data-name="&lt;Group&gt;"><g id="_Group_191" data-name="&lt;Group&gt;"><path id="_Path_99" data-name="&lt;Path&gt;" class="cls-92" d="M111.67,233.05c2.29-1.38,4-1.28,5.09-.87a2.38,2.38,0,0,1,1.52,2.64c-.2,1.21-1,2.86-3.5,4.21Z"/></g><g id="_Group_192" data-name="&lt;Group&gt;"><path id="_Path_100" data-name="&lt;Path&gt;" class="cls-93" d="M114.56,239.25a.22.22,0,0,0,.18-.18c.14-.85.55-4.72-3.08-6.07a.35.35,0,0,0-.34.05,4.3,4.3,0,0,0-1.6,4.48S110.33,239.82,114.56,239.25Z"/></g></g><g id="_Group_193" data-name="&lt;Group&gt;"><g id="_Group_194" data-name="&lt;Group&gt;"><path id="_Path_101" data-name="&lt;Path&gt;" class="cls-94" d="M102.53,231.54l4.16-5.38a6.07,6.07,0,0,0,1.19-3.12c.67-7.32-4-7.58-6.07-7.12a17.41,17.41,0,0,0-5,2.53Z"/></g><g id="_Group_195" data-name="&lt;Group&gt;"><path id="_Path_102" data-name="&lt;Path&gt;" class="cls-95" d="M102.78,231.05a.92.92,0,0,1-1,.7,13.26,13.26,0,0,1-5.12-1.86,7.55,7.55,0,0,1-3-2.28,1.53,1.53,0,0,1-.19-1.54l3.08-7.26a1.15,1.15,0,0,1,1.26-.61,8.65,8.65,0,0,1,2.77.89,9.18,9.18,0,0,1,2.87,1.93,1.69,1.69,0,0,1,.49,1.5Z"/></g></g><g id="_Group_196" data-name="&lt;Group&gt;"><path id="_Path_103" data-name="&lt;Path&gt;" class="cls-28" d="M103.79,196.76q.27-1.29,2.4-1.32a36.8,36.8,0,0,1,7.14,1.18,3.9,3.9,0,0,1-.85,2c-2.47-.53-5.1-.92-5.8-1,2.12,1.63,7.91,4.67,13.09,7.05,3.91,1.43,5.47,1,6,.6a1.16,1.16,0,0,0,.54-.88v-.06l.21-2.37,2.15.64-.2,1.85A3.3,3.3,0,0,1,127.1,207a4.94,4.94,0,0,1-2.92.79,15.49,15.49,0,0,1-5.19-1.12l-.08,0s-3.8-1.74-7.46-3.67C104,199,103.56,197.83,103.79,196.76Z"/></g><g id="_Group_197" data-name="&lt;Group&gt;"><path id="_Path_104" data-name="&lt;Path&gt;" class="cls-30" d="M113.59,196.43a2.47,2.47,0,0,1-.83-2.74l.94-3a6.87,6.87,0,0,1,5.68-4.69c4.93-.66,12.94-2,18.34-4.2,8.25-3.4,17.52-5.25,20.15,4.4,0,0,3.35,14.48-16.14,16.83,0,0-8,.89-13.55-.46A36.87,36.87,0,0,1,113.59,196.43Z"/></g><g id="_Group_198" data-name="&lt;Group&gt;"><path id="_Path_105" data-name="&lt;Path&gt;" class="cls-96" d="M119.38,186c4.93-.66,12.94-2,18.34-4.2,6.5-2.68,13.63-4.39,17.64-.28-3.61.72-7.85,2.83-12,8.18-3.6,4.63-7.31,5.57-11.84,4.89-4.17-.63-12.5-6.34-14.56-7.79A7.1,7.1,0,0,1,119.38,186Z"/></g><path id="_Path_106" data-name="&lt;Path&gt;" class="cls-97" d="M144.72,119.44a21.19,21.19,0,0,1-3.49,8l8.6,5.73s4.1-8,3.8-10.74C153.53,121.48,145.17,116.93,144.72,119.44Z"/><g id="_Group_199" data-name="&lt;Group&gt;"><path id="_Path_107" data-name="&lt;Path&gt;" class="cls-98" d="M156.51,104.61l6.24.89-2.95,16c-.75,4.61-2.78,5.12-4.19,5-2.92-.27-6-2.25-7.53-3.39-3-2.19-2.34-7.61-2.32-8l.09-10.91Z"/><path id="_Path_108" data-name="&lt;Path&gt;" class="cls-99" d="M161.91,102.32c3.41,4.37.76,5.25.58,5.37-1.66,1.07-3,5.58-3.42,7.36l-.39,1.68c0,.63-1,1.45-1.31.5s.42-1.76,0-2.32-1.67-.87-3.21,2.47L152.83,120c-1.21,2.36-4,2.8-6.13,2.26,0,0-1.89-.4-2.34-1.25-.29-.55-2.05-5.45-2.5-7-1.53-5.32-.34-9.84,2.81-12.62a8.84,8.84,0,0,1,4.64-1.82c3.05-.23,1.88-1.54,1.88-1.54,1.05-.12,2.12,1.25,2.65,1.58,1.8,1.09.71-1.15.67-1.31,0,0,.76-.17,1.87,1,.45.46.93,1.46,1.64,1.74,1.43.58,1-1,1.09-1A11.87,11.87,0,0,1,161.91,102.32Z"/><g id="_Group_200" data-name="&lt;Group&gt;"><path id="_Path_109" data-name="&lt;Path&gt;" class="cls-100" d="M157.33,114.71a2.36,2.36,0,0,0-1.86,1.63,2.67,2.67,0,0,0,.15,2.24,2.41,2.41,0,0,0,1.09.93s.13-2.58.18-3.06A15.48,15.48,0,0,1,157.33,114.71Z"/><path id="_Path_110" data-name="&lt;Path&gt;" class="cls-101" d="M158,114.18s.78.21.22,1.07a4.6,4.6,0,0,0-.87,2.29,21.69,21.69,0,0,0,.08,2.18s-.55.94-1-.33a6.81,6.81,0,0,1-.18-2.61C156.25,116.3,157.18,113.89,158,114.18Z"/></g></g><path id="_Path_111" data-name="&lt;Path&gt;" class="cls-102" d="M182.53,163.85s3.71-1.9,4.72-2.64a5.42,5.42,0,0,1,4.94-.76c1,.29,3.71,4.13,4.06,5.11.74,2-.95,1.56-1,1.46-1.15-1.36-1.64-.57-2.88,0-.75.32-.76.43-3.06,1.37C185.9,169.75,182.35,166.7,182.53,163.85Z"/><path id="_Path_112" data-name="&lt;Path&gt;" class="cls-103" d="M159.88,141.69,164,157.07a2.88,2.88,0,0,0,1.25,1.29c6.56,3.1,19.13,5.36,19.13,5.36s1.45,3.34.77,4.13-20.16.94-26.26-3.34c-2.09-1.46-6.74-15.12-7.09-20.32-.16-2.51,1.05-6.15,3.51-6.62C157.56,137.13,159.15,138.25,159.88,141.69Z"/><path id="_Path_113" data-name="&lt;Path&gt;" class="cls-104" d="M124.8,175.45a17.29,17.29,0,0,0,.59,5.94,9.13,9.13,0,0,0,4.79,5.42c2.19,1.18,4.55,2.4,4.55,2.4s-2-9-3.19-10.11S124.8,175.45,124.8,175.45Z"/><path id="_Path_114" data-name="&lt;Path&gt;" class="cls-105" d="M138.21,171.49c11.61-.39,22.4-.88,29.59-1.35,6.36-.42,8,.13,10,4,1.35,2.61,0,10.35,0,10.35l-2.73,24.14s-3.68,3.87-8,3c-4.11-.78-3.64-2.91-3.64-2.91s1.5-14.79,2.94-23.89c.32-2-1.77-1.35-1.77-1.35l-20.21,6.35s-15,3.55-14.59-10C129.93,174.62,134.62,171.62,138.21,171.49Z"/><path id="_Path_115" data-name="&lt;Path&gt;" class="cls-106" d="M134.46,133.15c-2.68,4.83-3.43,15.86-6.05,29.9A51.44,51.44,0,0,1,123,177.64c.11.31,2.71,1.57,4.9,2.4,0,0,7.4,2.81,13.44,2.19a18.84,18.84,0,0,0,8.13-2.5c3.75-2.3,4.38-5.84,4.8-8.45l5.15-32c.41-3-6.82-8.69-9.84-10.72a21.41,21.41,0,0,0-7.19-3A17.06,17.06,0,0,0,134.46,133.15Z"/><path id="_Path_116" data-name="&lt;Path&gt;" class="cls-107" d="M164.07,155.54a23.13,23.13,0,0,1-6.94,2.34c-4.79.6-6.9-.59-6.9-.59s-1.68-13.17-.71-16.24c1.35-4.28,4.93-5.36,6.64-5s4.23,1.64,5.23,7.79A89,89,0,0,0,164.07,155.54Z"/><path id="_Path_117" data-name="&lt;Path&gt;" class="cls-108" d="M164.22,109.25a10.54,10.54,0,0,1-.07,2c-1,5.11-5.13,3.11-6.86,3.51-4.16,1-5.2,7.87-13.33,5.33-2.66-.83-5.67-6.53-5.67-10.88a13,13,0,0,1,25.93,0Z"/><g id="_Group_201" data-name="&lt;Group&gt;" class="cls-109"><path id="_Path_118" data-name="&lt;Path&gt;" class="cls-14" d="M141.09,106.83a.88.88,0,0,1-1.14.61,1,1,0,0,1-.62-1.21c2.54-7.87,10.29-9.5,10.64-9.58l0,.1C149.94,96.78,143.6,98.53,141.09,106.83Z"/></g></g><g id="_Group_202" data-name="&lt;Group&gt;"><g id="_Group_203" data-name="&lt;Group&gt;"><g id="_Group_204" data-name="&lt;Group&gt;"><polygon id="_Path_119" data-name="&lt;Path&gt;" class="cls-110" points="230.43 163.81 230.43 162.61 233.06 161.09 233.06 162.29 230.43 163.81"/><polygon id="_Path_120" data-name="&lt;Path&gt;" class="cls-111" points="230.43 163.81 230.43 162.61 223.9 158.84 223.9 160.04 230.43 163.81"/><polygon id="_Path_121" data-name="&lt;Path&gt;" class="cls-112" points="230.43 162.61 223.9 158.84 226.53 157.32 233.06 161.09 230.43 162.61"/><polygon id="_Path_122" data-name="&lt;Path&gt;" class="cls-111" points="229.14 161.11 226.36 159.56 226.36 131.66 229.14 133.21 229.14 161.11"/><polygon id="_Path_123" data-name="&lt;Path&gt;" class="cls-110" points="229.14 161.11 230.55 160.28 230.55 132.36 229.14 133.19 229.14 161.11"/></g><polygon id="_Path_124" data-name="&lt;Path&gt;" class="cls-113" points="229.14 134.98 226.36 133.42 226.36 131.66 229.14 133.21 229.14 134.98"/><polygon id="_Path_125" data-name="&lt;Path&gt;" class="cls-113" points="229.14 134.98 230.55 134.13 230.55 132.36 229.14 133.21 229.14 134.98"/></g><g id="_Group_205" data-name="&lt;Group&gt;"><g id="_Group_206" data-name="&lt;Group&gt;"><polygon id="_Path_126" data-name="&lt;Path&gt;" class="cls-110" points="284.3 194.85 284.3 193.66 286.93 192.14 286.93 193.34 284.3 194.85"/><polygon id="_Path_127" data-name="&lt;Path&gt;" class="cls-111" points="284.3 194.85 284.3 193.66 277.77 189.89 277.77 191.09 284.3 194.85"/><polygon id="_Path_128" data-name="&lt;Path&gt;" class="cls-112" points="284.3 193.66 277.77 189.89 280.4 188.37 286.93 192.14 284.3 193.66"/><polygon id="_Path_129" data-name="&lt;Path&gt;" class="cls-111" points="283.01 192.16 280.23 190.6 280.23 162.7 283.01 164.25 283.01 192.16"/><polygon id="_Path_130" data-name="&lt;Path&gt;" class="cls-110" points="283.01 192.16 284.42 191.32 284.42 163.41 283.01 164.24 283.01 192.16"/></g><polygon id="_Path_131" data-name="&lt;Path&gt;" class="cls-113" points="283.01 166.02 280.23 164.47 280.23 162.7 283.01 164.25 283.01 166.02"/><polygon id="_Path_132" data-name="&lt;Path&gt;" class="cls-113" points="283.01 166.02 284.42 165.17 284.42 163.41 283.01 164.25 283.01 166.02"/></g><g id="_Group_207" data-name="&lt;Group&gt;"><polygon id="_Path_133" data-name="&lt;Path&gt;" class="cls-114" points="285.17 165.63 225.63 131.26 225.63 102.76 285.17 137.14 285.17 165.63"/></g><polygon id="_Path_134" data-name="&lt;Path&gt;" class="cls-115" points="287.35 135.88 227.81 101.51 225.63 102.76 285.17 137.14 287.35 135.88"/><polygon id="_Path_135" data-name="&lt;Path&gt;" class="cls-116" points="287.35 135.88 287.35 164.37 285.17 165.63 285.17 137.14 287.35 135.88"/></g><g class="cls-2"><polyline points="240.66 118.42 237.03 116.32 232.29 124.27 232.28 127.86 239 131.74 238.99 134.46 242.41 136.43 242.42 133.71 243.89 134.56 243.9 130.98 242.43 130.13 242.44 126.48 239.02 124.51 239.01 128.15 235.92 126.37 240.66 118.42"/><path d="M254.56,140c-1.77-1-2.63-3.29-2.63-6.56s.89-4.55,2.66-3.53,2.63,3.29,2.62,6.57-.87,4.54-2.65,3.52m0-13.87c-3.82-2.2-6,.11-6,5.36s2.17,10.1,6,12.31,6-.13,6-5.37-2.17-10.09-6-12.3"/><polyline points="273.81 137.56 270.18 135.46 265.44 143.41 265.43 147 272.14 150.87 272.13 153.59 275.56 155.57 275.57 152.85 277.04 153.7 277.05 150.12 275.58 149.27 275.59 145.62 272.16 143.64 272.15 147.29 269.07 145.51 273.81 137.56"/></g><polygon class="cls-117" points="228.78 103.66 229.47 103.39 229.47 93.21 228.78 93.48 228.78 103.66"/><polygon class="cls-118" points="228.78 103.66 228.08 103.39 228.08 93.21 228.78 93.48 228.78 103.66"/><polygon class="cls-119" points="228.78 93.48 228.08 93.21 228.78 92.94 229.47 93.21 228.78 93.48"/><polygon class="cls-117" points="284.14 135.35 284.84 135.07 284.84 124.9 284.14 125.17 284.14 135.35"/><polygon class="cls-118" points="284.14 135.35 283.45 135.07 283.45 124.9 284.14 125.17 284.14 135.35"/><polygon class="cls-119" points="284.14 125.17 283.45 124.9 284.14 124.62 284.84 124.9 284.14 125.17"/><path class="cls-120" d="M282.2,120.26l1.43-.45h0a1.74,1.74,0,0,1,1.17.12,4.81,4.81,0,0,1,2.63,4.26,2.33,2.33,0,0,1-1.25,2.23h0a1.32,1.32,0,0,1-.3.09l-1.21.38-.27-.72a4.94,4.94,0,0,1-2.24-4.06,2.64,2.64,0,0,1,.24-1.19Z"/><path class="cls-121" d="M280.81,122.53a4.86,4.86,0,0,0,2.64,4.27c1.5.66,2.69-.74,2.64-2.19a4.87,4.87,0,0,0-2.64-4.27C282,119.69,280.76,121.08,280.81,122.53Z"/><path class="cls-122" d="M281.34,122.74a3.89,3.89,0,0,0,2.11,3.41c1.2.53,2.15-.59,2.11-1.75a3.9,3.9,0,0,0-2.11-3.41C282.25,120.47,281.3,121.58,281.34,122.74Z"/><path class="cls-123" d="M281.79,121.39a2.11,2.11,0,0,0-.12.75,3.89,3.89,0,0,0,2.11,3.41,1.37,1.37,0,0,0,1.67-.39,1.46,1.46,0,0,1-2,1,3.89,3.89,0,0,1-2.11-3.41A2,2,0,0,1,281.79,121.39Z"/><path class="cls-120" d="M226.83,88.57l1.43-.44h0a1.74,1.74,0,0,1,1.17.11,4.85,4.85,0,0,1,2.64,4.27,2.34,2.34,0,0,1-1.26,2.22h0a1.32,1.32,0,0,1-.3.1l-1.21.38-.27-.72a5,5,0,0,1-2.24-4.06,2.69,2.69,0,0,1,.25-1.2Z"/><path class="cls-121" d="M225.44,90.85a4.84,4.84,0,0,0,2.64,4.26c1.51.66,2.69-.73,2.64-2.18a4.85,4.85,0,0,0-2.64-4.27C226.58,88,225.4,89.4,225.44,90.85Z"/><path class="cls-122" d="M226,91.05a3.9,3.9,0,0,0,2.11,3.42c1.2.52,2.15-.59,2.11-1.75a3.84,3.84,0,0,0-2.11-3.41C226.88,88.78,225.93,89.9,226,91.05Z"/><path class="cls-123" d="M226.42,89.7a2.42,2.42,0,0,0-.12.76,3.9,3.9,0,0,0,2.11,3.41,1.37,1.37,0,0,0,1.67-.4,1.47,1.47,0,0,1-2,1A3.9,3.9,0,0,1,226,91.05,2.11,2.11,0,0,1,226.42,89.7Z"/></g></g></g></g></svg>