<?xml version="1.0" encoding="UTF-8"?>
<svg width="248px" height="180px" viewBox="0 0 248 180" version="1.1" xmlns="http://www.w3.org/2000/svg" xmlns:xlink="http://www.w3.org/1999/xlink">
    <!-- Generator: Sketch 55.1 (78136) - https://sketchapp.com -->
    <title>failed</title>
    <desc>Created with Sketch.</desc>
    <defs>
        <polygon id="path-1" points="0 0 230.993164 0 230.993164 179.999814 0 179.999814"></polygon>
        <path d="M58.783403,1.00762887 L8.17197015,30.1982474 C1.32328358,33.6330928 0.121223881,39.2381443 0.121223881,43.5961856 L0.121223881,43.5961856 L0.121223881,119.679588 C1.33623881,120.815258 2.5938209,121.880412 3.92265672,122.875052 L3.92265672,122.875052 C4.81749254,123.54866 5.73916418,124.206495 6.69044776,124.865258 L6.69044776,124.865258 C7.16516418,125.202062 7.65468657,125.537938 8.15716418,125.873814 L8.15716418,125.873814 C8.89838806,126.378557 9.65441791,126.868454 10.4215522,127.360206 L10.4215522,127.360206 C19.7446866,133.315979 30.7862388,138.473814 41.842597,142.019072 L41.842597,142.019072 C41.926806,142.046907 42.0239701,142.074742 42.1081791,142.103505 L42.1081791,142.103505 C43.7849552,142.636082 45.5052239,143.182577 47.2652836,143.74299 L47.2652836,143.74299 C48.9568657,144.289485 50.6900896,144.835979 52.437194,145.368557 L52.437194,145.368557 C56.5328955,146.630412 60.767403,147.862577 65.0861194,148.92866 L65.0861194,148.92866 C66.1345672,149.180103 67.1839403,149.432474 68.2453433,149.670928 L68.2453433,149.670928 C68.9032836,149.811031 69.5593731,149.951134 70.2163881,150.091237 L70.2163881,150.091237 C70.5791343,150.160825 70.9437313,150.245258 71.307403,150.315773 L71.307403,150.315773 L71.307403,8.88309278 C71.307403,8.65762887 71.292597,8.44793814 71.2787164,8.23917526 L71.2787164,8.23917526 C71.2648358,8.0842268 71.2509552,7.92927835 71.223194,7.78917526 L71.223194,7.78917526 C71.2093134,7.67783505 71.1945075,7.57948454 71.1667463,7.48020619 L71.1667463,7.48020619 C71.1102985,7.18793814 71.0270149,6.92072165 70.9289254,6.68226804 L70.9289254,6.68226804 C70.8872836,6.55608247 70.8317612,6.44474227 70.7762388,6.33247423 L70.7762388,6.33247423 C70.6633433,6.10886598 70.5236119,5.89824742 70.3838806,5.71546392 L70.3838806,5.71546392 C70.3283582,5.63195876 70.2589552,5.56051546 70.2025075,5.49185567 L70.2025075,5.49185567 C70.1747463,5.47608247 70.1608657,5.44917526 70.1460597,5.44917526 L70.1460597,5.44917526 L70.0627761,5.3656701 C70.0211343,5.32391753 69.9785672,5.29515464 69.9221194,5.25340206 L69.9221194,5.25340206 C69.9221194,5.23948454 69.9091642,5.23948454 69.9091642,5.23948454 L69.9091642,5.23948454 L69.8952836,5.22556701 C69.8527164,5.19773196 69.8110746,5.15505155 69.7694328,5.12628866 L69.7694328,5.12628866 L69.8110746,5.11329897 L63.3399403,0.797010309 L63.3251343,0.797010309 C62.8041493,0.406391753 62.1656418,0.200412371 61.4466269,0.200412371 L61.4466269,0.200412371 C60.6415522,0.200412371 59.7356119,0.459278351 58.783403,1.00762887" id="path-3"></path>
        <linearGradient x1="49.9989854%" y1="80.8550136%" x2="49.9989854%" y2="-16.2417227%" id="linearGradient-5">
            <stop stop-color="#937272" offset="0%"></stop>
            <stop stop-color="#CFA0A0" offset="100%"></stop>
        </linearGradient>
        <path d="M0.515432836,22.0852577 C1.09841791,26.3727835 12.1464478,39.7280412 12.1464478,39.7280412 L12.1464478,39.7280412 C12.1464478,39.7280412 19.8964478,38.2815464 20.0556119,32.2830928 L20.0556119,32.2830928 C20.2147761,26.285567 26.8867164,0.456494845 26.8867164,0.456494845 L26.8867164,0.456494845 C26.8867164,0.456494845 -0.0675522388,17.7986598 0.515432836,22.0852577" id="path-6"></path>
        <linearGradient x1="72.3218326%" y1="51.7757069%" x2="15.0684691%" y2="43.5508057%" id="linearGradient-8">
            <stop stop-color="#E96767" offset="0%"></stop>
            <stop stop-color="#FBAEAE" offset="100%"></stop>
        </linearGradient>
        <path d="M34.077791,0.421237113 C33.9945075,0.53257732 33.8964179,0.645773196 33.8131343,0.744123711 L33.8131343,0.744123711 C23.4267463,13.2160825 15.4463284,8.87195876 14.1322985,8.00350515 L14.1322985,8.00350515 C14.0064478,7.93298969 13.9379701,7.87731959 13.9379701,7.87731959 L13.9379701,7.87731959 L13.9222388,7.89123711 C9.52023881,13.4823711 6.55719403,18.5696907 4.58707463,23.0836082 L4.58707463,23.0836082 C-0.500626866,34.728866 0.952208955,42.5069072 0.966089552,45.337732 L0.966089552,45.337732 L0.966089552,45.5474227 C0.952208955,45.8703093 0.952208955,46.2340206 0.952208955,46.6404124 L0.952208955,46.6404124 C1.00865672,50.8165979 1.736,58.8479381 1.736,58.8479381 L1.736,58.8479381 C1.90349254,64.788866 1.94513433,82.4752577 1.84704478,93.6723711 L1.84704478,93.6723711 C5.98438806,91.4873196 10.0384478,88.9506186 14.0212537,86.6236082 L14.0212537,86.6236082 C17.3609254,84.6751546 20.660806,82.8668041 23.9449552,81.5502062 L23.9449552,81.5502062 C24.8675522,81.1716495 25.7753433,80.836701 26.6979403,80.5416495 L26.6979403,80.5416495 C38.1318507,76.9110309 48.6986866,73.7730928 57.9376119,68.3489691 L57.9376119,68.3489691 C58.3142388,68.1253608 58.6927164,67.9008247 59.0554627,67.6623711 L59.0554627,67.6623711 C59.6699104,67.2838144 60.2852836,66.9061856 60.9015821,66.498866 L60.9015821,66.498866 L61.4031343,66.1629897 C61.0542687,65.1265979 60.7044776,64.1171134 60.3546866,63.1354639 L60.3546866,63.1354639 C59.3210448,60.2350515 53.8280299,58.9314433 53.4921194,58.8201031 L53.4921194,58.8201031 C53.520806,58.8201031 53.8141493,58.8618557 54.4720896,58.9731959 L54.4720896,58.9731959 C61.4457015,60.108866 65.176806,57.0952577 67.1617313,53.7875258 L67.1617313,53.7875258 C69.1753433,50.4528866 69.3983582,46.7953608 69.3983582,46.7953608 L69.3983582,46.7953608 C67.0081194,27.8610309 60.9145373,16.65 54.4295224,10.006701 L54.4295224,10.006701 C52.9054328,8.43773196 51.3545075,7.12020619 49.8304179,6.04113402 L49.8304179,6.04113402 C46.113194,3.3643299 42.5477313,1.96329897 39.7401493,1.22103093 L39.7401493,1.22103093 C36.9501493,0.484329897 34.9245075,0.418453608 34.2887761,0.418453608 L34.2887761,0.418453608 C34.1508955,0.418453608 34.077791,0.421237113 34.077791,0.421237113" id="path-9"></path>
        <linearGradient x1="0.000291338862%" y1="50.0002564%" x2="100.000086%" y2="50.0002564%" id="linearGradient-11">
            <stop stop-color="#E96767" offset="0%"></stop>
            <stop stop-color="#FBAEAE" offset="100%"></stop>
        </linearGradient>
        <path d="M0.719014925,19.0150515 C9.23059701,24.4391753 0.468238806,47.9829897 0.468238806,47.9829897 L0.468238806,47.9829897 C1.37695522,48.8236082 2.2560597,49.6363918 3.12313433,50.4352577 L3.12313433,50.4352577 C7.34376119,54.3173196 11.2858507,57.6946392 16.6955821,60.5820619 L16.6955821,60.5820619 C16.918597,60.7082474 17.1564179,60.834433 17.4081194,60.9318557 L17.4081194,60.9318557 L17.910597,60.5959794 C18.6518209,60.0912371 19.3782388,59.5725773 20.1065075,59.0270103 L20.1065075,59.0270103 C20.5386567,58.7041237 20.9717313,58.3682474 21.3909254,58.0165979 L21.3909254,58.0165979 C21.8656418,57.6668041 22.3283284,57.2891753 22.7891642,56.896701 L22.7891642,56.896701 L22.7891642,56.8809278 C23.6423582,54.4435052 24.2003582,51.654433 24.591791,50.3656701 L24.591791,50.3656701 C25.5569552,47.1702062 26.9542687,43.5535052 26.9820299,40.1771134 L26.9820299,40.1771134 C27.1356418,22.1826804 19.9936119,12.6241237 10.9369851,4.43969072 L10.9369851,4.43969072 C9.44065672,3.09618557 7.90361194,1.77773196 6.33880597,0.474123711 L6.33880597,0.474123711 L0.719014925,19.0150515 Z" id="path-12"></path>
        <linearGradient x1="51.6368054%" y1="77.2474639%" x2="38.9948442%" y2="-17.3429603%" id="linearGradient-14">
            <stop stop-color="#E96767" offset="0%"></stop>
            <stop stop-color="#FBAEAE" offset="100%"></stop>
        </linearGradient>
        <polyline id="path-15" points="0.289641791 46.2358763 0.20358209 15.755567 26.66 0.439793814 26.7460597 30.9201031"></polyline>
        <polyline id="path-17" points="0.289641791 46.2358763 0.20358209 15.755567 26.66 0.439793814 26.7460597 30.9201031"></polyline>
        <polyline id="path-19" points="0.289641791 46.2358763 0.20358209 15.755567 26.66 0.439793814 26.7460597 30.9201031"></polyline>
        <polygon id="path-21" points="0.178597015 22.4907216 0.154537313 13.7987629 22.776209 0.703298969 22.801194 9.39525773"></polygon>
        <polyline id="path-23" points="0.178597015 22.4907216 0.154537313 13.7987629 22.776209 0.703298969 22.801194 9.39525773"></polyline>
        <polyline id="path-25" points="0.178597015 22.4907216 0.154537313 13.7987629 22.776209 0.703298969 22.801194 9.39525773"></polyline>
        <polyline id="path-27" points="0.178597015 22.4907216 0.154537313 13.7987629 22.776209 0.703298969 22.801194 9.39525773"></polyline>
        <polyline id="path-29" points="0.178597015 22.4907216 0.154537313 13.7987629 22.776209 0.703298969 22.801194 9.39525773"></polyline>
    </defs>
    <g id="Page-1" stroke="none" stroke-width="1" fill="none" fill-rule="evenodd">
        <g id="Payment-failure" transform="translate(-57.000000, -120.000000)">
            <g id="failed" transform="translate(57.000000, 120.000000)">
                <g id="Group-3">
                    <mask id="mask-2" fill="white">
                        <use xlink:href="#path-1"></use>
                    </mask>
                    <g id="Clip-2"></g>
                    <path d="M227.822424,85.5712577 C227.822424,97.5820825 224.789051,107.251979 218.919409,117.665072 C213.579081,127.151258 207.568782,135.784763 198.610245,143.17033 L198.610245,143.185175 C198.148484,143.577649 197.687648,143.955278 197.212006,144.306 C196.793737,144.656722 196.359737,144.992598 195.925737,145.314557 C195.199319,145.861052 194.472901,146.379711 193.731678,146.884454 L193.2292,147.22033 C192.613827,147.627649 191.998454,148.006206 191.384006,148.383835 C191.020334,148.622289 190.642782,148.846825 190.266155,149.070433 C181.02723,154.494557 170.460394,157.633423 159.026484,161.263113 C158.103887,161.557237 157.196096,161.894041 156.273499,162.27167 C152.989349,163.589196 149.689469,165.396619 146.349797,167.346 C142.366066,169.672082 138.312931,172.208784 134.175588,174.393835 C132.778275,175.124041 131.380036,175.823629 129.968842,176.454557 C125.272573,178.557031 120.421767,179.999814 115.361827,179.999814 C99.3713791,179.999814 82.8099761,174.339093 68.9441851,169.938371 C55.0932,165.537649 41.2412896,158.57332 30.7586627,150.709918 C20.288991,142.834454 13.4828716,130.432082 7.61230448,120.01899 C1.75561791,109.620742 6.99693134,97.5820825 6.99693134,85.5712577 C6.99693134,73.5622887 -4.15659104,58.187134 1.70009552,47.7888866 C7.57066269,37.3767216 26.1734388,36.199299 36.6421851,28.3238351 C47.1257373,20.4474433 56.6024836,10.3711546 70.4534687,5.97043299 C84.3053791,1.56971134 99.3713791,-0.00018556701 115.361827,-0.00018556701 C131.351349,-0.00018556701 146.210066,2.2145567 160.060125,6.61435052 C173.912036,11.016 189.440722,12.6128041 199.924275,20.4752784 C210.406901,28.3507423 222.706961,37.6281649 228.563648,48.0412577 C234.43329,58.440433 227.822424,73.5622887 227.822424,85.5712577" id="Fill-1" fill="#FFEBEB" mask="url(#mask-2)"></path>
                </g>
                <g id="Group-6" transform="translate(26.835821, 27.835052)">
                    <mask id="mask-4" fill="white">
                        <use xlink:href="#path-3"></use>
                    </mask>
                    <g id="Clip-5"></g>
                    <path d="M58.783403,1.00762887 L8.17197015,30.1982474 C1.32328358,33.6330928 0.121223881,39.2381443 0.121223881,43.5961856 L0.121223881,43.5961856 L0.121223881,119.679588 C1.33623881,120.815258 2.5938209,121.880412 3.92265672,122.875052 L3.92265672,122.875052 C4.81749254,123.54866 5.73916418,124.206495 6.69044776,124.865258 L6.69044776,124.865258 C7.16516418,125.202062 7.65468657,125.537938 8.15716418,125.873814 L8.15716418,125.873814 C8.89838806,126.378557 9.65441791,126.868454 10.4215522,127.360206 L10.4215522,127.360206 C19.7446866,133.315979 30.7862388,138.473814 41.842597,142.019072 L41.842597,142.019072 C41.926806,142.046907 42.0239701,142.074742 42.1081791,142.103505 L42.1081791,142.103505 C43.7849552,142.636082 45.5052239,143.182577 47.2652836,143.74299 L47.2652836,143.74299 C48.9568657,144.289485 50.6900896,144.835979 52.437194,145.368557 L52.437194,145.368557 C56.5328955,146.630412 60.767403,147.862577 65.0861194,148.92866 L65.0861194,148.92866 C66.1345672,149.180103 67.1839403,149.432474 68.2453433,149.670928 L68.2453433,149.670928 C68.9032836,149.811031 69.5593731,149.951134 70.2163881,150.091237 L70.2163881,150.091237 C70.5791343,150.160825 70.9437313,150.245258 71.307403,150.315773 L71.307403,150.315773 L71.307403,8.88309278 C71.307403,8.65762887 71.292597,8.44793814 71.2787164,8.23917526 L71.2787164,8.23917526 C71.2648358,8.0842268 71.2509552,7.92927835 71.223194,7.78917526 L71.223194,7.78917526 C71.2093134,7.67783505 71.1945075,7.57948454 71.1667463,7.48020619 L71.1667463,7.48020619 C71.1102985,7.18793814 71.0270149,6.92072165 70.9289254,6.68226804 L70.9289254,6.68226804 C70.8872836,6.55608247 70.8317612,6.44474227 70.7762388,6.33247423 L70.7762388,6.33247423 C70.6633433,6.10886598 70.5236119,5.89824742 70.3838806,5.71546392 L70.3838806,5.71546392 C70.3283582,5.63195876 70.2589552,5.56051546 70.2025075,5.49185567 L70.2025075,5.49185567 C70.1747463,5.47608247 70.1608657,5.44917526 70.1460597,5.44917526 L70.1460597,5.44917526 L70.0627761,5.3656701 C70.0211343,5.32391753 69.9785672,5.29515464 69.9221194,5.25340206 L69.9221194,5.25340206 C69.9221194,5.23948454 69.9091642,5.23948454 69.9091642,5.23948454 L69.9091642,5.23948454 L69.8952836,5.22556701 C69.8527164,5.19773196 69.8110746,5.15505155 69.7694328,5.12628866 L69.7694328,5.12628866 L69.8110746,5.11329897 L63.3399403,0.797010309 L63.3251343,0.797010309 C62.8041493,0.406391753 62.1656418,0.200412371 61.4466269,0.200412371 L61.4466269,0.200412371 C60.6415522,0.200412371 59.7356119,0.459278351 58.783403,1.00762887" id="Fill-4" fill="url(#linearGradient-5)" mask="url(#mask-4)"></path>
                </g>
                <g id="Group-31" transform="translate(28.686567, 32.353567)">
                    <path d="M69.456194,4.36411377 L69.456194,145.796794 C69.0925224,145.726279 68.7288507,145.642774 68.3651791,145.572258 C67.7081642,145.433083 67.0520746,145.29298 66.3941343,145.151949 C65.3327313,144.913495 64.2833582,144.661124 63.2349104,144.409681 C58.916194,143.344526 54.6816866,142.111433 50.5859851,140.850506 C48.839806,140.317 47.1065821,139.770506 45.415,139.224939 C43.6540149,138.663598 41.9346716,138.117103 40.2569701,137.584526 C40.1727612,137.556691 40.075597,137.527928 39.9913881,137.500093 C28.9359552,133.954835 17.8934776,128.797 8.57126866,122.841227 C7.80320896,122.350402 7.04810448,121.860506 6.3068806,121.355763 C5.80347761,121.019887 5.3148806,120.683083 4.83923881,120.347207 L4.83923881,42.2318457 C4.83923881,41.7271035 4.83923881,41.2501962 4.8531194,40.8011241 C4.93640299,37.6900932 5.52401493,34.6208148 9.81589552,31.8456602 C9.98246269,31.7482375 10.1499552,31.6368973 10.3322537,31.5385468 C10.5145522,31.4262787 10.6959254,31.3140107 10.8921045,31.2156602 L28.4186716,21.0966911 L63.4875373,0.874526143 C63.9622537,0.608237483 64.4240149,0.398546762 64.8709701,0.257515834 C66.0739552,-0.0932058157 67.122403,0.0478251121 67.9182239,0.608237483 C67.960791,0.636072535 68.0024328,0.678752947 68.045,0.707515834 L68.0579552,0.707515834 C68.1005224,0.749268411 68.1560448,0.790093153 68.2115672,0.846691091 L68.2957761,0.930196246 C68.3105821,0.930196246 68.3235373,0.958031298 68.3522239,0.972876658 C68.4077463,1.04246429 68.4771493,1.11297975 68.5326716,1.19648491 C68.672403,1.37926841 68.8130597,1.58988697 68.9250299,1.81349522 C68.9805522,1.92576326 69.037,2.03710346 69.0786418,2.16421686 C69.175806,2.40267047 69.2600149,2.66895913 69.3164627,2.96215501 C69.3442239,3.06050552 69.3590299,3.15885604 69.3719851,3.27112408 C69.3997463,3.41122717 69.4136269,3.56617563 69.4284328,3.72019625 C69.4413881,3.92988697 69.456194,4.13957769 69.456194,4.36411377" id="Fill-7" fill="#A07B7B"></path>
                    <path d="M69.4281552,3.7199179 C69.4133493,3.56589728 69.400394,3.41094882 69.3717075,3.27177357 C69.3587522,3.15950552 69.3439463,3.06022717 69.3161851,2.96280449 C69.2597373,2.66868078 69.1764537,2.40239212 69.0783642,2.16393851 C69.0367224,2.03775295 68.9812,1.92548491 68.9247522,1.81321686 C68.8127821,1.58960862 68.6730507,1.3799179 68.532394,1.19620656 C68.462991,1.09878387 68.3797075,1.01435089 68.2954985,0.929917896 L68.2122149,0.846412741 C68.1705731,0.804660164 68.128006,0.776825112 68.0715582,0.735072535 C68.0715582,0.721155009 68.058603,0.721155009 68.058603,0.721155009 L68.058603,0.707237483 L68.0447224,0.707237483 C68.0021552,0.679402432 67.9605134,0.636722019 67.9179463,0.607959133 C67.1221254,0.0475467616 66.0736776,-0.0925563312 64.8706925,0.258165318 C64.4237373,0.384350885 63.9490209,0.594969442 63.4594985,0.875175628 L28.4193194,21.0973406 L10.8918269,31.2163096 C10.6956478,31.3137323 10.5142746,31.4260004 10.3329015,31.5382684 C10.1496776,31.6366189 9.98311045,31.7479591 9.81561791,31.8453818 C5.28684179,34.5797117 4.88060299,36.906722 4.85376716,40.8017736 C4.83896119,41.2499179 4.83896119,41.7268251 4.83896119,42.2315674 L4.83896119,120.346928 C5.31460299,120.683732 5.8032,121.019609 6.30660299,121.355485 L6.30660299,42.2594024 C6.30660299,41.8242478 6.34917015,41.390021 6.36305075,40.9836292 C6.40561791,37.5079591 6.4611403,35.2236292 11.1851701,32.3083715 L63.0958269,2.00899006 C64.3256478,1.42074264 65.3602149,1.12661893 66.1995284,1.12661893 C66.7445731,1.12661893 68.3658269,1.12661893 68.3658269,4.36383542 L68.3658269,145.572908 C68.7285731,145.642495 69.0931701,145.726928 69.4559164,145.796516 L69.4559164,4.36383542 C69.4559164,4.13929934 69.4420358,3.93053645 69.4281552,3.7199179" id="Fill-9" fill="#957373"></path>
                    <path d="M3.08778507,72.6460932 C3.08778507,72.0290828 2.65100896,71.2728973 2.1189194,70.964856 L1.14820299,70.402588 C0.616113433,70.0945468 0.180262687,70.3469179 0.180262687,70.9639282 L0.180262687,83.1974334 C0.180262687,83.8135158 0.616113433,84.5706292 1.14820299,84.8786705 L2.1189194,85.4409385 C2.65193433,85.7489798 3.08778507,85.4966086 3.08778507,84.8805261 L3.08778507,72.6460932 Z" id="Fill-11" fill="#917070"></path>
                    <path d="M43.967809,17.7171447 C43.6522567,18.2654952 43.6790925,18.8732272 44.0270328,19.0754952 C44.3758985,19.2777633 44.9144657,18.9966292 45.2300179,18.4482787 C45.5464955,17.8999282 45.5196597,17.2921962 45.170794,17.0899282 C44.8219284,16.8876602 44.2833612,17.1687942 43.967809,17.7171447" id="Fill-13" fill="#CE9F9F"></path>
                    <path d="M37.0844209,18.5670416 C36.9243313,18.8453921 36.9382119,19.1543612 37.1149582,19.2564231 C37.2926299,19.3594127 37.5656149,19.2165261 37.7247791,18.9381756 C37.885794,18.6607529 37.8719134,18.3517839 37.6951672,18.2487942 C37.5184209,18.1467323 37.2445104,18.2886911 37.0844209,18.5670416" id="Fill-15" fill="#CE9F9F"></path>
                    <path d="M32.2207522,25.1171859 C32.2207522,24.627289 32.7398866,24.0269798 33.1646328,23.783887 L41.2033493,19.2421344 C41.6280955,18.9990416 42.0769015,19.2013096 42.0769015,19.6912066 L42.0769015,19.7904849 C42.0769015,20.2803818 41.7141552,20.8806911 41.289409,21.122856 L33.1711104,25.6646086 C32.7472896,25.9086292 32.2207522,25.7054334 32.2207522,25.2146086 L32.2207522,25.1171859 Z" id="Fill-17" fill="#CE9F9F"></path>
                    <path d="M66.1993433,9.70371171 L9.31110448,42.4831962 C8.9761194,42.6789694 8.48752239,43.1568045 8.48752239,43.5483509 L8.48752239,68.5080416 L8.55785075,68.466289 L8.57173134,123.262372 C17.957791,129.258969 28.9752836,134.388042 39.9918507,137.92031 C40.0760597,137.949073 40.1732239,137.837732 40.2574328,137.865567 C41.934209,138.397217 43.6544776,139.083815 45.4145373,139.645155 C47.1061194,140.19165 48.8393433,140.739073 50.5864478,141.270722 C54.6821493,142.53165 58.9166567,143.62464 63.2353731,144.689794 L63.3658507,144.750103 C64.3865373,144.995052 65.4081493,145.240928 66.441791,145.472887 C66.7073731,145.234433 66.898,144.688866 66.898,144.367835 L66.898,142.433299 L66.898,131.58598 L66.898,34.6634024 L66.898,11.3849488 L66.898,10.0683509 C66.898,9.67587666 66.5343284,9.50701068 66.1993433,9.70371171" id="Fill-19" fill="#FFFFFF"></path>
                    <path d="M116.54029,49.3526086 C125.030588,49.5799282 118.672349,48.1436395 118.672349,48.1436395 C118.672349,48.1436395 116.753125,56.5915777 118.40214,58.3349798 C120.051155,60.0793096 133.223842,61.4320932 138.621543,49.6782787 C138.621543,49.6782787 130.531931,48.4609591 132.947155,21.3292066 C132.947155,21.3292066 116.729066,-6.30079344 107.581752,18.9520932 C107.581752,18.9520932 108.049066,49.1262169 116.54029,49.3526086 Z" id="Fill-21" fill="#F2BB8A"></path>
                    <path d="M138.432675,10.0307736 C135.60751,-0.984484166 119.441242,2.32231996 113.262525,6.83159831 C103.986585,13.5992272 102.582794,23.8091241 103.435063,25.8939694 C106.969988,34.5515983 113.436496,23.1921138 120.259272,19.7526292 C125.101749,17.3114952 126.950645,23.7181962 126.950645,23.7181962 C127.792734,25.6777839 128.310943,26.8654127 128.653331,28.3870622 C128.83563,29.2035571 127.936167,31.1900519 129.282585,30.9747942 C132.137361,30.5192272 130.692854,26.7550004 131.163869,24.6803612 C133.083093,16.2333509 132.642615,37.7470622 132.642615,37.7470622 C141.202316,34.575722 139.856824,15.5829385 138.432675,10.0307736" id="Fill-23" fill="#19144A"></path>
                    <path d="M37.5281373,56.9761653 C40.3523761,55.8256499 43.3589134,55.9156499 46.3598985,56.1309076 C47.2750925,56.1949282 48.1653015,55.8664746 48.8352716,55.2271962 C50.1974209,53.9282272 52.3239284,51.6652375 53.1336299,49.5275055 C53.9729433,47.3118354 51.2107045,44.7074024 49.3636597,43.2711138 C46.7078388,41.2066808 43.2025254,44.3826602 41.9606746,46.6771962 C41.5257493,47.4825571 41.1870627,48.3918354 41.3036597,49.3038973 C41.6488239,51.9853406 40.9094507,52.838021 38.2934209,53.7370932 C36.9201672,54.2093612 35.4451224,54.5628663 34.3531821,55.5333818 C34.0422567,55.8098767 33.7600179,56.15132 33.6832119,56.5669901 C33.613809,56.9409076 33.7220776,57.3305983 33.8923463,57.6729694 C34.6493015,59.1834849 36.1641373,57.5764746 37.1894507,57.1199798 C37.3023463,57.0708045 37.4152418,57.0216292 37.5281373,56.9761653" id="Fill-25" fill="#F2BB8A"></path>
                    <path d="M44.9284388,54.2434127 L53.279006,49.3741344 C53.279006,49.3741344 62.4216925,55.541454 71.5717821,64.5080519 C67.6241403,67.0549591 63.7042597,69.6798045 59.6853642,72.0105261 C56.3910358,66.6031035 51.6392448,60.6686705 44.9284388,54.2434127" id="Fill-27" fill="#F2BB8A"></path>
                    <path d="M104.942958,72.2582581 C104.942958,72.2582581 92.5957045,82.9339282 71.5656746,64.5034127 C67.3913164,67.0197014 62.8560627,68.5367117 59.684809,72.0068148 C71.5332866,89.2246499 89.809406,111.526093 108.648152,89.6820725 C108.648152,89.6820725 121.773645,66.5474334 104.942958,72.2582581" id="Fill-29" fill="#F2BB8A"></path>
                    <polygon id="Path-2" fill="#F2BB8A" fill-rule="nonzero" points="118.400495 47.1142498 118.447761 49.392203 121.937545 50.0015255 121.291974 48.3680828"></polygon>
                </g>
                <g id="Group-34" transform="translate(119.373134, 88.144330)">
                    <mask id="mask-7" fill="white">
                        <use xlink:href="#path-6"></use>
                    </mask>
                    <g id="Clip-33"></g>
                    <path d="M0.515432836,22.0852577 C1.09841791,26.3727835 12.1464478,39.7280412 12.1464478,39.7280412 L12.1464478,39.7280412 C12.1464478,39.7280412 19.8964478,38.2815464 20.0556119,32.2830928 L20.0556119,32.2830928 C20.2147761,26.285567 26.8867164,0.456494845 26.8867164,0.456494845 L26.8867164,0.456494845 C26.8867164,0.456494845 -0.0675522388,17.7986598 0.515432836,22.0852577" id="Fill-32" fill="url(#linearGradient-8)" mask="url(#mask-7)"></path>
                </g>
                <g id="Group-37" transform="translate(132.328358, 80.721649)">
                    <mask id="mask-10" fill="white">
                        <use xlink:href="#path-9"></use>
                    </mask>
                    <g id="Clip-36"></g>
                    <path d="M34.077791,0.421237113 C33.9945075,0.53257732 33.8964179,0.645773196 33.8131343,0.744123711 L33.8131343,0.744123711 C23.4267463,13.2160825 15.4463284,8.87195876 14.1322985,8.00350515 L14.1322985,8.00350515 C14.0064478,7.93298969 13.9379701,7.87731959 13.9379701,7.87731959 L13.9379701,7.87731959 L13.9222388,7.89123711 C9.52023881,13.4823711 6.55719403,18.5696907 4.58707463,23.0836082 L4.58707463,23.0836082 C-0.500626866,34.728866 0.952208955,42.5069072 0.966089552,45.337732 L0.966089552,45.337732 L0.966089552,45.5474227 C0.952208955,45.8703093 0.952208955,46.2340206 0.952208955,46.6404124 L0.952208955,46.6404124 C1.00865672,50.8165979 1.736,58.8479381 1.736,58.8479381 L1.736,58.8479381 C1.90349254,64.788866 1.94513433,82.4752577 1.84704478,93.6723711 L1.84704478,93.6723711 C5.98438806,91.4873196 10.0384478,88.9506186 14.0212537,86.6236082 L14.0212537,86.6236082 C17.3609254,84.6751546 20.660806,82.8668041 23.9449552,81.5502062 L23.9449552,81.5502062 C24.8675522,81.1716495 25.7753433,80.836701 26.6979403,80.5416495 L26.6979403,80.5416495 C38.1318507,76.9110309 48.6986866,73.7730928 57.9376119,68.3489691 L57.9376119,68.3489691 C58.3142388,68.1253608 58.6927164,67.9008247 59.0554627,67.6623711 L59.0554627,67.6623711 C59.6699104,67.2838144 60.2852836,66.9061856 60.9015821,66.498866 L60.9015821,66.498866 L61.4031343,66.1629897 C61.0542687,65.1265979 60.7044776,64.1171134 60.3546866,63.1354639 L60.3546866,63.1354639 C59.3210448,60.2350515 53.8280299,58.9314433 53.4921194,58.8201031 L53.4921194,58.8201031 C53.520806,58.8201031 53.8141493,58.8618557 54.4720896,58.9731959 L54.4720896,58.9731959 C61.4457015,60.108866 65.176806,57.0952577 67.1617313,53.7875258 L67.1617313,53.7875258 C69.1753433,50.4528866 69.3983582,46.7953608 69.3983582,46.7953608 L69.3983582,46.7953608 C67.0081194,27.8610309 60.9145373,16.65 54.4295224,10.006701 L54.4295224,10.006701 C52.9054328,8.43773196 51.3545075,7.12020619 49.8304179,6.04113402 L49.8304179,6.04113402 C46.113194,3.3643299 42.5477313,1.96329897 39.7401493,1.22103093 L39.7401493,1.22103093 C36.9501493,0.484329897 34.9245075,0.418453608 34.2887761,0.418453608 L34.2887761,0.418453608 C34.1508955,0.418453608 34.077791,0.421237113 34.077791,0.421237113" id="Fill-35" fill="url(#linearGradient-11)" mask="url(#mask-10)"></path>
                </g>
                <path d="M193.731863,146.884454 C194.473087,146.379711 195.199504,145.861052 195.926848,145.315485 C196.359922,144.992598 196.792997,144.656722 197.212191,144.306 C198.415176,140.87301 199.112907,137.565278 199.491385,134.509918 C200.776728,123.845381 198.07834,116.109093 198.07834,116.109093 C192.516848,115.127443 187.274609,126.717959 183.3464,128.68033 C182.257236,129.226825 180.229743,133.892907 178.9444,136.72466 C178.539087,137.634866 178.204101,138.363216 178.007922,138.700021 C174.512788,144.600124 165.889236,153.55466 156.273684,162.272598 C157.196281,161.894041 158.104072,161.557237 159.026669,161.263113 C170.460579,157.633423 181.027415,154.494557 190.265415,149.070433 C190.642967,148.845897 191.020519,148.622289 191.384191,148.383835 C191.998639,148.005278 192.614012,147.627649 193.22846,147.22033 L193.731863,146.884454 Z" id="Fill-38" fill="#F2BB8A"></path>
                <g id="Group-42" transform="translate(175.820896, 86.288660)">
                    <mask id="mask-13" fill="white">
                        <use xlink:href="#path-12"></use>
                    </mask>
                    <g id="Clip-41"></g>
                    <path d="M0.719014925,19.0150515 C9.23059701,24.4391753 0.468238806,47.9829897 0.468238806,47.9829897 L0.468238806,47.9829897 C1.37695522,48.8236082 2.2560597,49.6363918 3.12313433,50.4352577 L3.12313433,50.4352577 C7.34376119,54.3173196 11.2858507,57.6946392 16.6955821,60.5820619 L16.6955821,60.5820619 C16.918597,60.7082474 17.1564179,60.834433 17.4081194,60.9318557 L17.4081194,60.9318557 L17.910597,60.5959794 C18.6518209,60.0912371 19.3782388,59.5725773 20.1065075,59.0270103 L20.1065075,59.0270103 C20.5386567,58.7041237 20.9717313,58.3682474 21.3909254,58.0165979 L21.3909254,58.0165979 C21.8656418,57.6668041 22.3283284,57.2891753 22.7891642,56.896701 L22.7891642,56.896701 L22.7891642,56.8809278 C23.6423582,54.4435052 24.2003582,51.654433 24.591791,50.3656701 L24.591791,50.3656701 C25.5569552,47.1702062 26.9542687,43.5535052 26.9820299,40.1771134 L26.9820299,40.1771134 C27.1356418,22.1826804 19.9936119,12.6241237 10.9369851,4.43969072 L10.9369851,4.43969072 C9.44065672,3.09618557 7.90361194,1.77773196 6.33880597,0.474123711 L6.33880597,0.474123711 L0.719014925,19.0150515 Z" id="Fill-40" fill="url(#linearGradient-14)" mask="url(#mask-13)"></path>
                </g>
                <g id="Group-75" transform="translate(54.597015, 13.917526)">
                    <path d="M193.187836,28.9035464 C193.187836,44.3835464 180.67309,56.9325155 165.234164,56.9325155 C149.795239,56.9325155 137.279567,44.3835464 137.279567,28.9035464 C137.279567,13.4235464 149.795239,0.87457732 165.234164,0.87457732 C180.67309,0.87457732 193.187836,13.4235464 193.187836,28.9035464" id="Fill-43" fill="#DB3535"></path>
                    <path d="M154.051955,43.4127526 C153.210791,43.4127526 152.368701,43.089866 151.726493,42.4468763 C150.443,41.1590412 150.443,39.0704845 151.726493,37.7845052 L174.089985,15.3615155 C175.373478,14.0727526 177.457418,14.0727526 178.74091,15.3615155 C180.025328,16.6474948 180.025328,18.7360515 178.74091,20.0238866 L156.377418,42.4468763 C155.735209,43.089866 154.893119,43.4127526 154.051955,43.4127526" id="Fill-45" fill="#FFFFFF"></path>
                    <path d="M176.415448,43.4127526 C175.574284,43.4127526 174.732194,43.089866 174.089985,42.4468763 L151.726493,20.0238866 C150.443,18.7360515 150.443,16.6474948 151.726493,15.3615155 C153.009985,14.0727526 155.093925,14.0727526 156.377418,15.3615155 L178.74091,37.7845052 C180.025328,39.0704845 180.025328,41.1590412 178.74091,42.4468763 C178.098701,43.089866 177.256612,43.4127526 176.415448,43.4127526" id="Fill-47" fill="#FFFFFF"></path>
                    <g id="Group-58" transform="translate(0.000000, 78.865979)">
                        <g id="Group-51">
                            <mask id="mask-16" fill="white">
                                <use xlink:href="#path-15"></use>
                            </mask>
                            <g id="Clip-50"></g>
                            <path d="M13.4313284,8.09703093 C6.12365672,12.3279588 0.222552239,22.5749691 0.24653863,30.996 C0.269746269,39.4096082 6.20971642,42.8091959 13.5183134,38.5791959 C20.8204328,34.3519794 26.7270896,24.0938351 26.7040229,15.6802268 C26.6789701,7.26012371 20.7343731,3.86981443 13.4313284,8.09703093 M13.4655672,20.8018763 L17.6436269,13.5480619 C17.9462239,13.0210515 18.3450597,12.6146598 18.7429701,12.3845567 C19.141806,12.1535258 19.5424925,12.0978557 19.8469403,12.2722887 C20.4576866,12.6211546 20.4604627,13.7577526 19.8534179,14.8043505 L15.6744328,22.0628041 L19.8811791,24.4640412 C20.4919254,24.8129072 20.4947015,25.9485773 19.8885821,27.0025979 C19.5813582,27.5268247 19.1871493,27.9341443 18.7846119,28.1661031 C18.3885522,28.3952784 17.9934179,28.4481649 17.6852687,28.2783711 L13.4803731,25.8724948 L9.30046269,33.1309485 C9.00064179,33.6523918 8.60550746,34.0587835 8.20389552,34.2916701 C7.80783582,34.5208454 7.40529851,34.5765155 7.10270149,34.4039381 C6.4928806,34.0550722 6.4891791,32.9184742 7.09529851,31.8644536 L11.2733582,24.6106392 L7.06846269,22.2056907 C6.45864179,21.8633196 6.4549403,20.7267216 7.0610597,19.6736289 C7.36458209,19.1466186 7.76249254,18.7411546 8.16132836,18.5101237 C8.55831343,18.2800206 8.95714925,18.2243505 9.2588209,18.4006392 L13.4655672,20.8018763" id="Fill-49" fill="#A38484" mask="url(#mask-16)"></path>
                        </g>
                        <g id="Group-54">
                            <mask id="mask-18" fill="white">
                                <use xlink:href="#path-17"></use>
                            </mask>
                            <g id="Clip-53"></g>
                            <path d="M18.7432478,12.3846495 C18.3444119,12.6147526 17.9465015,13.0211443 17.6439045,13.5481546 L13.4658448,20.8019691 L15.6747104,22.0628969 L19.8536955,14.8035155 C20.4598149,13.7569175 20.4579642,12.6212474 19.8462925,12.2723814 C19.5418448,12.0970206 19.1420836,12.1536186 18.7432478,12.3846495 M11.2736358,24.610732 L7.09557612,31.8645464 C6.48945672,32.918567 6.49315821,34.0542371 7.1029791,34.4031031 C7.40557612,34.5766082 7.80811343,34.5209381 8.20324776,34.2917629 C8.60578507,34.0588763 9.0009194,33.6524845 9.3007403,33.1310412 L13.4806507,25.8725876 L11.2736358,24.610732" id="Fill-52" fill="#FFFFFF" mask="url(#mask-18)"></path>
                        </g>
                        <g id="Group-57">
                            <mask id="mask-20" fill="white">
                                <use xlink:href="#path-19"></use>
                            </mask>
                            <g id="Clip-56"></g>
                            <path d="M8.16105075,18.5098454 C7.76221493,18.7408763 7.36522985,19.147268 7.06170746,19.6733505 C6.45466269,20.7273711 6.45836418,21.8630412 7.06818507,22.2054124 L11.2730806,24.6103608 L13.4800955,25.8731443 L17.684991,28.2780928 C17.9931403,28.4478866 18.3892,28.395 18.7843343,28.1658247 C19.1868716,27.933866 19.582006,27.5274742 19.8883045,27.0023196 C20.4944239,25.9492268 20.4916478,24.8126289 19.8809015,24.4637629 L15.6741552,22.0625258 L13.4652896,20.8025258 L9.25946866,18.4012887 C8.95687164,18.2240722 8.55896119,18.2797423 8.16105075,18.5098454" id="Fill-55" fill="#FFFFFF" mask="url(#mask-20)"></path>
                        </g>
                    </g>
                    <g id="Group-74" transform="translate(2.776119, 115.979381)">
                        <g id="Group-61">
                            <mask id="mask-22" fill="white">
                                <use xlink:href="#path-21"></use>
                            </mask>
                            <g id="Clip-60"></g>
                            <polygon id="Fill-59" fill="#A38484" mask="url(#mask-22)" points="4.75595522 11.135134 0.154074627 13.7989485 0.178134328 22.3220412 4.82813433 19.6294639 4.82258209 17.7580206 1.86879104 19.4680206 1.86416418 17.9575052 4.5051791 16.428433 4.50055224 14.5764742 1.85861194 16.1046186 1.85491045 14.6961649 4.76150746 13.0130722"></polygon>
                        </g>
                        <g id="Group-64">
                            <mask id="mask-24" fill="white">
                                <use xlink:href="#path-23"></use>
                            </mask>
                            <g id="Clip-63"></g>
                            <path d="M8.88126866,11.0653608 C8.21870149,11.4485567 7.51171642,12.2464948 7.30073134,13.1863918 L7.29795522,12.1045361 L5.71464179,13.0203093 L5.73222388,19.1069072 L7.31553731,18.1902062 L7.30813433,15.4401031 C7.30443284,14.3953608 8.00031343,13.6224742 8.61291045,13.2680412 C8.70729851,13.213299 8.79983582,13.1696907 8.8868209,13.134433 L8.88126866,11.0653608" id="Fill-62" fill="#A38484" mask="url(#mask-24)"></path>
                        </g>
                        <g id="Group-67">
                            <mask id="mask-26" fill="white">
                                <use xlink:href="#path-25"></use>
                            </mask>
                            <g id="Clip-66"></g>
                            <path d="M12.7924507,8.80107216 C12.130809,9.18426804 11.4228985,9.98220619 11.2128388,10.9221031 L11.2091373,9.84024742 L9.62582388,10.7560206 L9.64340597,16.8426186 L11.2267194,15.9259175 L11.2193164,13.1758144 C11.2156149,12.1310722 11.9114955,11.3591134 12.5240925,11.0037526 C12.6184806,10.9490103 12.7110179,10.9054021 12.798003,10.8701443 L12.7924507,8.80107216" id="Fill-65" fill="#A38484" mask="url(#mask-26)"></path>
                        </g>
                        <g id="Group-70">
                            <mask id="mask-28" fill="white">
                                <use xlink:href="#path-27"></use>
                            </mask>
                            <g id="Clip-69"></g>
                            <path d="M15.9110507,6.94809278 C14.3573493,7.84716495 13.1154985,9.96448454 13.1201125,11.7821134 C13.1256776,13.5923196 14.3758567,14.2733505 15.9304836,13.3733505 C17.4832597,12.4742784 18.7260358,10.3504639 18.7214218,8.54025773 C18.7158567,6.72170103 17.4656776,6.04809278 15.9110507,6.94809278 M15.9249313,11.5974742 C15.2392299,11.9936598 14.7052896,11.7292268 14.703428,10.8654124 C14.7006627,10.0006701 15.2318269,9.12108247 15.916603,8.72396907 C16.6023045,8.32685567 17.1353194,8.59128866 17.137181,9.45603093 C17.1399463,10.3207732 16.6106328,11.2003608 15.9249313,11.5974742" id="Fill-68" fill="#A38484" mask="url(#mask-28)"></path>
                        </g>
                        <g id="Group-73">
                            <mask id="mask-30" fill="white">
                                <use xlink:href="#path-29"></use>
                            </mask>
                            <g id="Clip-72"></g>
                            <path d="M22.7826866,3.01750515 C22.1154925,3.40441237 21.4140597,4.19863918 21.2030746,5.13946392 L21.2002985,4.05668041 L19.6160597,4.97338144 L19.6336418,11.0590515 L21.2178806,10.1423505 L21.2095522,7.39224742 C21.2067761,6.34843299 21.9026567,5.57554639 22.5152537,5.22018557 C22.6096418,5.1654433 22.7012537,5.12183505 22.7891642,5.08657732 L22.7826866,3.01750515" id="Fill-71" fill="#A38484" mask="url(#mask-30)"></path>
                        </g>
                    </g>
                </g>
            </g>
        </g>
    </g>
</svg>