<?xml version="1.0" encoding="UTF-8"?>
<svg width="260px" height="223px" viewBox="0 0 260 223" version="1.1" xmlns="http://www.w3.org/2000/svg" xmlns:xlink="http://www.w3.org/1999/xlink">
    <!-- Generator: Sketch 55.1 (78136) - https://sketchapp.com -->
    <title>success</title>
    <desc>Created with Sketch.</desc>
    <defs>
        <path d="M45.6214286,0.692586538 L6.47142857,23.2284519 C1.17357143,25.8794359 0.243571429,30.2064936 0.243571429,33.5707917 L0.243571429,33.5707917 L0.243571429,90.7066795 C1.65928571,92.1776218 3.17357143,93.5527885 4.80642857,94.775 L4.80642857,94.775 C4.97928571,94.9050833 5.15214286,95.023016 5.32571429,95.1538141 L5.32571429,95.1538141 C5.69285714,95.4347083 6.07071429,95.7048814 6.46,95.9757692 L6.46,95.9757692 C7.03357143,96.3867468 7.61714286,96.7769968 8.21214286,97.1765385 L8.21214286,97.1765385 C15.0992857,101.795926 23.3921429,105.864247 31.815,108.773968 L31.815,108.773968 C32.6578571,109.067013 33.5021429,109.347907 34.345,109.618795 L34.345,109.618795 C35.3071429,109.921131 36.2914286,110.234904 37.2857143,110.560112 L37.2857143,110.560112 C38.5942857,110.97109 39.9242857,111.392788 41.275,111.814487 L41.275,111.814487 C44.4107143,112.788683 47.665,113.750728 50.995,114.595554 L50.995,114.595554 C51.7207143,114.78925 52.4542857,114.975083 53.2007143,115.147337 L53.2007143,115.147337 C53.6228571,115.245256 54.0442857,115.341747 54.4664286,115.438952 L54.4664286,115.438952 C54.7478571,115.493272 55.0285714,115.558314 55.3092857,115.61192 L55.3092857,115.61192 L55.3092857,6.77219551 C55.3092857,6.59922756 55.2985714,6.43698077 55.2885714,6.27544872 L55.2885714,6.27544872 C55.2764286,6.15608654 55.2664286,6.0374391 55.245,5.92879808 L55.245,5.92879808 C55.2335714,5.8423141 55.2228571,5.76655128 55.2007143,5.69078846 L55.2007143,5.69078846 C55.1578571,5.46421474 55.0928571,5.25836859 55.0178571,5.07396474 L55.0178571,5.07396474 C54.9857143,4.97675962 54.9421429,4.89027564 54.8985714,4.80307692 L54.8985714,4.80307692 C54.8128571,4.63010897 54.705,4.46786218 54.5957143,4.32705769 L54.5957143,4.32705769 C54.5521429,4.26273077 54.4985714,4.20841026 54.455,4.15408974 L54.455,4.15408974 C54.4342857,4.14336859 54.4228571,4.12121154 54.4121429,4.12121154 L54.4121429,4.12121154 L54.3471429,4.05688462 C54.315,4.02472115 54.2821429,4.00327885 54.2392857,3.97111538 L54.2392857,3.97111538 C54.2392857,3.95967949 54.2292857,3.95967949 54.2292857,3.95967949 L54.2292857,3.95967949 L54.2171429,3.94895833 C54.185,3.92751603 54.1521429,3.89463782 54.12,3.87319551 L54.12,3.87319551 L54.1521429,3.8631891 L49.1464286,0.529625 L49.1357143,0.529625 C48.7328571,0.228717949 48.2385714,0.0700448718 47.6821429,0.0700448718 L47.6821429,0.0700448718 C47.0592857,0.0700448718 46.3585714,0.269458333 45.6214286,0.692586538" id="path-1"></path>
        <linearGradient x1="49.9999617%" y1="80.8555495%" x2="49.9999617%" y2="-16.2420847%" id="linearGradient-3">
            <stop stop-color="#3828CD" offset="0%"></stop>
            <stop stop-color="#E67CF7" offset="100%"></stop>
        </linearGradient>
        <path d="M33.605,0.365233974 L0.317857143,19.596125 C0.209285714,19.6590224 0.12,19.8269872 0.12,19.9720801 L0.12,19.9720801 L0.12,26.261109 C0.12,26.3297244 0.141428571,26.3797564 0.174285714,26.4083462 L0.174285714,26.4083462 L0.173571429,26.4090609 L0.176428571,26.4097756 C0.178571429,26.4119199 0.181428571,26.4126346 0.184285714,26.4147788 L0.184285714,26.4147788 L2.86785714,27.961484 L2.88857143,24.923109 L33.605,7.17816987 C33.7142857,7.11527244 33.8014286,6.94659295 33.8014286,6.80221474 L33.8014286,6.80221474 L33.8014286,4.6436891 L36.395,1.88763782 L33.7385714,0.357371795 L33.7385714,0.359516026 C33.7214286,0.348080128 33.7021429,0.342362179 33.6807143,0.342362179 L33.6807143,0.342362179 C33.6571429,0.342362179 33.6321429,0.349509615 33.605,0.365233974" id="path-4"></path>
        <path d="M34.1328571,0.473160256 L0.844285714,19.7040513 C0.735714286,19.7669487 0.647857143,19.9363429 0.647857143,20.0807212 L0.647857143,20.0807212 L0.647857143,26.3690353 C0.647857143,26.5141282 0.735714286,26.5805994 0.844285714,26.5169872 L0.844285714,26.5169872 L34.1328571,7.28609615 C34.2414286,7.22391346 34.33,7.05523397 34.33,6.91014103 L34.33,6.91014103 L34.33,0.621826923 C34.33,0.513900641 34.2807143,0.449573718 34.2114286,0.449573718 L34.2114286,0.449573718 C34.1871429,0.449573718 34.1607143,0.457435897 34.1328571,0.473160256" id="path-6"></path>
        <linearGradient x1="75.8709138%" y1="89.2016537%" x2="41.0682912%" y2="36.4650483%" id="linearGradient-8">
            <stop stop-color="#645BEF" offset="0%"></stop>
            <stop stop-color="#77A0EF" offset="100%"></stop>
        </linearGradient>
        <path d="M42.7821429,69.4966635 L36.7385714,72.9917596 L35.8942857,73.4792147 L34.7592857,74.1274872 L18.7142857,83.399141 C17.72,83.0746474 16.7357143,82.760875 15.7728571,82.4585385 C14.9307143,82.1876506 14.0864286,81.9067564 13.2435714,81.6137115 C10.9078571,78.8447949 9.31857143,75.1016827 9.31857143,71.8445962 L9.31857143,30.1378782 C9.31857143,27.3789679 8.35571429,24.3277276 6.78857143,21.6117019 C6.42071429,20.9734359 6.02071429,20.3566122 5.58785714,19.7612308 C5.05857143,19.0264744 4.475,18.3338878 3.85857143,17.7056282 C3.33928571,17.1652821 2.79857143,16.6671058 2.22571429,16.2239647 C2.06428571,16.0938814 1.90142857,15.9645128 1.73928571,15.8451506 C1.67428571,15.802266 1.59857143,15.7479455 1.53428571,15.7050609 C1.45785714,15.6500256 1.38214286,15.607141 1.30642857,15.5535353 C1.29571429,15.5420994 1.285,15.5420994 1.27428571,15.5313782 C1.08,15.412016 0.895714286,15.2833622 0.690714286,15.164 L26.8021429,0.0814807692 C27.0071429,0.200842949 27.2128571,0.330926282 27.4178571,0.471016026 C27.4935714,0.514615385 27.5692857,0.568935897 27.645,0.622541667 C27.7214286,0.666141026 27.7857143,0.720461538 27.8507143,0.763346154 C28.0128571,0.882708333 28.1757143,1.00135577 28.3371429,1.1314391 C28.91,1.57458013 29.4507143,2.08347756 29.97,2.62453846 C30.5864286,3.25208333 31.1585714,3.94395513 31.6885714,4.66941987 C33.0514286,6.52989744 34.1221429,8.66126282 34.7592857,10.8033494 C35.1921429,12.2314071 35.43,13.6709006 35.43,15.0446378 L35.43,56.7627917 C35.43,57.8013141 35.5914286,58.8941571 35.8942857,59.9762788 C36.1,60.7767917 36.3921429,61.5773045 36.7385714,62.356375 C36.9864286,62.9188782 37.2678571,63.471375 37.5814286,64.001" id="path-9"></path>
        <path d="M0.61,16.8557981 C1.06071429,20.1664904 9.60714286,30.4752372 9.60714286,30.4752372 L9.60714286,30.4752372 C9.60714286,30.4752372 15.6021429,29.3595224 15.7257143,24.7294135 L15.7257143,24.7294135 C15.8485714,20.0985897 21.0107143,0.157958333 21.0107143,0.157958333 L21.0107143,0.157958333 C21.0107143,0.157958333 0.158571429,13.5465353 0.61,16.8557981" id="path-11"></path>
        <linearGradient x1="72.4123471%" y1="51.7785296%" x2="14.9235157%" y2="43.5535389%" id="linearGradient-13">
            <stop stop-color="#4DB659" offset="0%"></stop>
            <stop stop-color="#93F99E" offset="100%"></stop>
        </linearGradient>
        <path d="M25.8857143,0.112214744 C25.8214286,0.198698718 25.745,0.274461538 25.68,0.360945513 L25.68,0.360945513 C17.6685714,9.95780769 11.5171429,6.66855769 10.4571429,5.98740705 L10.4571429,5.98740705 C10.3485714,5.92236538 10.2957143,5.87948077 10.2957143,5.87948077 L10.2957143,5.87948077 L10.2835714,5.88948718 C6.86785714,10.2286955 4.57571429,14.1662179 3.05071429,17.6498782 L3.05071429,17.6498782 C-0.874285714,26.6299167 0.261428571,32.6351923 0.261428571,34.7980064 L0.261428571,34.7980064 L0.261428571,34.9502468 C0.250714286,35.1982628 0.250714286,35.4913077 0.250714286,35.8043654 L0.250714286,35.8043654 C0.293571429,39.0392949 0.867142857,45.2275449 0.867142857,45.2275449 L0.867142857,45.2275449 C0.995714286,49.9984583 1.01785714,64.3669487 0.952857143,72.8266538 L0.952857143,72.8266538 C6.58642857,69.9926955 11.9607143,66.1738205 17.3014286,63.7172468 L17.3014286,63.7172468 C18.5878571,63.111859 19.885,62.5922404 21.1721429,62.1812628 L21.1721429,62.1812628 C30.8278571,59.1185865 39.6714286,56.5226378 47.2507143,51.5780417 L47.2507143,51.5780417 C47.2292857,51.5022788 47.1971429,51.4272308 47.175,51.3514679 L47.175,51.3514679 C46.8507143,50.3887083 46.5264286,49.447391 46.2021429,48.5382372 L46.2021429,48.5382372 C45.4014286,46.2982308 41.1528571,45.2925865 40.9035714,45.2061026 L40.9035714,45.2061026 C40.9257143,45.2061026 41.1528571,45.238266 41.6607143,45.3254647 L41.6607143,45.3254647 C46.6021429,46.1252628 49.435,44.2426282 51.0571429,41.949016 L51.0571429,41.949016 C53.0028571,39.222984 53.2078571,35.9122917 53.2078571,35.9122917 L53.2078571,35.9122917 C51.36,21.2957853 46.6457143,12.6409551 41.6285714,7.52339103 L41.6285714,7.52339103 C40.45,6.3111859 39.2507143,5.29482051 38.0714286,4.46142949 L38.0714286,4.46142949 C35.195,2.38438462 32.4271429,1.30226282 30.2542857,0.729038462 L30.2542857,0.729038462 C28.0478571,0.156528846 26.4664286,0.110785256 26.0164286,0.110785256 L26.0164286,0.110785256 C25.9307143,0.110785256 25.8857143,0.112214744 25.8857143,0.112214744" id="path-14"></path>
        <linearGradient x1="-0.00059743662%" y1="50.0001035%" x2="100.00053%" y2="50.0001035%" id="linearGradient-16">
            <stop stop-color="#4DB659" offset="0%"></stop>
            <stop stop-color="#93F99E" offset="100%"></stop>
        </linearGradient>
        <path d="M0.867142857,14.4757019 C7.44214286,18.6626699 0.672857143,36.8393141 0.672857143,36.8393141 L0.672857143,36.8393141 C1.37571429,37.4883013 2.05714286,38.1151314 2.72785714,38.7319551 L2.72785714,38.7319551 C5.99285714,41.7295897 9.04214286,44.3476955 13.2264286,46.576266 L13.2264286,46.576266 C13.5714286,46.7599551 13.9392857,46.9436442 14.3178571,47.0630064 L14.3178571,47.0630064 C14.4257143,47.0958846 14.5228571,47.1166122 14.6307143,47.1387692 L14.6307143,47.1387692 C15.0528571,46.8678814 15.4642857,46.5869872 15.8642857,46.2939423 L15.8642857,46.2939423 C16.1992857,46.0673686 16.535,45.829359 16.8585714,45.5799135 L16.8585714,45.5799135 C17.0107143,45.4727019 17.1507143,45.3533397 17.3021429,45.2339776 L17.3021429,45.2339776 C18.3285714,43.1462115 18.9342857,39.9770385 19.3242857,38.6890705 L19.3242857,38.6890705 C20.07,36.2217756 21.1514286,33.4199808 21.1728571,30.8118814 L21.1728571,30.8118814 C21.2921429,16.9315609 15.7664286,9.55326282 8.77142857,3.23492949 L8.77142857,3.23492949 C7.625,2.19712179 6.42571429,1.18004167 5.21428571,0.172967949 L5.21428571,0.172967949 L0.867142857,14.4757019 Z" id="path-17"></path>
        <linearGradient x1="51.7366236%" y1="77.6059965%" x2="39.0665723%" y2="-17.4507732%" id="linearGradient-19">
            <stop stop-color="#4DB659" offset="0%"></stop>
            <stop stop-color="#93F99E" offset="100%"></stop>
        </linearGradient>
        <polygon id="path-20" points="0.284285714 0.488527244 7.55285714 0.488527244 7.55285714 8.98033591 0.284285714 8.98033591"></polygon>
        <polygon id="path-22" points="0.578214286 0.200128205 6.5625 0.200128205 6.5625 5.60122812 0.578214286 5.60122812"></polygon>
    </defs>
    <g id="Page-1" stroke="none" stroke-width="1" fill="none" fill-rule="evenodd">
        <g id="Payment-Success" transform="translate(-51.000000, -90.000000)">
            <g id="success" transform="translate(51.000000, 90.000000)">
                <path d="M214.389786,118.621062 C214.389786,127.89343 212.042643,135.358213 207.501929,143.396934 C203.058357,151.273408 198.008357,158.402261 190.159071,164.3961 C190.007643,164.515463 189.867643,164.634825 189.7155,164.742036 C189.391929,164.991482 189.056214,165.229491 188.721214,165.456065 C188.321214,165.74911 187.9105,166.030004 187.488357,166.300892 C187.412643,166.354498 187.336929,166.408104 187.251214,166.451703 C179.671929,171.396299 170.827643,173.992963 161.171929,177.054924 C159.884786,177.465902 158.587643,177.98552 157.301214,178.590908 C151.9605,181.047482 146.586214,184.866357 140.952643,187.700315 C136.617643,189.896722 132.1305,191.51919 127.394786,191.51919 C115.0255,191.51919 102.213357,187.149248 91.4876429,183.752071 C80.7733571,180.35418 70.0583571,174.977879 61.9490714,168.907562 C53.8505,162.827953 48.5855,153.252533 44.0440714,145.213812 C39.5140714,137.186527 43.5690714,127.89343 43.5690714,118.621062 C43.5690714,109.348693 34.9405,97.480376 39.4705,89.452376 C44.0119286,81.4143696 58.4019286,80.5052157 66.5005,74.4256067 C74.6105,68.3445683 81.9405,60.5660138 92.6555,57.1688375 C103.3705,53.7716612 115.0255,52.5594561 127.394786,52.5594561 C139.763357,52.5594561 151.256929,54.2691228 161.971929,57.666299 C172.686929,61.0641901 184.699071,62.296408 192.807643,68.3660106 C200.916929,74.4463343 210.431929,81.6087798 214.962643,89.647501 C219.502643,97.6747862 214.389786,109.348693 214.389786,118.621062" id="Fill-1" fill="#EDEDED"></path>
                <g id="Group-5" transform="translate(57.142857, 74.133205)">
                    <mask id="mask-2" fill="white">
                        <use xlink:href="#path-1"></use>
                    </mask>
                    <g id="Clip-4"></g>
                    <path d="M45.6214286,0.692586538 L6.47142857,23.2284519 C1.17357143,25.8794359 0.243571429,30.2064936 0.243571429,33.5707917 L0.243571429,33.5707917 L0.243571429,90.7066795 C1.65928571,92.1776218 3.17357143,93.5527885 4.80642857,94.775 L4.80642857,94.775 C4.97928571,94.9050833 5.15214286,95.023016 5.32571429,95.1538141 L5.32571429,95.1538141 C5.69285714,95.4347083 6.07071429,95.7048814 6.46,95.9757692 L6.46,95.9757692 C7.03357143,96.3867468 7.61714286,96.7769968 8.21214286,97.1765385 L8.21214286,97.1765385 C15.0992857,101.795926 23.3921429,105.864247 31.815,108.773968 L31.815,108.773968 C32.6578571,109.067013 33.5021429,109.347907 34.345,109.618795 L34.345,109.618795 C35.3071429,109.921131 36.2914286,110.234904 37.2857143,110.560112 L37.2857143,110.560112 C38.5942857,110.97109 39.9242857,111.392788 41.275,111.814487 L41.275,111.814487 C44.4107143,112.788683 47.665,113.750728 50.995,114.595554 L50.995,114.595554 C51.7207143,114.78925 52.4542857,114.975083 53.2007143,115.147337 L53.2007143,115.147337 C53.6228571,115.245256 54.0442857,115.341747 54.4664286,115.438952 L54.4664286,115.438952 C54.7478571,115.493272 55.0285714,115.558314 55.3092857,115.61192 L55.3092857,115.61192 L55.3092857,6.77219551 C55.3092857,6.59922756 55.2985714,6.43698077 55.2885714,6.27544872 L55.2885714,6.27544872 C55.2764286,6.15608654 55.2664286,6.0374391 55.245,5.92879808 L55.245,5.92879808 C55.2335714,5.8423141 55.2228571,5.76655128 55.2007143,5.69078846 L55.2007143,5.69078846 C55.1578571,5.46421474 55.0928571,5.25836859 55.0178571,5.07396474 L55.0178571,5.07396474 C54.9857143,4.97675962 54.9421429,4.89027564 54.8985714,4.80307692 L54.8985714,4.80307692 C54.8128571,4.63010897 54.705,4.46786218 54.5957143,4.32705769 L54.5957143,4.32705769 C54.5521429,4.26273077 54.4985714,4.20841026 54.455,4.15408974 L54.455,4.15408974 C54.4342857,4.14336859 54.4228571,4.12121154 54.4121429,4.12121154 L54.4121429,4.12121154 L54.3471429,4.05688462 C54.315,4.02472115 54.2821429,4.00327885 54.2392857,3.97111538 L54.2392857,3.97111538 C54.2392857,3.95967949 54.2292857,3.95967949 54.2292857,3.95967949 L54.2292857,3.95967949 L54.2171429,3.94895833 C54.185,3.92751603 54.1521429,3.89463782 54.12,3.87319551 L54.12,3.87319551 L54.1521429,3.8631891 L49.1464286,0.529625 L49.1357143,0.529625 C48.7328571,0.228717949 48.2385714,0.0700448718 47.6821429,0.0700448718 L47.6821429,0.0700448718 C47.0592857,0.0700448718 46.3585714,0.269458333 45.6214286,0.692586538" id="Fill-3" fill="url(#linearGradient-3)" mask="url(#mask-2)"></path>
                </g>
                <g id="Group-20" transform="translate(58.571429, 76.992179)">
                    <path d="M53.8812857,3.91357853 L53.8812857,112.753303 C53.5998571,112.698982 53.3191429,112.633941 53.037,112.580335 C52.6162857,112.482415 52.1941429,112.385925 51.7727143,112.288005 C51.0262857,112.115752 50.292,111.930633 49.567,111.736223 C46.237,110.892111 42.982,109.929351 39.847,108.95587 C38.4955714,108.534171 37.1655714,108.111758 35.8577143,107.70078 C34.8627143,107.376287 33.8784286,107.0618 32.9155714,106.760178 C32.0734286,106.48929 31.2291429,106.207681 30.3862857,105.915351 C21.9634286,103.00563 13.6705714,98.9373093 6.78271429,94.3172067 C6.18842857,93.9176651 5.60485714,93.5281298 5.03128571,93.1171522 C4.642,92.8462644 4.26414286,92.5760913 3.89628571,92.2944824 L3.89628571,33.1465913 C3.89628571,32.7570561 3.89628571,32.3889631 3.90771429,32.0430272 C3.972,29.640774 4.42628571,27.2721138 7.74557143,25.1300272 C7.87557143,25.0542644 8.00485714,24.9670657 8.14628571,24.8920176 C8.28628571,24.8048189 8.42628571,24.7183349 8.57842857,24.6432869 L22.137,16.8311394 L49.2641429,1.21970994 C49.632,1.01386378 49.9884286,0.851616987 50.3341429,0.742975962 C51.2648571,0.473517628 52.0755714,0.58144391 52.6912857,1.01386378 C52.7241429,1.03602083 52.757,1.06889904 52.7891429,1.09034135 L52.7998571,1.09034135 C52.8327143,1.12250481 52.8755714,1.15538301 52.9184286,1.19755288 L52.9834286,1.26259455 C52.9948571,1.26259455 53.0048571,1.28403686 53.027,1.29547276 C53.0698571,1.34907853 53.1234286,1.40339904 53.167,1.46844071 C53.2755714,1.60924519 53.3841429,1.77149199 53.4705714,1.94445994 C53.5134286,2.03094391 53.557,2.11742788 53.5891429,2.21534776 C53.6641429,2.39903686 53.7291429,2.60488301 53.7727143,2.83145673 C53.7941429,2.90721955 53.8055714,2.98298237 53.8162857,3.06946635 C53.8377143,3.17810737 53.8484286,3.29746955 53.8598571,3.41611699 C53.8698571,3.57764904 53.8812857,3.74061058 53.8812857,3.91357853" id="Fill-6" fill="#5F3AD7"></path>
                    <path d="M53.8596429,3.41590256 C53.8482143,3.29725513 53.8382143,3.17789295 53.8160714,3.06996667 C53.8053571,2.98348269 53.7939286,2.90700513 53.7725,2.83195705 C53.7289286,2.60466859 53.6646429,2.39882244 53.5889286,2.21513333 C53.5567857,2.11792821 53.5139286,2.03144423 53.4703571,1.94424551 C53.3839286,1.77127756 53.2760714,1.60974551 53.1667857,1.46822628 C53.1132143,1.39246346 53.0482143,1.32742179 52.9832143,1.26238013 L52.9189286,1.19733846 C52.8867857,1.16588974 52.8539286,1.14373269 52.8103571,1.11156923 C52.8103571,1.10084808 52.8003571,1.10084808 52.8003571,1.10084808 L52.8003571,1.09012692 L52.7889286,1.09012692 C52.7567857,1.06868462 52.7239286,1.03580641 52.6910714,1.0143641 C52.0753571,0.581229487 51.2646429,0.473303205 50.3339286,0.743476282 C49.9882143,0.84068141 49.6210714,1.00364295 49.2425,1.22021026 L22.1367857,16.8316397 L8.57821429,24.6430724 C8.42678571,24.7188353 8.28607143,24.8053192 8.14607143,24.8918032 C8.00535714,24.9668513 7.87535714,25.05405 7.74535714,25.1298128 C4.2425,27.2397359 3.92892857,29.0358865 3.9075,32.0435276 C3.89678571,32.3887487 3.89678571,32.7575564 3.89678571,33.1470917 L3.89678571,92.2949827 C4.26392857,92.5758769 4.6425,92.84605 5.03178571,93.1169378 L5.03178571,33.168534 C5.03178571,32.8326045 5.06464286,32.4973897 5.07464286,32.1836173 C5.1075,29.5004699 5.15107143,27.7371974 8.80535714,25.4864699 L48.9617857,2.09577115 C49.9132143,1.64190897 50.7132143,1.41390577 51.3617857,1.41390577 C51.7839286,1.41390577 53.0375,1.41390577 53.0375,3.9133641 L53.0375,112.580121 C53.3189286,112.634441 53.6003571,112.698768 53.8810714,112.753803 L53.8810714,3.9133641 C53.8810714,3.74039615 53.8703571,3.57814936 53.8596429,3.41590256" id="Fill-8" fill="#462DAD"></path>
                    <path d="M2.54128571,56.626633 C2.54128571,56.1513285 2.20414286,55.567383 1.79271429,55.3293734 L1.04128571,54.8948093 C0.629142857,54.6575144 0.292714286,54.8526394 0.292714286,55.3286587 L0.292714286,64.7725657 C0.292714286,65.2485849 0.629857143,65.8325304 1.04128571,66.0705401 L1.79271429,66.5043894 C2.20414286,66.742399 2.54128571,66.547274 2.54128571,66.0719696 L2.54128571,56.626633 Z" id="Fill-10" fill="#4824A0"></path>
                    <path d="M34.1645,14.2221824 C33.9202143,14.6453106 33.9416429,15.1148971 34.2102143,15.2707112 C34.4802143,15.4265253 34.8966429,15.209958 35.1409286,14.7861151 C35.3852143,14.3629869 35.3652143,13.8934003 35.0952143,13.7375862 C34.8252143,13.5817721 34.4087857,13.7983394 34.1645,14.2221824" id="Fill-12" fill="#A79AF4"></path>
                    <path d="M28.8401429,14.878317 C28.7158571,15.0934548 28.7265714,15.3314644 28.863,15.4100862 C29.0008571,15.4894228 29.2122857,15.3793522 29.3358571,15.1642144 C29.4594286,14.9505061 29.4494286,14.7117817 29.3122857,14.6324452 C29.1751429,14.5538234 28.9637143,14.6631792 28.8401429,14.878317" id="Fill-14" fill="#A79AF4"></path>
                    <path d="M25.0775714,19.9352708 C25.0775714,19.5564567 25.479,19.0933029 25.8068571,18.9060401 L32.0268571,15.3987933 C32.3547143,15.2115304 32.7018571,15.3673446 32.7018571,15.7461587 L32.7018571,15.8219215 C32.7018571,16.2000208 32.4211429,16.6638894 32.0925714,16.851867 L25.8132857,20.3576843 C25.4847143,20.5456619 25.0775714,20.389133 25.0775714,20.0103189 L25.0775714,19.9352708 Z" id="Fill-16" fill="#A79AF4"></path>
                    <path d="M51.3617143,8.03593365 L7.35671429,33.3414304 C7.09671429,33.4929561 6.71814286,33.861049 6.71814286,34.1641003 L6.71814286,53.6487253 L6.77242857,53.6158471 L6.77242857,94.6935907 C13.6602857,99.3129785 21.9531429,103.380584 30.3752857,106.291735 C31.2188571,106.58335 32.0624286,106.864959 32.9052857,107.135132 C33.8681429,107.438184 34.8524286,107.751956 35.8467143,108.077164 C37.1545714,108.488142 38.4852857,108.909841 39.836,109.331539 C41.9288571,109.981241 44.0888571,110.611645 46.2752857,111.219892 C47.3602857,111.530091 48.4517143,111.832427 49.5567143,112.111892 C50.281,112.307017 51.016,112.491421 51.7624286,112.663674 C51.8381429,112.533591 51.9024286,112.342754 51.9024286,112.211956 L51.9024286,110.718857 L51.9024286,102.345636 L51.9024286,27.5212734 L51.9024286,9.33390801 L51.9024286,8.31682788 C51.9024286,8.01449135 51.621,7.88369327 51.3617143,8.03593365" id="Fill-18" fill="#FFFFFF"></path>
                </g>
                <g id="Group-23" transform="translate(70.000000, 94.860769)">
                    <mask id="mask-5" fill="white">
                        <use xlink:href="#path-4"></use>
                    </mask>
                    <g id="Clip-22"></g>
                    <path d="M33.605,0.365233974 L0.317857143,19.596125 C0.209285714,19.6590224 0.12,19.8269872 0.12,19.9720801 L0.12,19.9720801 L0.12,26.261109 C0.12,26.3297244 0.141428571,26.3797564 0.174285714,26.4083462 L0.174285714,26.4083462 L0.173571429,26.4090609 L0.176428571,26.4097756 C0.178571429,26.4119199 0.181428571,26.4126346 0.184285714,26.4147788 L0.184285714,26.4147788 L2.86785714,27.961484 L2.88857143,24.923109 L33.605,7.17816987 C33.7142857,7.11527244 33.8014286,6.94659295 33.8014286,6.80221474 L33.8014286,6.80221474 L33.8014286,4.6436891 L36.395,1.88763782 L33.7385714,0.357371795 L33.7385714,0.359516026 C33.7214286,0.348080128 33.7021429,0.342362179 33.6807143,0.342362179 L33.6807143,0.342362179 C33.6571429,0.342362179 33.6321429,0.349509615 33.605,0.365233974" id="Fill-21" mask="url(#mask-5)"></path>
                </g>
                <g id="Group-26" transform="translate(72.142857, 96.290256)">
                    <mask id="mask-7" fill="white">
                        <use xlink:href="#path-6"></use>
                    </mask>
                    <g id="Clip-25"></g>
                    <path d="M34.1328571,0.473160256 L0.844285714,19.7040513 C0.735714286,19.7669487 0.647857143,19.9363429 0.647857143,20.0807212 L0.647857143,20.0807212 L0.647857143,26.3690353 C0.647857143,26.5141282 0.735714286,26.5805994 0.844285714,26.5169872 L0.844285714,26.5169872 L34.1328571,7.28609615 C34.2414286,7.22391346 34.33,7.05523397 34.33,6.91014103 L34.33,6.91014103 L34.33,0.621826923 C34.33,0.513900641 34.2807143,0.449573718 34.2114286,0.449573718 L34.2114286,0.449573718 C34.1871429,0.449573718 34.1607143,0.457435897 34.1328571,0.473160256" id="Fill-24" fill="url(#linearGradient-8)" mask="url(#mask-7)"></path>
                </g>
                <g id="Group-124" transform="translate(73.571429, 79.136410)">
                    <path d="M28.1125714,23.1662692 L2.19328571,38.4167532 C2.99471429,39.1071955 3.75257143,39.8969872 4.449,40.7639712 L30.5604286,25.6793077 C29.8082857,24.7422788 28.9854286,23.8945929 28.1125714,23.1662692" id="Fill-27" fill="#2B0084"></path>
                    <path d="M31.7551429,22.5513753 L0.366571429,40.6858497 C0.291571429,40.7287343 0.231571429,40.6829907 0.231571429,40.5836413 L0.231571429,39.0047728 C0.231571429,38.9054234 0.291571429,38.7903497 0.366571429,38.7467503 L31.7551429,20.6129907 C31.8294286,20.5701061 31.8894286,20.6158497 31.8894286,20.715199 L31.8894286,22.2947824 C31.8894286,22.393417 31.8294286,22.5084907 31.7551429,22.5513753" id="Fill-29" fill="#2B0084"></path>
                    <path d="M31.7551429,20.6130622 L31.1165714,20.9818699 L31.1165714,21.834559 C31.1165714,21.9339083 31.0558571,22.0489821 30.9822857,22.0911519 L0.231571429,39.8568186 L0.231571429,40.5837128 C0.231571429,40.6830622 0.291571429,40.7288058 0.366571429,40.6859212 L31.7551429,22.5514468 C31.8294286,22.5085622 31.8894286,22.3934885 31.8894286,22.2948538 L31.8894286,20.7152705 C31.8894286,20.6159212 31.8294286,20.5694628 31.7551429,20.6130622" id="Fill-31" fill="#3B0EB8"></path>
                    <g id="Group-35" transform="translate(2.142857, 22.157051)">
                        <mask id="mask-10" fill="white">
                            <use xlink:href="#path-9"></use>
                        </mask>
                        <g id="Clip-34"></g>
                        <path d="M42.7821429,69.4966635 L36.7385714,72.9917596 L35.8942857,73.4792147 L34.7592857,74.1274872 L18.7142857,83.399141 C17.72,83.0746474 16.7357143,82.760875 15.7728571,82.4585385 C14.9307143,82.1876506 14.0864286,81.9067564 13.2435714,81.6137115 C10.9078571,78.8447949 9.31857143,75.1016827 9.31857143,71.8445962 L9.31857143,30.1378782 C9.31857143,27.3789679 8.35571429,24.3277276 6.78857143,21.6117019 C6.42071429,20.9734359 6.02071429,20.3566122 5.58785714,19.7612308 C5.05857143,19.0264744 4.475,18.3338878 3.85857143,17.7056282 C3.33928571,17.1652821 2.79857143,16.6671058 2.22571429,16.2239647 C2.06428571,16.0938814 1.90142857,15.9645128 1.73928571,15.8451506 C1.67428571,15.802266 1.59857143,15.7479455 1.53428571,15.7050609 C1.45785714,15.6500256 1.38214286,15.607141 1.30642857,15.5535353 C1.29571429,15.5420994 1.285,15.5420994 1.27428571,15.5313782 C1.08,15.412016 0.895714286,15.2833622 0.690714286,15.164 L26.8021429,0.0814807692 C27.0071429,0.200842949 27.2128571,0.330926282 27.4178571,0.471016026 C27.4935714,0.514615385 27.5692857,0.568935897 27.645,0.622541667 C27.7214286,0.666141026 27.7857143,0.720461538 27.8507143,0.763346154 C28.0128571,0.882708333 28.1757143,1.00135577 28.3371429,1.1314391 C28.91,1.57458013 29.4507143,2.08347756 29.97,2.62453846 C30.5864286,3.25208333 31.1585714,3.94395513 31.6885714,4.66941987 C33.0514286,6.52989744 34.1221429,8.66126282 34.7592857,10.8033494 C35.1921429,12.2314071 35.43,13.6709006 35.43,15.0446378 L35.43,56.7627917 C35.43,57.8013141 35.5914286,58.8941571 35.8942857,59.9762788 C36.1,60.7767917 36.3921429,61.5773045 36.7385714,62.356375 C36.9864286,62.9188782 37.2678571,63.471375 37.5814286,64.001 C38.9114286,66.3160545 40.7492857,68.3287724 42.7821429,69.4966635" id="Fill-33" mask="url(#mask-10)"></path>
                    </g>
                    <path d="M28.9412857,22.2379603 L2.82771429,37.3240532 C3.037,37.4448449 3.24414286,37.5763577 3.44985714,37.7114442 L3.45128571,37.7100147 L29.5612857,22.6246365 C29.3562857,22.4902647 29.1498571,22.3587519 28.9412857,22.2379603" id="Fill-36" fill="#3B0EB8"></path>
                    <polygon id="Fill-38" fill="#C6C6C6" points="21.3812857 45.4957167 17.1105714 47.9637263 17.1105714 47.4869923 21.3812857 45.0196974"></polygon>
                    <polygon id="Fill-40" fill="#C6C6C6" points="23.5722857 44.2302631 22.0344286 45.1186894 22.0344286 44.6426702 23.5722857 43.7542439"></polygon>
                    <polygon id="Fill-42" fill="#C6C6C6" points="25.2694286 43.2496349 24.2244286 43.8535933 24.2244286 43.377574 25.2694286 42.7736157"></polygon>
                    <polygon id="Fill-44" fill="#C6C6C6" points="19.4372143 47.7069904 17.1100714 49.0521378 17.1100714 48.5754038 19.4372143 47.2309712"></polygon>
                    <polygon id="Fill-46" fill="#C6C6C6" points="22.9423571 45.6821218 20.0902143 47.3303205 20.0902143 46.8543013 22.9423571 45.2061026"></polygon>
                    <polygon id="Fill-48" fill="#C6C6C6" points="24.6402143 44.7014221 23.5945 45.3053804 23.5945 44.8293612 24.6402143 44.2254029"></polygon>
                    <polygon id="Fill-50" fill="#C6C6C6" points="26.2557143 43.7681814 25.21 44.3721397 25.21 43.8954058 26.2557143 43.2921622"></polygon>
                    <polygon id="Fill-52" fill="#C6C6C6" points="18.7940714 49.1664968 17.1105 50.1392628 17.1105 49.6632436 18.7940714 48.6904776"></polygon>
                    <polygon id="Fill-54" fill="#C6C6C6" points="20.0217857 48.4573282 19.4460714 48.789684 19.4460714 48.3136647 20.0217857 47.981309"></polygon>
                    <polygon id="Fill-56" fill="#C6C6C6" points="21.7195714 47.4766285 20.6745714 48.0805869 20.6745714 47.6038529 21.7195714 46.9998946"></polygon>
                    <polygon id="Fill-58" fill="#C6C6C6" points="23.3253571 47.6364452 17.1103571 51.227317 17.1103571 50.7512978 23.3253571 47.160426"></polygon>
                    <polygon id="Fill-60" fill="#C6C6C6" points="25.5163571 46.3709917 23.9785 47.2594179 23.9785 46.7833987 25.5163571 45.8949724"></polygon>
                    <polygon id="Fill-62" fill="#C6C6C6" points="18.7940714 51.3428196 17.1105 52.3155856 17.1105 51.8388516 18.7940714 50.8668003"></polygon>
                    <polygon id="Fill-64" fill="#C6C6C6" points="22.7456429 49.0597141 19.4463571 50.9659353 19.4463571 50.4892013 22.7456429 48.5829801"></polygon>
                    <polygon id="Fill-66" fill="#C6C6C6" points="24.4435 48.0790144 23.3985 48.6829728 23.3985 48.2062388 24.4435 47.6022804"></polygon>
                    <polygon id="Fill-68" fill="#C6C6C6" points="20.5553571 51.4132933 17.1103571 53.4038542 17.1103571 52.9271202 20.5553571 50.9365593"></polygon>
                    <polygon id="Fill-70" fill="#C6C6C6" points="23.6999286 49.5964151 21.2085 51.0366234 21.2085 50.5598894 23.6999286 49.1203958"></polygon>
                    <polygon id="Fill-72" fill="#C6C6C6" points="26.0367143 48.2465503 24.3524286 49.2193163 24.3524286 48.7432971 26.0367143 47.7705311"></polygon>
                    <polygon id="Fill-74" fill="#C6C6C6" points="18.2737143 53.8192631 17.1101429 54.4911221 17.1101429 54.0151029 18.2737143 53.3432439"></polygon>
                    <polygon id="Fill-76" fill="#C6C6C6" points="20.464 52.5538096 18.9261429 53.4422359 18.9261429 52.9662167 20.464 52.0777904"></polygon>
                    <polygon id="Fill-78" fill="#C6C6C6" points="23.5945714 50.7453654 21.1167143 52.1769968 21.1167143 51.7002628 23.5945714 50.2686314"></polygon>
                    <polygon id="Fill-80" fill="#C6C6C6" points="20.6746429 53.5198571 17.1103571 55.5797481 17.1103571 55.1037288 20.6746429 53.0438378"></polygon>
                    <polygon id="Fill-82" fill="#C6C6C6" points="24.6674286 51.2136654 21.3274286 53.1427583 21.3274286 52.6667391 24.6674286 50.7369314"></polygon>
                    <polygon id="Fill-84" fill="#C6C6C6" points="26.3652143 50.2330372 25.3195 50.8369955 25.3195 50.3602615 26.3652143 49.7563032"></polygon>
                    <polygon id="Fill-86" fill="#C6C6C6" points="27.994 49.291434 26.949 49.8953923 26.949 49.4193731 27.994 48.8154147"></polygon>
                    <polygon id="Fill-88" fill="#C6C6C6" points="19.2454286 55.433726 17.1104286 56.6680881 17.1104286 56.1913542 19.2454286 54.9577067"></polygon>
                    <polygon id="Fill-90" fill="#C6C6C6" points="30.0455 40.4904388 33.0069286 38.7786279 33.0069286 38.3026087 30.0455 40.0144196"></polygon>
                    <polygon id="Fill-92" fill="#C6C6C6" points="30.6802143 41.2121869 33.0073571 39.8670394 33.0073571 39.3910202 30.6802143 40.7354529"></polygon>
                    <polygon id="Fill-94" fill="#C6C6C6" points="31.3233571 41.9282885 33.0069286 40.9555224 33.0069286 40.4795032 31.3233571 41.4515545"></polygon>
                    <polygon id="Fill-96" fill="#C6C6C6" points="30.5581429 43.4582686 33.0074286 42.043791 33.0074286 41.5670571 30.5581429 42.9822494"></polygon>
                    <polygon id="Fill-98" fill="#C6C6C6" points="31.3233571 44.1039679 33.0069286 43.1312019 33.0069286 42.6551827 31.3233571 43.6279487"></polygon>
                    <polygon id="Fill-100" fill="#C6C6C6" points="30.8720714 45.4531894 33.0070714 44.2188272 33.0070714 43.742808 30.8720714 44.9771702"></polygon>
                    <polygon id="Fill-102" fill="#C6C6C6" points="31.8437857 45.9794551 33.0073571 45.3075962 33.0073571 44.8315769 31.8437857 45.5034359"></polygon>
                    <polygon id="Fill-104" fill="#C6C6C6" points="30.7527857 47.6979131 33.0070714 46.3956503 33.0070714 45.9189163 30.7527857 47.2218939"></polygon>
                    <polygon id="Fill-106" fill="#C6C6C6" points="30.8720714 48.7169946 33.0070714 47.4826324 33.0070714 47.0066131 30.8720714 48.2409753"></polygon>
                    <polygon id="Fill-108" fill="#C6C6C6" points="20.8065 54.531934 19.8986429 55.0565558 19.8986429 54.5805365 20.8065 54.0559147"></polygon>
                    <polygon id="Fill-110" fill="#C6C6C6" points="23.5032143 52.9740074 21.4589286 54.1547638 21.4589286 53.6787446 23.5032143 52.4972734"></polygon>
                    <polygon id="Fill-112" fill="#C6C6C6" points="25.8420714 57.2924881 22.3920714 59.285908 22.3920714 58.8098888 25.8420714 56.8164689"></polygon>
                    <polygon id="Fill-114" fill="#C6C6C6" points="28.2053571 55.9278997 26.8467857 56.7126881 26.8467857 56.2366689 28.2053571 55.4511657"></polygon>
                    <path d="M93.0016429,36.5384071 C88.8337857,45.6156506 78.6409286,44.5756987 77.3680714,43.2219744 C77.0937857,42.9332179 76.9459286,42.3885833 76.8880714,41.7267308 C76.7373571,40.0771026 77.1259286,37.6526923 77.3787857,36.3168365 C76.9780714,36.3068301 76.4916429,36.3046859 75.9302143,36.2889615 C74.6980714,36.2560833 73.6816429,35.4069679 72.8416429,34.0425224 C72.5830714,33.6136763 72.3359286,33.1412308 72.1009286,32.6158942 C70.6730714,29.3638109 69.8945,24.504984 69.4837857,20.4130769 C69.0437857,16.2132436 68.9937857,12.8239295 68.9937857,12.8239295 C76.0673571,-6.67427564 88.6187857,14.6572468 88.6187857,14.6572468 C88.4823571,16.1474872 88.3909286,17.5405224 88.3352143,18.8377821 L88.3337857,18.9028237 C88.2202143,21.5409423 88.2573571,23.7816635 88.4016429,25.6900288 C88.4409286,26.2432404 88.4923571,26.7642885 88.5537857,27.2638942 C89.2402143,33.1583846 91.0116429,35.3276314 92.1045,36.1031282 C92.6352143,36.485516 93.0016429,36.5384071 93.0016429,36.5384071" id="Fill-116" fill="#ECB68A"></path>
                    <path d="M92.8593571,5.93423013 C90.6743571,-2.56835962 78.1686429,-0.0160102564 73.3886429,3.46479103 C66.2136429,8.68885192 65.1279286,16.5710442 65.7872143,18.1813615 C68.5222143,24.8642141 73.5243571,16.095025 78.8015,13.4397526 C82.5472143,11.5549737 83.9772143,16.5009994 83.9772143,16.5009994 C84.6293571,18.0133968 85.0300714,18.9311276 85.2943571,20.106166 C85.4357857,20.7358551 84.7407857,22.2689801 85.7822143,22.1031596 C87.9900714,21.7522205 86.8722143,18.8453583 87.2365,17.2443327 C88.7215,10.7222974 88.3800714,27.331509 88.3800714,27.331509 C95.0022143,24.8835122 93.9615,10.2212622 92.8593571,5.93423013" id="Fill-118" fill="#171244"></path>
                    <path d="M30.0301429,29.7559907 C28.8494286,31.7980131 28.5958571,34.1123529 28.4387143,36.436699 C28.3908571,37.1450099 28.0437143,37.7918529 27.4844286,38.2371381 C26.3458571,39.1427183 24.3894286,40.5314651 22.6687143,40.9238593 C20.8865714,41.3312631 19.1915714,38.9354426 18.2915714,37.365151 C16.9987143,35.1094202 19.8008571,32.7614875 21.6865714,32.0546061 C22.348,31.8073048 23.0801429,31.6443433 23.7651429,31.8316061 C25.7758571,32.3819587 26.5058571,31.9066542 27.473,29.9968593 C27.9808571,28.994074 28.4087143,27.9012311 29.268,27.1679042 C29.5115714,26.959199 29.8037143,26.7790837 30.1287143,26.764074 C30.4222857,26.7512087 30.708,26.8762888 30.9515714,27.0435388 C32.0251429,27.7840131 30.6351429,28.7746478 30.1765714,29.5115484 C30.1265714,29.5923144 30.0765714,29.6745099 30.0301429,29.7559907" id="Fill-120" fill="#ECB68A"></path>
                    <path d="M66.8465714,54.023108 C66.8465714,54.023108 48.5515714,67.3895279 26.8315714,35.1009862 L22.0365714,40.8368035 C22.0365714,40.8368035 46.2044286,94.6791529 69.713,67.4745824 C69.713,67.4745824 79.8665714,49.6138548 66.8465714,54.023108" id="Fill-122" fill="#ECB68A"></path>
                </g>
                <g id="Group-127" transform="translate(129.285714, 120.591538)">
                    <mask id="mask-12" fill="white">
                        <use xlink:href="#path-11"></use>
                    </mask>
                    <g id="Clip-126"></g>
                    <path d="M0.61,16.8557981 C1.06071429,20.1664904 9.60714286,30.4752372 9.60714286,30.4752372 L9.60714286,30.4752372 C9.60714286,30.4752372 15.6021429,29.3595224 15.7257143,24.7294135 L15.7257143,24.7294135 C15.8485714,20.0985897 21.0107143,0.157958333 21.0107143,0.157958333 L21.0107143,0.157958333 C21.0107143,0.157958333 0.158571429,13.5465353 0.61,16.8557981" id="Fill-125" fill="url(#linearGradient-13)" mask="url(#mask-12)"></path>
                </g>
                <g id="Group-130" transform="translate(140.000000, 114.873590)">
                    <mask id="mask-15" fill="white">
                        <use xlink:href="#path-14"></use>
                    </mask>
                    <g id="Clip-129"></g>
                    <path d="M25.8857143,0.112214744 C25.8214286,0.198698718 25.745,0.274461538 25.68,0.360945513 L25.68,0.360945513 C17.6685714,9.95780769 11.5171429,6.66855769 10.4571429,5.98740705 L10.4571429,5.98740705 C10.3485714,5.92236538 10.2957143,5.87948077 10.2957143,5.87948077 L10.2957143,5.87948077 L10.2835714,5.88948718 C6.86785714,10.2286955 4.57571429,14.1662179 3.05071429,17.6498782 L3.05071429,17.6498782 C-0.874285714,26.6299167 0.261428571,32.6351923 0.261428571,34.7980064 L0.261428571,34.7980064 L0.261428571,34.9502468 C0.250714286,35.1982628 0.250714286,35.4913077 0.250714286,35.8043654 L0.250714286,35.8043654 C0.293571429,39.0392949 0.867142857,45.2275449 0.867142857,45.2275449 L0.867142857,45.2275449 C0.995714286,49.9984583 1.01785714,64.3669487 0.952857143,72.8266538 L0.952857143,72.8266538 C6.58642857,69.9926955 11.9607143,66.1738205 17.3014286,63.7172468 L17.3014286,63.7172468 C18.5878571,63.111859 19.885,62.5922404 21.1721429,62.1812628 L21.1721429,62.1812628 C30.8278571,59.1185865 39.6714286,56.5226378 47.2507143,51.5780417 L47.2507143,51.5780417 C47.2292857,51.5022788 47.1971429,51.4272308 47.175,51.3514679 L47.175,51.3514679 C46.8507143,50.3887083 46.5264286,49.447391 46.2021429,48.5382372 L46.2021429,48.5382372 C45.4014286,46.2982308 41.1528571,45.2925865 40.9035714,45.2061026 L40.9035714,45.2061026 C40.9257143,45.2061026 41.1528571,45.238266 41.6607143,45.3254647 L41.6607143,45.3254647 C46.6021429,46.1252628 49.435,44.2426282 51.0571429,41.949016 L51.0571429,41.949016 C53.0028571,39.222984 53.2078571,35.9122917 53.2078571,35.9122917 L53.2078571,35.9122917 C51.36,21.2957853 46.6457143,12.6409551 41.6285714,7.52339103 L41.6285714,7.52339103 C40.45,6.3111859 39.2507143,5.29482051 38.0714286,4.46142949 L38.0714286,4.46142949 C35.195,2.38438462 32.4271429,1.30226282 30.2542857,0.729038462 L30.2542857,0.729038462 C28.0478571,0.156528846 26.4664286,0.110785256 26.0164286,0.110785256 L26.0164286,0.110785256 C25.9307143,0.110785256 25.8857143,0.112214744 25.8857143,0.112214744" id="Fill-128" fill="url(#linearGradient-16)" mask="url(#mask-15)"></path>
                </g>
                <path d="M191.056929,156.82282 C190.656214,159.517404 189.932643,162.437846 188.721214,165.456208 C188.321214,165.748538 187.9105,166.030147 187.488357,166.301035 C187.412643,166.354641 187.336929,166.408246 187.251214,166.451846 C179.671929,171.396442 170.827643,173.992391 161.171929,177.055067 C159.884786,177.466045 158.587643,177.984948 157.301214,178.591051 C164.6105,171.774541 172.341214,163.660057 174.849786,159.430205 C175.011214,159.170753 175.2705,158.60825 175.584786,157.894221 C176.568357,155.708535 178.136214,152.116234 178.989786,151.69525 C182.017643,150.169272 186.083357,141.232833 190.3755,141.979025 C190.3755,141.979025 192.331929,148.275916 191.056929,156.82282" id="Fill-131" fill="#ECB68A"></path>
                <g id="Group-135" transform="translate(172.857143, 119.162051)">
                    <mask id="mask-18" fill="white">
                        <use xlink:href="#path-17"></use>
                    </mask>
                    <g id="Clip-134"></g>
                    <path d="M0.867142857,14.4757019 C7.44214286,18.6626699 0.672857143,36.8393141 0.672857143,36.8393141 L0.672857143,36.8393141 C1.37571429,37.4883013 2.05714286,38.1151314 2.72785714,38.7319551 L2.72785714,38.7319551 C5.99285714,41.7295897 9.04214286,44.3476955 13.2264286,46.576266 L13.2264286,46.576266 C13.5714286,46.7599551 13.9392857,46.9436442 14.3178571,47.0630064 L14.3178571,47.0630064 C14.4257143,47.0958846 14.5228571,47.1166122 14.6307143,47.1387692 L14.6307143,47.1387692 C15.0528571,46.8678814 15.4642857,46.5869872 15.8642857,46.2939423 L15.8642857,46.2939423 C16.1992857,46.0673686 16.535,45.829359 16.8585714,45.5799135 L16.8585714,45.5799135 C17.0107143,45.4727019 17.1507143,45.3533397 17.3021429,45.2339776 L17.3021429,45.2339776 C18.3285714,43.1462115 18.9342857,39.9770385 19.3242857,38.6890705 L19.3242857,38.6890705 C20.07,36.2217756 21.1514286,33.4199808 21.1728571,30.8118814 L21.1728571,30.8118814 C21.2921429,16.9315609 15.7664286,9.55326282 8.77142857,3.23492949 L8.77142857,3.23492949 C7.625,2.19712179 6.42571429,1.18004167 5.21428571,0.172967949 L5.21428571,0.172967949 L0.867142857,14.4757019 Z" id="Fill-133" fill="url(#linearGradient-19)" mask="url(#mask-18)"></path>
                </g>
                <g id="Group-182" transform="translate(0.000000, 0.514615)">
                    <path d="M227.3285,79.8718099 C227.3285,91.8223228 217.647071,101.509957 205.704929,101.509957 C193.761357,101.509957 184.079929,91.8223228 184.079929,79.8718099 C184.079929,67.9212971 193.761357,58.2343772 205.704929,58.2343772 C217.647071,58.2343772 227.3285,67.9212971 227.3285,79.8718099" id="Fill-136" fill="#50CC56"></path>
                    <path d="M201.063857,90.4736016 C200.413143,90.4736016 199.761714,90.2241561 199.265286,89.7274093 L192.444571,82.901608 C191.450286,81.9081144 191.450286,80.2963676 192.444571,79.3021593 C193.436714,78.307951 195.048857,78.307951 196.041714,79.3021593 L201.063857,84.3268067 L215.366714,70.0162106 C216.359571,69.0212875 217.971714,69.0212875 218.964571,70.0162106 C219.958143,71.0104189 219.958143,72.621451 218.964571,73.6156593 L202.863143,89.7274093 C202.366714,90.2241561 201.715286,90.4736016 201.063857,90.4736016" id="Fill-138" fill="#FFFFFF"></path>
                    <path d="M245.438857,59.1170141 C244.888143,60.1362385 244.323857,61.1547481 243.773857,62.1732577 C243.801714,62.1325173 245.617429,62.7100301 245.768857,62.7514853 C245.933857,62.7929404 247.722429,63.3847481 247.777429,63.2882577 C248.328143,62.2697481 248.891714,61.2505237 249.441714,60.2327288 C249.414571,60.2734692 246.773143,57.4237865 246.608143,57.3823314 C246.443143,57.341591 245.480286,59.0205237 245.438857,59.1170141" id="Fill-140" fill="#FA7697"></path>
                    <path d="M243.268857,112.898038 C244.753143,114.497635 246.214571,116.097946 247.698857,117.697542 C247.836714,117.834058 252.975286,113.263987 253.043857,113.331888 C251.558857,111.732292 250.097429,110.132696 248.612429,108.533814 C248.476,108.395869 243.313857,112.966654 243.268857,112.898038" id="Fill-142" fill="#3F67F2"></path>
                    <path d="M29.1205714,150.135894 C29.212,152.123596 29.3034286,154.134884 29.3948571,156.123301 C29.3948571,156.306275 33.9855714,156.23766 33.9855714,156.351304 C33.8941429,154.363602 33.8027143,152.353028 33.7112857,150.363897 C33.7112857,150.204509 29.1205714,150.249538 29.1205714,150.135894" id="Fill-144" fill="#30D6AF"></path>
                    <path d="M84.7908571,35.2094128 C86.458,36.0092109 88.148,36.7861372 89.8151429,37.5859353 C89.9522857,37.6545506 92.008,33.5412013 92.0987143,33.5862301 C90.4315714,32.7864321 88.7415714,32.0095058 87.0744286,31.2097077 C86.9372857,31.1418071 84.8594286,35.2322846 84.7908571,35.2094128" id="Fill-146" fill="#FF8164"></path>
                    <path d="M179.133786,12.8464439 C178.8595,15.154351 178.562357,17.4629728 178.288786,19.7708798 C178.265929,20.0453413 182.742357,20.8444247 182.696643,21.0509856 C182.970929,18.7423638 183.267357,16.4344567 183.541643,14.1258349 C183.587357,13.8513734 179.110929,13.0522901 179.133786,12.8464439" id="Fill-148" fill="#3F67F2"></path>
                    <path d="M218.458571,170.463487 C219.829286,171.697849 221.222143,172.931497 222.592143,174.142272 C222.729286,174.257346 224.487857,173.319603 224.693571,173.205958 C224.899286,173.114471 226.657857,172.131699 226.772143,172.245343 C225.402143,171.011696 224.008571,169.777333 222.638571,168.566558 C222.500714,168.452199 220.742143,169.389228 220.537143,169.503587 C220.331429,169.595074 218.572857,170.577131 218.458571,170.463487" id="Fill-150" fill="#FFBC1F"></path>
                    <g id="Group-154" transform="translate(252.142857, 127.939103)">
                        <mask id="mask-21" fill="white">
                            <use xlink:href="#path-20"></use>
                        </mask>
                        <g id="Clip-153"></g>
                        <path d="M3.16142857,0.488527244 C3.89214286,3.04802404 2.65928571,5.81336699 0.284285714,7.00198558 C0.49,6.8876266 2.08857143,7.87039904 2.36214286,8.00762981 C2.65928571,8.14486058 4.14357143,9.10476122 4.46357143,8.96681571 C6.86214286,7.77891186 8.07214286,5.01356891 7.34142857,2.45407212 C7.25,2.15673878 5.55928571,1.60853045 5.26285714,1.44842788 C4.76,1.21970994 4.28071429,0.991706731 3.77785714,0.762988782 C3.68714286,0.717245192 3.16142857,0.534270833 3.16142857,0.488527244" id="Fill-152" fill="#FF8164" mask="url(#mask-21)"></path>
                    </g>
                    <path d="M129.417,31.483526 C131.426286,32.3748112 133.437,33.2432247 135.446286,34.1345099 C135.378429,34.1116381 135.674857,32.032449 135.674857,31.8494747 C135.697714,31.6436285 136.017,29.6323401 135.857714,29.5637247 C133.847714,28.6724394 131.838429,27.8047407 129.828429,26.9127407 C129.897,26.9356125 129.599857,29.0155163 129.599857,29.1984907 C129.599857,29.4036221 129.257,31.4149106 129.417,31.483526" id="Fill-155" fill="#30D6AF"></path>
                    <path d="M15.577,104.03772 C17.3584286,105.774546 19.1398571,107.534245 20.9212857,109.271072 C20.967,109.316816 24.1877143,106.048293 24.1877143,106.025421 C22.4062857,104.289309 20.6241429,102.529611 18.8427143,100.792784 C18.7977143,100.74704 15.577,104.014848 15.577,104.03772" id="Fill-157" fill="#3F67F2"></path>
                    <path d="M66.4685,202.321896 C66.9785,200.377794 67.4906429,198.410104 68.0227876,196.468146 C68.0256429,196.445274 64.6985,195.555419 64.6942143,195.601162 C64.1842143,197.545265 63.6720714,199.512954 63.1399286,201.454912 C63.1399286,201.454912 66.4663571,202.344768 66.4685,202.321896" id="Fill-159" fill="#FF8164"></path>
                    <path d="M128.806643,222.285185 L132.026643,222.285185 C132.118071,222.285185 132.438071,220.754204 132.460214,220.616973 C132.483071,220.480457 132.803071,218.948762 132.871643,218.948762 L129.651643,218.948762 C129.560214,218.948762 129.240214,220.480457 129.217357,220.616973 C129.171643,220.731332 128.851643,222.285185 128.806643,222.285185" id="Fill-161" fill="#3F67F2"></path>
                    <path d="M185.463286,188.330647 C187.153286,188.330647 188.843286,188.307776 190.534,188.307776 C190.625429,188.307776 190.670429,184.856994 190.716143,184.856994 C189.026143,184.856994 187.336143,184.879865 185.646143,184.879865 C185.554714,184.879865 185.509,188.330647 185.463286,188.330647" id="Fill-163" fill="#FF8164"></path>
                    <path d="M203.929429,39.6018696 C204.020857,41.4073119 204.911571,42.9840362 206.373,44.013267 C206.464429,44.0818824 207.629429,43.0755234 207.765857,42.9840362 C207.880143,42.892549 209.068,41.8876196 209.136571,41.9333631 C207.652286,40.9048471 206.783714,39.305251 206.692286,37.5226804 C206.692286,37.6820683 205.459429,38.4368375 205.299429,38.5504817 C205.116571,38.6884272 203.929429,39.3738663 203.929429,39.6018696" id="Fill-165" fill="#30D6AF"></path>
                    <path d="M21.1678571,180.804254 C22.1635714,182.092222 23.1592857,183.379476 24.1607143,184.686027 C24.2785714,184.843271 25.5121429,184.739633 25.7157143,184.758931 C25.9385714,184.772511 27.1585714,184.629562 27.2835714,184.806819 C26.2871429,183.519565 25.2914286,182.232312 24.2892857,180.925761 C24.1714286,180.767803 22.9385714,180.872155 22.735,180.851428 C22.5314286,180.832129 21.3114286,180.975078 21.1678571,180.804254" id="Fill-167" fill="#FFBC1F"></path>
                    <path d="M52.1765,51.1927234 C52.1765,53.2040119 52.1536429,55.2381721 52.1536429,57.2494606 C52.1536429,57.2723324 55.6022143,57.2944894 55.6022143,57.2723324 C55.6022143,55.2603292 55.6250714,53.2268837 55.6250714,51.2155952 C55.6250714,51.1698516 52.1765,51.1698516 52.1765,51.1927234" id="Fill-169" fill="#FA7697"></path>
                    <path d="M151.091071,17.6116394 C149.058214,17.3829215 147.026071,17.1542035 144.993214,16.9483574 C144.901786,16.9483574 144.444643,20.3541106 144.399643,20.3541106 C146.4325,20.5821138 148.464643,20.8108317 150.4975,21.0166779 C150.588929,21.0395497 151.046071,17.6116394 151.091071,17.6116394" id="Fill-171" fill="#FFBC1F"></path>
                    <g id="Group-175" transform="translate(105.000000, 0.000000)">
                        <mask id="mask-23" fill="white">
                            <use xlink:href="#path-22"></use>
                        </mask>
                        <g id="Clip-174"></g>
                        <path d="M3.89035714,0.203773397 C2.79392857,1.27803301 1.67464286,2.32942083 0.578214286,3.40368045 C0.6475,3.33506506 3.13607143,5.7115875 3.25035714,5.59722853 C4.3475,4.52296891 5.46607143,3.47158109 6.5625,2.39732147 C6.47107143,2.4666516 4.00464286,0.0894144231 3.89035714,0.203773397" id="Fill-173" fill="#3F67F2" mask="url(#mask-23)"></path>
                    </g>
                    <path d="M18.0267857,42.244491 C25.6317857,43.2294077 31.2960714,48.8944654 31.2739286,54.7689429 C31.2510714,57.8480583 29.7889286,60.8392603 27.4367857,63.3015519 C26.9110714,63.8640551 26.3175,64.3922506 25.7010714,64.9018628 C25.5182143,65.0605359 24.1939286,66.0104301 25.6317857,65.0083596 C26.8882143,64.1277955 26.0439286,64.7088821 25.7232143,64.9018628 C25.2439286,65.1841865 24.7410714,65.4479269 24.2160714,65.7116673 C22.3432143,66.6086705 20.2425,67.3648692 18.0267857,67.5414109 C15.6975,67.7343917 13.3682143,67.2069109 11.9746429,65.7116673 C11.4267857,65.1312955 11.0610714,64.4451417 10.9925,63.7239654 C10.9467857,63.3544429 11.0160714,62.9849205 11.1525,62.6325519 C11.4039286,62.0000038 12.5682143,61.1380231 10.7417857,62.3866801 C10.4217857,62.5982442 10.1017857,62.8083788 9.7825,63.0199429 C13.6189286,60.7506321 17.9132143,63.4423564 20.0825,65.9396705 C22.1153571,68.279741 23.1889286,71.0415103 23.4167857,73.8390167 C23.6225,76.6186545 23.0060714,79.4326 21.6132143,81.9842346 C20.9282143,83.2679141 20.0367857,84.4822635 18.9860714,85.590116 C18.4382143,86.153334 17.8667857,86.6979686 17.2275,87.1911417 C17.0446429,87.3491 16.8167857,87.4899045 16.6339286,87.6478628 C16.5196429,87.7536449 18.7810714,86.2584013 17.7989286,86.8216192 C17.3417857,87.0853596 16.9082143,87.3491 16.4282143,87.5778179 C13.0253571,89.3017795 7.40678571,90.6211962 4.50607143,87.5778179 C3.50178571,86.5221417 2.99892857,85.0268981 3.77607143,83.7961096 C3.86678571,83.6553051 3.95821429,83.5495231 4.04964286,83.4258724 C4.7575,82.4409558 1.55964286,84.7274205 2.54178571,84.4293724 C2.9075,84.3235904 3.2275,84.1649173 3.61535714,84.0948724 C4.48321429,83.9361994 5.39678571,83.9890904 6.24178571,84.1827859 C10.7189286,85.2034397 10.9925,89.1616897 9.44035714,92.0113724 C7.6125,95.3706673 3.72964286,97.7286064 1.78892857,101.052879 C-1.88821429,107.386222 0.235357143,115.389921 6.95035714,120.017171 C7.06392857,120.105084 9.44035714,118.204581 9.53035714,118.258187 C4.5975,114.86244 2.15392857,109.690555 2.63321429,104.641606 C2.88535714,102.144292 3.84464286,99.6984397 5.55678571,97.5699333 C7.65821429,94.9482538 10.7867857,92.8025936 12.2032143,89.8649974 C13.3682143,87.4548821 13.2767857,84.2878532 10.0560714,82.8633692 C8.86892857,82.3358885 7.36107143,82.0893019 6.03678571,82.3880647 C4.5975,82.7046962 3.4325,83.7432186 2.35964286,84.4994173 C1.3775,85.1855712 0.738214286,85.9775071 0.783214286,87.0324686 C0.829642857,88.1760583 1.58321429,89.2839109 2.65607143,90.0579782 C5.55678571,92.0992859 10.0560714,91.0965006 13.0482143,89.7413468 C15.5832143,88.5984718 17.9132143,86.961709 19.9225,85.3085071 C21.9325,83.6374365 23.4860714,81.6497346 24.4903571,79.5033596 C26.5460714,75.1934558 26.5232143,70.2324205 23.9646429,66.0461673 C22.5717857,63.7940103 20.2882143,61.2430904 16.9760714,60.5748051 C13.8475,59.9415423 11.2439286,61.6476353 9.27964286,63.3365744 C7.06392857,65.2542314 9.02821429,68.1217827 11.7460714,68.9837635 C15.3553571,70.1273532 19.5803571,68.5963724 22.5260714,66.9774782 C27.9617857,64.0048596 32.7803571,59.8357603 33.6260714,54.5588083 C34.4482143,49.4391 30.9539286,44.1442795 25.0382143,41.6812731 C23.6225,41.0830327 22.1153571,40.6963564 20.5160714,40.5026609 C20.2882143,40.4676385 19.3975,41.2588596 19.2146429,41.3825103 C19.1460714,41.4704237 18.2553571,42.2795135 18.0267857,42.244491" id="Fill-176" fill="#FFBC1F"></path>
                    <path d="M225.441,146.060283 C227.342429,147.79711 230.186,150.077856 232.829571,148.351036 C233.937429,147.629145 234.073143,146.426231 234.251,145.211882 C234.386714,144.291292 234.052429,143.245622 233.248143,142.711709 C232.119571,141.96909 230.906714,142.816776 230.404571,143.873167 C230.143857,144.427808 230.018143,145.013898 229.903143,145.609994 C229.777429,146.258981 229.631714,146.917975 229.600286,147.58769 C229.443857,150.558879 230.186,153.603687 231.575286,156.230369 C232.286,157.569799 233.164571,158.804161 234.208857,159.902722 C235.159571,160.89693 236.278857,161.828241 237.626714,162.204196 C238.870286,162.539411 240.312429,162.287821 241.221714,161.335783 C241.598143,160.949106 241.806714,160.47809 241.911714,159.954898 C242.026714,159.379529 242.214571,158.761991 242.204571,158.165895 C242.183143,157.203135 241.472429,156.188199 240.511714,155.958052 C239.423857,155.707177 238.619571,156.586312 238.389571,157.569799 C238.107429,158.772712 237.888143,159.965619 238.149571,161.18926 C238.452429,162.57086 239.163143,163.910289 239.884571,165.103196 C241.462429,167.718443 243.688143,169.947013 246.301,171.527312 C248.611,172.918203 252.091,173.557183 253.157429,176.361122 C253.261714,176.643446 253.334571,176.935776 253.366,177.239542 C253.376,177.375344 253.355286,177.522581 253.386714,177.647661 C253.428857,177.887815 253.533143,176.852866 253.553857,176.832138 C253.522429,176.873594 253.470286,177.05085 253.460286,177.09302 C253.261714,177.574757 253.366,178.170853 253.167429,178.65259 C253.386714,178.118677 253.460286,177.522581 253.564571,176.957219 C253.658857,176.465475 253.721714,175.994459 253.638143,175.492709 C253.449571,174.383427 252.748857,173.431388 251.871714,172.760959 C250.784571,171.924709 249.478143,171.453693 248.245286,170.867603 C246.959571,170.260786 245.736714,169.507446 244.628857,168.618305 C242.465286,166.902206 240.678143,164.715805 239.455286,162.246366 C238.901714,161.14709 238.389571,159.975626 238.316,158.731257 C238.306,158.490388 238.326714,158.259526 238.326714,158.029379 C238.337429,159.138661 238.045286,159.17011 238.243143,158.689087 C238.284571,158.574013 238.347429,158.45894 238.410286,158.353872 C238.671714,157.935033 239.089571,157.621975 239.581,157.527629 C240.480286,157.349658 241.316,158.018658 241.692429,158.79344 C241.786,158.981417 241.858857,159.190837 241.890286,159.400257 C241.911714,159.515331 241.911714,159.630404 241.921714,159.745478 C241.984571,160.352296 242.361,158.437497 242.036714,159.033594 C241.744571,159.557501 241.420286,159.975626 240.898143,160.289398 C238.536,161.723174 235.996,159.965619 234.386714,158.238799 C232.568857,156.282546 231.241,153.876004 230.519571,151.302212 C230.143857,149.962783 229.923857,148.571177 229.892429,147.179571 C229.882429,146.886526 229.882429,146.593481 229.892429,146.311158 C229.892429,146.143908 229.903143,145.976658 229.923857,145.819414 C230.018143,144.783751 229.621714,146.740004 229.892429,146.071004 C230.123143,145.474193 230.352429,144.898824 230.854571,144.479985 C231.753143,143.716638 232.976,143.978235 233.592429,144.940994 C233.875286,145.390568 233.978857,145.861584 234.010286,146.384062 C234.052429,147.012321 234.428857,145.056068 234.156714,145.630722 C234.083857,145.787965 234.021,145.934488 233.916714,146.071004 C233.749571,146.311158 233.540286,146.530584 233.310286,146.708555 C232.254571,147.514071 230.760286,147.576969 229.537429,147.169565 C228.053143,146.6671 226.872429,145.578546 225.733143,144.542882 C225.775286,144.585052 225.597429,145.233324 225.576,145.316949 C225.566,145.379847 225.378143,145.997385 225.441,146.060283" id="Fill-178" fill="#30D6AF"></path>
                    <path d="M226.343571,8.37236346 C224.126429,8.14936346 222.089286,9.03921923 220.611429,10.3993763 C218.919286,11.9546583 218.114286,13.912341 217.753571,15.9672288 C217.030714,20.0498442 217.769286,24.5484404 214.829286,28.1164404 C213.597143,29.6166872 211.775,30.6301936 209.605714,30.8517641 C207.29,31.0876295 204.990714,30.5329885 202.724286,30.1856231 C200.490714,29.8382577 198.142143,29.6445622 196.022857,30.4772385 C194.035714,31.2548795 192.59,32.7265365 191.292143,34.1710333 C189.780714,35.8371006 188.401429,37.5724981 186.249286,38.6975045 C184.229286,39.7667609 181.650714,40.2935269 179.580714,39.0162801 C179.662857,39.0720301 179.515,39.9468763 179.499286,40.0576615 C179.482857,40.1963218 179.318571,41.0297128 179.45,41.0990429 C181.207143,42.1961744 183.391429,41.9746038 185.264286,41.1826679 C187.317143,40.3214019 188.762857,38.9333699 190.126429,37.4059628 C191.44,35.9343058 192.704286,34.3647288 194.495,33.2547321 C196.367143,32.0882705 198.552143,31.8102353 200.819286,32.0325205 C205.138571,32.449216 210.066429,34.2396487 213.663571,31.2127096 C217.079286,28.3530205 217.030714,23.9787897 217.326429,20.2156647 C217.522857,17.7169212 217.999286,15.1617128 219.822857,13.106825 C221.333571,11.4128827 223.600714,10.177091 226.179286,10.4415462 C226.179286,10.4687064 226.425714,8.38665833 226.343571,8.37236346" id="Fill-180" fill="#FF8164"></path>
                </g>
            </g>
        </g>
    </g>
</svg>